<mxfile host="app.diagrams.net" modified="2023-04-20T20:08:15.243Z" agent="Mozilla/5.0 (Windows NT 10.0; Win64; x64) AppleWebKit/537.36 (KHTML, like Gecko) Chrome/112.0.0.0 Safari/537.36" etag="ZiUhyyAyBhFjeCgDqOxs" version="21.1.8" type="device" pages="3">
  <diagram name="MCD" id="Eu4plK_NlQwkSul7Nn8m">
    <mxGraphModel dx="1434" dy="1957" grid="1" gridSize="10" guides="1" tooltips="1" connect="1" arrows="1" fold="1" page="1" pageScale="1" pageWidth="827" pageHeight="1169" math="0" shadow="0">
      <root>
        <mxCell id="0" />
        <mxCell id="1" parent="0" />
        <mxCell id="hSeB0Swj8MZ_jqLU8WZA-38" style="edgeStyle=orthogonalEdgeStyle;rounded=0;orthogonalLoop=1;jettySize=auto;html=1;entryX=0.5;entryY=1;entryDx=0;entryDy=0;entryPerimeter=0;endArrow=none;endFill=0;" parent="1" source="hSeB0Swj8MZ_jqLU8WZA-17" edge="1">
          <mxGeometry relative="1" as="geometry">
            <mxPoint x="70" y="-60" as="targetPoint" />
          </mxGeometry>
        </mxCell>
        <mxCell id="hSeB0Swj8MZ_jqLU8WZA-39" style="edgeStyle=orthogonalEdgeStyle;rounded=0;orthogonalLoop=1;jettySize=auto;html=1;entryX=0.5;entryY=0;entryDx=0;entryDy=0;endArrow=none;endFill=0;" parent="1" source="hSeB0Swj8MZ_jqLU8WZA-17" target="hSeB0Swj8MZ_jqLU8WZA-178" edge="1">
          <mxGeometry relative="1" as="geometry">
            <mxPoint x="70" y="140" as="targetPoint" />
          </mxGeometry>
        </mxCell>
        <mxCell id="hSeB0Swj8MZ_jqLU8WZA-17" value="fraction" style="ellipse;whiteSpace=wrap;html=1;" parent="1" vertex="1">
          <mxGeometry x="10" y="20" width="120" height="40" as="geometry" />
        </mxCell>
        <mxCell id="hSeB0Swj8MZ_jqLU8WZA-18" style="edgeStyle=orthogonalEdgeStyle;rounded=0;orthogonalLoop=1;jettySize=auto;html=1;exitX=0.5;exitY=1;exitDx=0;exitDy=0;" parent="1" source="hSeB0Swj8MZ_jqLU8WZA-17" target="hSeB0Swj8MZ_jqLU8WZA-17" edge="1">
          <mxGeometry relative="1" as="geometry" />
        </mxCell>
        <mxCell id="hSeB0Swj8MZ_jqLU8WZA-43" style="edgeStyle=orthogonalEdgeStyle;rounded=0;orthogonalLoop=1;jettySize=auto;html=1;entryX=0.5;entryY=0;entryDx=0;entryDy=0;endArrow=none;endFill=0;" parent="1" source="hSeB0Swj8MZ_jqLU8WZA-20" edge="1">
          <mxGeometry relative="1" as="geometry">
            <mxPoint x="70" y="460" as="targetPoint" />
          </mxGeometry>
        </mxCell>
        <mxCell id="hSeB0Swj8MZ_jqLU8WZA-182" style="rounded=0;orthogonalLoop=1;jettySize=auto;html=1;endArrow=none;endFill=0;" parent="1" source="hSeB0Swj8MZ_jqLU8WZA-20" target="hSeB0Swj8MZ_jqLU8WZA-181" edge="1">
          <mxGeometry relative="1" as="geometry">
            <mxPoint x="70" y="260" as="targetPoint" />
          </mxGeometry>
        </mxCell>
        <mxCell id="hSeB0Swj8MZ_jqLU8WZA-20" value="correspond" style="ellipse;whiteSpace=wrap;html=1;" parent="1" vertex="1">
          <mxGeometry x="10" y="340" width="120" height="40" as="geometry" />
        </mxCell>
        <mxCell id="hSeB0Swj8MZ_jqLU8WZA-335" style="edgeStyle=orthogonalEdgeStyle;rounded=0;orthogonalLoop=1;jettySize=auto;html=1;entryX=0;entryY=0.5;entryDx=0;entryDy=0;endArrow=none;endFill=0;" parent="1" source="hSeB0Swj8MZ_jqLU8WZA-21" target="hSeB0Swj8MZ_jqLU8WZA-190" edge="1">
          <mxGeometry relative="1" as="geometry" />
        </mxCell>
        <mxCell id="hSeB0Swj8MZ_jqLU8WZA-21" value="has" style="ellipse;whiteSpace=wrap;html=1;" parent="1" vertex="1">
          <mxGeometry x="210" y="485" width="120" height="40" as="geometry" />
        </mxCell>
        <mxCell id="hSeB0Swj8MZ_jqLU8WZA-204" style="edgeStyle=orthogonalEdgeStyle;rounded=0;orthogonalLoop=1;jettySize=auto;html=1;entryX=0;entryY=0.333;entryDx=0;entryDy=0;entryPerimeter=0;endArrow=none;endFill=0;" parent="1" source="hSeB0Swj8MZ_jqLU8WZA-34" target="hSeB0Swj8MZ_jqLU8WZA-199" edge="1">
          <mxGeometry relative="1" as="geometry" />
        </mxCell>
        <mxCell id="hSeB0Swj8MZ_jqLU8WZA-34" value="has" style="ellipse;whiteSpace=wrap;html=1;" parent="1" vertex="1">
          <mxGeometry x="210" y="600" width="120" height="40" as="geometry" />
        </mxCell>
        <mxCell id="hSeB0Swj8MZ_jqLU8WZA-349" style="edgeStyle=orthogonalEdgeStyle;rounded=0;orthogonalLoop=1;jettySize=auto;html=1;entryX=0;entryY=0.5;entryDx=0;entryDy=0;endArrow=none;endFill=0;" parent="1" source="hSeB0Swj8MZ_jqLU8WZA-54" target="hSeB0Swj8MZ_jqLU8WZA-244" edge="1">
          <mxGeometry relative="1" as="geometry" />
        </mxCell>
        <mxCell id="hSeB0Swj8MZ_jqLU8WZA-354" style="edgeStyle=orthogonalEdgeStyle;rounded=0;orthogonalLoop=1;jettySize=auto;html=1;entryX=1.002;entryY=0.687;entryDx=0;entryDy=0;entryPerimeter=0;endArrow=none;endFill=0;" parent="1" source="hSeB0Swj8MZ_jqLU8WZA-54" target="hSeB0Swj8MZ_jqLU8WZA-190" edge="1">
          <mxGeometry relative="1" as="geometry" />
        </mxCell>
        <mxCell id="hSeB0Swj8MZ_jqLU8WZA-54" value="make" style="ellipse;whiteSpace=wrap;html=1;" parent="1" vertex="1">
          <mxGeometry x="610" y="490" width="120" height="40" as="geometry" />
        </mxCell>
        <mxCell id="hSeB0Swj8MZ_jqLU8WZA-355" style="edgeStyle=orthogonalEdgeStyle;rounded=0;orthogonalLoop=1;jettySize=auto;html=1;entryX=0.502;entryY=0.98;entryDx=0;entryDy=0;entryPerimeter=0;endArrow=none;endFill=0;" parent="1" source="hSeB0Swj8MZ_jqLU8WZA-59" target="hSeB0Swj8MZ_jqLU8WZA-284" edge="1">
          <mxGeometry relative="1" as="geometry" />
        </mxCell>
        <mxCell id="hSeB0Swj8MZ_jqLU8WZA-356" style="edgeStyle=orthogonalEdgeStyle;rounded=0;orthogonalLoop=1;jettySize=auto;html=1;endArrow=none;endFill=0;" parent="1" source="hSeB0Swj8MZ_jqLU8WZA-59" target="hSeB0Swj8MZ_jqLU8WZA-243" edge="1">
          <mxGeometry relative="1" as="geometry" />
        </mxCell>
        <mxCell id="hSeB0Swj8MZ_jqLU8WZA-59" value="contain" style="ellipse;whiteSpace=wrap;html=1;" parent="1" vertex="1">
          <mxGeometry x="810" y="340" width="120" height="40" as="geometry" />
        </mxCell>
        <mxCell id="hSeB0Swj8MZ_jqLU8WZA-294" style="edgeStyle=orthogonalEdgeStyle;rounded=0;orthogonalLoop=1;jettySize=auto;html=1;entryX=0.496;entryY=0.967;entryDx=0;entryDy=0;entryPerimeter=0;endArrow=none;endFill=0;" parent="1" source="hSeB0Swj8MZ_jqLU8WZA-66" target="hSeB0Swj8MZ_jqLU8WZA-289" edge="1">
          <mxGeometry relative="1" as="geometry" />
        </mxCell>
        <mxCell id="hSeB0Swj8MZ_jqLU8WZA-66" value="is" style="ellipse;whiteSpace=wrap;html=1;" parent="1" vertex="1">
          <mxGeometry x="410" y="340" width="120" height="40" as="geometry" />
        </mxCell>
        <mxCell id="hSeB0Swj8MZ_jqLU8WZA-209" style="edgeStyle=orthogonalEdgeStyle;rounded=0;orthogonalLoop=1;jettySize=auto;html=1;entryX=0.173;entryY=0.986;entryDx=0;entryDy=0;entryPerimeter=0;endArrow=none;endFill=0;" parent="1" source="hSeB0Swj8MZ_jqLU8WZA-68" target="hSeB0Swj8MZ_jqLU8WZA-203" edge="1">
          <mxGeometry relative="1" as="geometry" />
        </mxCell>
        <mxCell id="hSeB0Swj8MZ_jqLU8WZA-338" style="edgeStyle=orthogonalEdgeStyle;rounded=0;orthogonalLoop=1;jettySize=auto;html=1;entryX=0.25;entryY=0;entryDx=0;entryDy=0;endArrow=none;endFill=0;" parent="1" source="hSeB0Swj8MZ_jqLU8WZA-68" target="hSeB0Swj8MZ_jqLU8WZA-210" edge="1">
          <mxGeometry relative="1" as="geometry" />
        </mxCell>
        <mxCell id="hSeB0Swj8MZ_jqLU8WZA-68" value="make" style="ellipse;whiteSpace=wrap;html=1;" parent="1" vertex="1">
          <mxGeometry x="250" y="860" width="120" height="40" as="geometry" />
        </mxCell>
        <mxCell id="hSeB0Swj8MZ_jqLU8WZA-304" style="edgeStyle=orthogonalEdgeStyle;rounded=0;orthogonalLoop=1;jettySize=auto;html=1;entryX=0.496;entryY=1.022;entryDx=0;entryDy=0;entryPerimeter=0;endArrow=none;endFill=0;" parent="1" source="hSeB0Swj8MZ_jqLU8WZA-78" target="hSeB0Swj8MZ_jqLU8WZA-301" edge="1">
          <mxGeometry relative="1" as="geometry" />
        </mxCell>
        <mxCell id="hSeB0Swj8MZ_jqLU8WZA-78" value="belong to" style="ellipse;whiteSpace=wrap;html=1;" parent="1" vertex="1">
          <mxGeometry x="410" y="-20" width="120" height="40" as="geometry" />
        </mxCell>
        <mxCell id="hSeB0Swj8MZ_jqLU8WZA-360" style="rounded=0;orthogonalLoop=1;jettySize=auto;html=1;endArrow=none;endFill=0;" parent="1" source="hSeB0Swj8MZ_jqLU8WZA-84" edge="1">
          <mxGeometry relative="1" as="geometry">
            <mxPoint x="930" y="480" as="targetPoint" />
          </mxGeometry>
        </mxCell>
        <mxCell id="hSeB0Swj8MZ_jqLU8WZA-361" style="rounded=0;orthogonalLoop=1;jettySize=auto;html=1;entryX=0;entryY=0.667;entryDx=0;entryDy=0;entryPerimeter=0;endArrow=none;endFill=0;" parent="1" source="hSeB0Swj8MZ_jqLU8WZA-84" target="hSeB0Swj8MZ_jqLU8WZA-262" edge="1">
          <mxGeometry relative="1" as="geometry" />
        </mxCell>
        <mxCell id="hSeB0Swj8MZ_jqLU8WZA-84" value="bind to" style="ellipse;whiteSpace=wrap;html=1;" parent="1" vertex="1">
          <mxGeometry x="1040" y="460" width="120" height="40" as="geometry" />
        </mxCell>
        <mxCell id="hSeB0Swj8MZ_jqLU8WZA-363" style="edgeStyle=orthogonalEdgeStyle;rounded=0;orthogonalLoop=1;jettySize=auto;html=1;entryX=0.502;entryY=1.02;entryDx=0;entryDy=0;entryPerimeter=0;endArrow=none;endFill=0;" parent="1" source="hSeB0Swj8MZ_jqLU8WZA-86" target="hSeB0Swj8MZ_jqLU8WZA-269" edge="1">
          <mxGeometry relative="1" as="geometry" />
        </mxCell>
        <mxCell id="hSeB0Swj8MZ_jqLU8WZA-86" value="has" style="ellipse;whiteSpace=wrap;html=1;" parent="1" vertex="1">
          <mxGeometry x="1250" y="320" width="120" height="40" as="geometry" />
        </mxCell>
        <mxCell id="hSeB0Swj8MZ_jqLU8WZA-370" style="edgeStyle=orthogonalEdgeStyle;rounded=0;orthogonalLoop=1;jettySize=auto;html=1;entryX=1;entryY=0.5;entryDx=0;entryDy=0;endArrow=none;endFill=0;" parent="1" source="hSeB0Swj8MZ_jqLU8WZA-96" target="hSeB0Swj8MZ_jqLU8WZA-298" edge="1">
          <mxGeometry relative="1" as="geometry" />
        </mxCell>
        <mxCell id="hSeB0Swj8MZ_jqLU8WZA-372" style="edgeStyle=orthogonalEdgeStyle;rounded=0;orthogonalLoop=1;jettySize=auto;html=1;endArrow=none;endFill=0;" parent="1" source="hSeB0Swj8MZ_jqLU8WZA-96" target="hSeB0Swj8MZ_jqLU8WZA-319" edge="1">
          <mxGeometry relative="1" as="geometry" />
        </mxCell>
        <mxCell id="hSeB0Swj8MZ_jqLU8WZA-96" value="participate" style="ellipse;whiteSpace=wrap;html=1;" parent="1" vertex="1">
          <mxGeometry x="610" y="-225" width="120" height="40" as="geometry" />
        </mxCell>
        <mxCell id="hSeB0Swj8MZ_jqLU8WZA-368" style="edgeStyle=orthogonalEdgeStyle;rounded=0;orthogonalLoop=1;jettySize=auto;html=1;entryX=0.502;entryY=0.984;entryDx=0;entryDy=0;entryPerimeter=0;endArrow=none;endFill=0;" parent="1" source="hSeB0Swj8MZ_jqLU8WZA-102" target="hSeB0Swj8MZ_jqLU8WZA-308" edge="1">
          <mxGeometry relative="1" as="geometry" />
        </mxCell>
        <mxCell id="hSeB0Swj8MZ_jqLU8WZA-102" value="contain" style="ellipse;whiteSpace=wrap;html=1;" parent="1" vertex="1">
          <mxGeometry x="410" y="-420" width="120" height="40" as="geometry" />
        </mxCell>
        <mxCell id="hSeB0Swj8MZ_jqLU8WZA-221" style="edgeStyle=orthogonalEdgeStyle;rounded=0;orthogonalLoop=1;jettySize=auto;html=1;entryX=0.819;entryY=1.013;entryDx=0;entryDy=0;entryPerimeter=0;endArrow=none;endFill=0;" parent="1" source="hSeB0Swj8MZ_jqLU8WZA-110" target="hSeB0Swj8MZ_jqLU8WZA-203" edge="1">
          <mxGeometry relative="1" as="geometry" />
        </mxCell>
        <mxCell id="hSeB0Swj8MZ_jqLU8WZA-339" style="edgeStyle=orthogonalEdgeStyle;rounded=0;orthogonalLoop=1;jettySize=auto;html=1;entryX=0.5;entryY=0;entryDx=0;entryDy=0;endArrow=none;endFill=0;" parent="1" source="hSeB0Swj8MZ_jqLU8WZA-110" target="hSeB0Swj8MZ_jqLU8WZA-222" edge="1">
          <mxGeometry relative="1" as="geometry" />
        </mxCell>
        <mxCell id="hSeB0Swj8MZ_jqLU8WZA-110" value="create" style="ellipse;whiteSpace=wrap;html=1;" parent="1" vertex="1">
          <mxGeometry x="570" y="860" width="120" height="40" as="geometry" />
        </mxCell>
        <mxCell id="hSeB0Swj8MZ_jqLU8WZA-322" style="edgeStyle=orthogonalEdgeStyle;rounded=0;orthogonalLoop=1;jettySize=auto;html=1;entryX=0.5;entryY=0;entryDx=0;entryDy=0;endArrow=none;endFill=0;" parent="1" source="hSeB0Swj8MZ_jqLU8WZA-117" target="hSeB0Swj8MZ_jqLU8WZA-311" edge="1">
          <mxGeometry relative="1" as="geometry" />
        </mxCell>
        <mxCell id="hSeB0Swj8MZ_jqLU8WZA-374" style="edgeStyle=orthogonalEdgeStyle;rounded=0;orthogonalLoop=1;jettySize=auto;html=1;entryX=0.5;entryY=1;entryDx=0;entryDy=0;entryPerimeter=0;endArrow=none;endFill=0;" parent="1" source="hSeB0Swj8MZ_jqLU8WZA-117" target="hSeB0Swj8MZ_jqLU8WZA-330" edge="1">
          <mxGeometry relative="1" as="geometry" />
        </mxCell>
        <mxCell id="hSeB0Swj8MZ_jqLU8WZA-117" value="sponsor" style="ellipse;whiteSpace=wrap;html=1;" parent="1" vertex="1">
          <mxGeometry x="797" y="-580" width="120" height="40" as="geometry" />
        </mxCell>
        <mxCell id="hSeB0Swj8MZ_jqLU8WZA-249" style="edgeStyle=orthogonalEdgeStyle;rounded=0;orthogonalLoop=1;jettySize=auto;html=1;entryX=0.503;entryY=0.994;entryDx=0;entryDy=0;entryPerimeter=0;endArrow=none;endFill=0;" parent="1" source="hSeB0Swj8MZ_jqLU8WZA-123" target="hSeB0Swj8MZ_jqLU8WZA-235" edge="1">
          <mxGeometry relative="1" as="geometry" />
        </mxCell>
        <mxCell id="hSeB0Swj8MZ_jqLU8WZA-123" value="contain" style="ellipse;whiteSpace=wrap;html=1;" parent="1" vertex="1">
          <mxGeometry x="770" y="1035" width="120" height="40" as="geometry" />
        </mxCell>
        <mxCell id="hSeB0Swj8MZ_jqLU8WZA-321" style="edgeStyle=orthogonalEdgeStyle;rounded=0;orthogonalLoop=1;jettySize=auto;html=1;entryX=0.508;entryY=1;entryDx=0;entryDy=0;entryPerimeter=0;endArrow=none;endFill=0;" parent="1" source="hSeB0Swj8MZ_jqLU8WZA-129" target="hSeB0Swj8MZ_jqLU8WZA-319" edge="1">
          <mxGeometry relative="1" as="geometry" />
        </mxCell>
        <mxCell id="hSeB0Swj8MZ_jqLU8WZA-129" value="create" style="ellipse;whiteSpace=wrap;html=1;" parent="1" vertex="1">
          <mxGeometry x="610" y="180" width="120" height="40" as="geometry" />
        </mxCell>
        <mxCell id="hSeB0Swj8MZ_jqLU8WZA-376" style="edgeStyle=orthogonalEdgeStyle;rounded=0;orthogonalLoop=1;jettySize=auto;html=1;entryX=0;entryY=0.5;entryDx=0;entryDy=0;endArrow=none;endFill=0;" parent="1" source="hSeB0Swj8MZ_jqLU8WZA-137" target="hSeB0Swj8MZ_jqLU8WZA-330" edge="1">
          <mxGeometry relative="1" as="geometry" />
        </mxCell>
        <mxCell id="hSeB0Swj8MZ_jqLU8WZA-137" value="sponsor" style="ellipse;whiteSpace=wrap;html=1;" parent="1" vertex="1">
          <mxGeometry x="610" y="-504" width="120" height="40" as="geometry" />
        </mxCell>
        <mxCell id="YH67apXp9kiLefi-LZkX-1" style="edgeStyle=orthogonalEdgeStyle;rounded=0;orthogonalLoop=1;jettySize=auto;html=1;entryX=1;entryY=0.5;entryDx=0;entryDy=0;endArrow=none;endFill=0;" edge="1" parent="1" source="hSeB0Swj8MZ_jqLU8WZA-144" target="hSeB0Swj8MZ_jqLU8WZA-279">
          <mxGeometry relative="1" as="geometry" />
        </mxCell>
        <mxCell id="YH67apXp9kiLefi-LZkX-2" style="edgeStyle=orthogonalEdgeStyle;rounded=0;orthogonalLoop=1;jettySize=auto;html=1;entryX=0;entryY=0.167;entryDx=0;entryDy=0;entryPerimeter=0;endArrow=none;endFill=0;" edge="1" parent="1" source="hSeB0Swj8MZ_jqLU8WZA-144" target="hSeB0Swj8MZ_jqLU8WZA-276">
          <mxGeometry relative="1" as="geometry" />
        </mxCell>
        <mxCell id="hSeB0Swj8MZ_jqLU8WZA-144" value="has" style="ellipse;whiteSpace=wrap;html=1;" parent="1" vertex="1">
          <mxGeometry x="1040" y="75" width="120" height="40" as="geometry" />
        </mxCell>
        <mxCell id="hSeB0Swj8MZ_jqLU8WZA-347" style="edgeStyle=orthogonalEdgeStyle;rounded=0;orthogonalLoop=1;jettySize=auto;html=1;entryX=1;entryY=0.5;entryDx=0;entryDy=0;endArrow=none;endFill=0;" parent="1" source="hSeB0Swj8MZ_jqLU8WZA-151" target="hSeB0Swj8MZ_jqLU8WZA-244" edge="1">
          <mxGeometry relative="1" as="geometry" />
        </mxCell>
        <mxCell id="Gm4CPT2c8P_ikimHAB1y-4" style="edgeStyle=orthogonalEdgeStyle;rounded=0;orthogonalLoop=1;jettySize=auto;html=1;entryX=1;entryY=0.5;entryDx=0;entryDy=0;endArrow=none;endFill=0;" parent="1" source="hSeB0Swj8MZ_jqLU8WZA-151" target="hSeB0Swj8MZ_jqLU8WZA-252" edge="1">
          <mxGeometry relative="1" as="geometry" />
        </mxCell>
        <mxCell id="hSeB0Swj8MZ_jqLU8WZA-151" value="generate" style="ellipse;whiteSpace=wrap;html=1;" parent="1" vertex="1">
          <mxGeometry x="970" y="560" width="120" height="40" as="geometry" />
        </mxCell>
        <mxCell id="hSeB0Swj8MZ_jqLU8WZA-344" style="edgeStyle=orthogonalEdgeStyle;rounded=0;orthogonalLoop=1;jettySize=auto;html=1;entryX=1;entryY=0.5;entryDx=0;entryDy=0;endArrow=none;endFill=0;" parent="1" source="hSeB0Swj8MZ_jqLU8WZA-157" target="hSeB0Swj8MZ_jqLU8WZA-200" edge="1">
          <mxGeometry relative="1" as="geometry" />
        </mxCell>
        <mxCell id="Gm4CPT2c8P_ikimHAB1y-3" style="edgeStyle=orthogonalEdgeStyle;rounded=0;orthogonalLoop=1;jettySize=auto;html=1;entryX=0;entryY=0.833;entryDx=0;entryDy=0;entryPerimeter=0;endArrow=none;endFill=0;" parent="1" source="hSeB0Swj8MZ_jqLU8WZA-157" target="hSeB0Swj8MZ_jqLU8WZA-252" edge="1">
          <mxGeometry relative="1" as="geometry" />
        </mxCell>
        <mxCell id="hSeB0Swj8MZ_jqLU8WZA-157" value="concern" style="ellipse;whiteSpace=wrap;html=1;" parent="1" vertex="1">
          <mxGeometry x="610" y="635" width="120" height="40" as="geometry" />
        </mxCell>
        <mxCell id="hSeB0Swj8MZ_jqLU8WZA-174" value="countries" style="swimlane;fontStyle=0;childLayout=stackLayout;horizontal=1;startSize=30;horizontalStack=0;resizeParent=1;resizeParentMax=0;resizeLast=0;collapsible=1;marginBottom=0;whiteSpace=wrap;html=1;fillColor=#EA6B66;" parent="1" vertex="1">
          <mxGeometry x="10" y="-150" width="120" height="90" as="geometry" />
        </mxCell>
        <mxCell id="hSeB0Swj8MZ_jqLU8WZA-175" value="&lt;u&gt;country_id&lt;/u&gt;" style="text;strokeColor=none;fillColor=none;align=left;verticalAlign=middle;spacingLeft=4;spacingRight=4;overflow=hidden;points=[[0,0.5],[1,0.5]];portConstraint=eastwest;rotatable=0;whiteSpace=wrap;html=1;" parent="hSeB0Swj8MZ_jqLU8WZA-174" vertex="1">
          <mxGeometry y="30" width="120" height="30" as="geometry" />
        </mxCell>
        <mxCell id="hSeB0Swj8MZ_jqLU8WZA-176" value="name" style="text;strokeColor=none;fillColor=none;align=left;verticalAlign=middle;spacingLeft=4;spacingRight=4;overflow=hidden;points=[[0,0.5],[1,0.5]];portConstraint=eastwest;rotatable=0;whiteSpace=wrap;html=1;" parent="hSeB0Swj8MZ_jqLU8WZA-174" vertex="1">
          <mxGeometry y="60" width="120" height="30" as="geometry" />
        </mxCell>
        <mxCell id="hSeB0Swj8MZ_jqLU8WZA-178" value="cities" style="swimlane;fontStyle=0;childLayout=stackLayout;horizontal=1;startSize=30;horizontalStack=0;resizeParent=1;resizeParentMax=0;resizeLast=0;collapsible=1;marginBottom=0;whiteSpace=wrap;html=1;fillColor=#EA6B66;" parent="1" vertex="1">
          <mxGeometry x="10" y="130" width="120" height="120" as="geometry" />
        </mxCell>
        <mxCell id="hSeB0Swj8MZ_jqLU8WZA-179" value="&lt;u&gt;city_id&lt;/u&gt;" style="text;strokeColor=none;fillColor=none;align=left;verticalAlign=middle;spacingLeft=4;spacingRight=4;overflow=hidden;points=[[0,0.5],[1,0.5]];portConstraint=eastwest;rotatable=0;whiteSpace=wrap;html=1;" parent="hSeB0Swj8MZ_jqLU8WZA-178" vertex="1">
          <mxGeometry y="30" width="120" height="30" as="geometry" />
        </mxCell>
        <mxCell id="hSeB0Swj8MZ_jqLU8WZA-180" value="zip_code" style="text;strokeColor=none;fillColor=none;align=left;verticalAlign=middle;spacingLeft=4;spacingRight=4;overflow=hidden;points=[[0,0.5],[1,0.5]];portConstraint=eastwest;rotatable=0;whiteSpace=wrap;html=1;" parent="hSeB0Swj8MZ_jqLU8WZA-178" vertex="1">
          <mxGeometry y="60" width="120" height="30" as="geometry" />
        </mxCell>
        <mxCell id="hSeB0Swj8MZ_jqLU8WZA-181" value="name" style="text;strokeColor=none;fillColor=none;align=left;verticalAlign=middle;spacingLeft=4;spacingRight=4;overflow=hidden;points=[[0,0.5],[1,0.5]];portConstraint=eastwest;rotatable=0;whiteSpace=wrap;html=1;" parent="hSeB0Swj8MZ_jqLU8WZA-178" vertex="1">
          <mxGeometry y="90" width="120" height="30" as="geometry" />
        </mxCell>
        <mxCell id="hSeB0Swj8MZ_jqLU8WZA-183" value="addresses" style="swimlane;fontStyle=0;childLayout=stackLayout;horizontal=1;startSize=30;horizontalStack=0;resizeParent=1;resizeParentMax=0;resizeLast=0;collapsible=1;marginBottom=0;whiteSpace=wrap;html=1;fillColor=#EA6B66;" parent="1" vertex="1">
          <mxGeometry x="10" y="460" width="120" height="150" as="geometry" />
        </mxCell>
        <mxCell id="hSeB0Swj8MZ_jqLU8WZA-184" value="&lt;u&gt;address_id&lt;/u&gt;" style="text;strokeColor=none;fillColor=none;align=left;verticalAlign=middle;spacingLeft=4;spacingRight=4;overflow=hidden;points=[[0,0.5],[1,0.5]];portConstraint=eastwest;rotatable=0;whiteSpace=wrap;html=1;" parent="hSeB0Swj8MZ_jqLU8WZA-183" vertex="1">
          <mxGeometry y="30" width="120" height="30" as="geometry" />
        </mxCell>
        <mxCell id="hSeB0Swj8MZ_jqLU8WZA-185" value="street" style="text;strokeColor=none;fillColor=none;align=left;verticalAlign=middle;spacingLeft=4;spacingRight=4;overflow=hidden;points=[[0,0.5],[1,0.5]];portConstraint=eastwest;rotatable=0;whiteSpace=wrap;html=1;" parent="hSeB0Swj8MZ_jqLU8WZA-183" vertex="1">
          <mxGeometry y="60" width="120" height="30" as="geometry" />
        </mxCell>
        <mxCell id="hSeB0Swj8MZ_jqLU8WZA-186" value="house_number" style="text;strokeColor=none;fillColor=none;align=left;verticalAlign=middle;spacingLeft=4;spacingRight=4;overflow=hidden;points=[[0,0.5],[1,0.5]];portConstraint=eastwest;rotatable=0;whiteSpace=wrap;html=1;" parent="hSeB0Swj8MZ_jqLU8WZA-183" vertex="1">
          <mxGeometry y="90" width="120" height="30" as="geometry" />
        </mxCell>
        <mxCell id="hSeB0Swj8MZ_jqLU8WZA-188" value="additional_info" style="text;strokeColor=none;fillColor=none;align=left;verticalAlign=middle;spacingLeft=4;spacingRight=4;overflow=hidden;points=[[0,0.5],[1,0.5]];portConstraint=eastwest;rotatable=0;whiteSpace=wrap;html=1;" parent="hSeB0Swj8MZ_jqLU8WZA-183" vertex="1">
          <mxGeometry y="120" width="120" height="30" as="geometry" />
        </mxCell>
        <mxCell id="hSeB0Swj8MZ_jqLU8WZA-366" style="edgeStyle=orthogonalEdgeStyle;rounded=0;orthogonalLoop=1;jettySize=auto;html=1;entryX=0.5;entryY=1;entryDx=0;entryDy=0;endArrow=none;endFill=0;" parent="1" source="hSeB0Swj8MZ_jqLU8WZA-189" target="hSeB0Swj8MZ_jqLU8WZA-66" edge="1">
          <mxGeometry relative="1" as="geometry" />
        </mxCell>
        <mxCell id="hSeB0Swj8MZ_jqLU8WZA-369" style="edgeStyle=orthogonalEdgeStyle;rounded=0;orthogonalLoop=1;jettySize=auto;html=1;exitX=0.75;exitY=0;exitDx=0;exitDy=0;entryX=0.5;entryY=1;entryDx=0;entryDy=0;endArrow=none;endFill=0;" parent="1" source="hSeB0Swj8MZ_jqLU8WZA-189" target="hSeB0Swj8MZ_jqLU8WZA-129" edge="1">
          <mxGeometry relative="1" as="geometry">
            <Array as="points">
              <mxPoint x="500" y="420" />
              <mxPoint x="670" y="420" />
            </Array>
          </mxGeometry>
        </mxCell>
        <mxCell id="TMYRlwmfFBNIvEpIluht-11" style="edgeStyle=orthogonalEdgeStyle;rounded=0;orthogonalLoop=1;jettySize=auto;html=1;exitX=0.25;exitY=0;exitDx=0;exitDy=0;entryX=0.5;entryY=1;entryDx=0;entryDy=0;endArrow=none;endFill=0;" parent="1" source="hSeB0Swj8MZ_jqLU8WZA-189" target="TMYRlwmfFBNIvEpIluht-10" edge="1">
          <mxGeometry relative="1" as="geometry">
            <Array as="points">
              <mxPoint x="440" y="420" />
              <mxPoint x="260" y="420" />
            </Array>
          </mxGeometry>
        </mxCell>
        <mxCell id="hSeB0Swj8MZ_jqLU8WZA-189" value="users" style="swimlane;fontStyle=0;childLayout=stackLayout;horizontal=1;startSize=30;horizontalStack=0;resizeParent=1;resizeParentMax=0;resizeLast=0;collapsible=1;marginBottom=0;whiteSpace=wrap;html=1;fillColor=#EA6B66;" parent="1" vertex="1">
          <mxGeometry x="410" y="460" width="120" height="300" as="geometry" />
        </mxCell>
        <mxCell id="hSeB0Swj8MZ_jqLU8WZA-190" value="&lt;u&gt;user_id&lt;/u&gt;" style="text;strokeColor=none;fillColor=none;align=left;verticalAlign=middle;spacingLeft=4;spacingRight=4;overflow=hidden;points=[[0,0.5],[1,0.5]];portConstraint=eastwest;rotatable=0;whiteSpace=wrap;html=1;" parent="hSeB0Swj8MZ_jqLU8WZA-189" vertex="1">
          <mxGeometry y="30" width="120" height="30" as="geometry" />
        </mxCell>
        <mxCell id="hSeB0Swj8MZ_jqLU8WZA-191" value="title" style="text;strokeColor=none;fillColor=none;align=left;verticalAlign=middle;spacingLeft=4;spacingRight=4;overflow=hidden;points=[[0,0.5],[1,0.5]];portConstraint=eastwest;rotatable=0;whiteSpace=wrap;html=1;" parent="hSeB0Swj8MZ_jqLU8WZA-189" vertex="1">
          <mxGeometry y="60" width="120" height="30" as="geometry" />
        </mxCell>
        <mxCell id="hSeB0Swj8MZ_jqLU8WZA-192" value="firstname" style="text;strokeColor=none;fillColor=none;align=left;verticalAlign=middle;spacingLeft=4;spacingRight=4;overflow=hidden;points=[[0,0.5],[1,0.5]];portConstraint=eastwest;rotatable=0;whiteSpace=wrap;html=1;" parent="hSeB0Swj8MZ_jqLU8WZA-189" vertex="1">
          <mxGeometry y="90" width="120" height="30" as="geometry" />
        </mxCell>
        <mxCell id="hSeB0Swj8MZ_jqLU8WZA-193" value="lastname" style="text;strokeColor=none;fillColor=none;align=left;verticalAlign=middle;spacingLeft=4;spacingRight=4;overflow=hidden;points=[[0,0.5],[1,0.5]];portConstraint=eastwest;rotatable=0;whiteSpace=wrap;html=1;" parent="hSeB0Swj8MZ_jqLU8WZA-189" vertex="1">
          <mxGeometry y="120" width="120" height="30" as="geometry" />
        </mxCell>
        <mxCell id="hSeB0Swj8MZ_jqLU8WZA-199" value="email" style="text;strokeColor=none;fillColor=none;align=left;verticalAlign=middle;spacingLeft=4;spacingRight=4;overflow=hidden;points=[[0,0.5],[1,0.5]];portConstraint=eastwest;rotatable=0;whiteSpace=wrap;html=1;" parent="hSeB0Swj8MZ_jqLU8WZA-189" vertex="1">
          <mxGeometry y="150" width="120" height="30" as="geometry" />
        </mxCell>
        <mxCell id="hSeB0Swj8MZ_jqLU8WZA-200" value="username" style="text;strokeColor=none;fillColor=none;align=left;verticalAlign=middle;spacingLeft=4;spacingRight=4;overflow=hidden;points=[[0,0.5],[1,0.5]];portConstraint=eastwest;rotatable=0;whiteSpace=wrap;html=1;" parent="hSeB0Swj8MZ_jqLU8WZA-189" vertex="1">
          <mxGeometry y="180" width="120" height="30" as="geometry" />
        </mxCell>
        <mxCell id="hSeB0Swj8MZ_jqLU8WZA-201" value="password" style="text;strokeColor=none;fillColor=none;align=left;verticalAlign=middle;spacingLeft=4;spacingRight=4;overflow=hidden;points=[[0,0.5],[1,0.5]];portConstraint=eastwest;rotatable=0;whiteSpace=wrap;html=1;" parent="hSeB0Swj8MZ_jqLU8WZA-189" vertex="1">
          <mxGeometry y="210" width="120" height="30" as="geometry" />
        </mxCell>
        <mxCell id="hSeB0Swj8MZ_jqLU8WZA-202" value="phone" style="text;strokeColor=none;fillColor=none;align=left;verticalAlign=middle;spacingLeft=4;spacingRight=4;overflow=hidden;points=[[0,0.5],[1,0.5]];portConstraint=eastwest;rotatable=0;whiteSpace=wrap;html=1;" parent="hSeB0Swj8MZ_jqLU8WZA-189" vertex="1">
          <mxGeometry y="240" width="120" height="30" as="geometry" />
        </mxCell>
        <mxCell id="hSeB0Swj8MZ_jqLU8WZA-203" value="birthdate" style="text;strokeColor=none;fillColor=none;align=left;verticalAlign=middle;spacingLeft=4;spacingRight=4;overflow=hidden;points=[[0,0.5],[1,0.5]];portConstraint=eastwest;rotatable=0;whiteSpace=wrap;html=1;" parent="hSeB0Swj8MZ_jqLU8WZA-189" vertex="1">
          <mxGeometry y="270" width="120" height="30" as="geometry" />
        </mxCell>
        <mxCell id="hSeB0Swj8MZ_jqLU8WZA-205" value="roles" style="swimlane;fontStyle=0;childLayout=stackLayout;horizontal=1;startSize=30;horizontalStack=0;resizeParent=1;resizeParentMax=0;resizeLast=0;collapsible=1;marginBottom=0;whiteSpace=wrap;html=1;fillColor=#EA6B66;" parent="1" vertex="1">
          <mxGeometry x="10" y="700" width="120" height="90" as="geometry" />
        </mxCell>
        <mxCell id="hSeB0Swj8MZ_jqLU8WZA-206" value="&lt;u&gt;roles_id&lt;/u&gt;" style="text;strokeColor=none;fillColor=none;align=left;verticalAlign=middle;spacingLeft=4;spacingRight=4;overflow=hidden;points=[[0,0.5],[1,0.5]];portConstraint=eastwest;rotatable=0;whiteSpace=wrap;html=1;" parent="hSeB0Swj8MZ_jqLU8WZA-205" vertex="1">
          <mxGeometry y="30" width="120" height="30" as="geometry" />
        </mxCell>
        <mxCell id="hSeB0Swj8MZ_jqLU8WZA-207" value="label" style="text;strokeColor=none;fillColor=none;align=left;verticalAlign=middle;spacingLeft=4;spacingRight=4;overflow=hidden;points=[[0,0.5],[1,0.5]];portConstraint=eastwest;rotatable=0;whiteSpace=wrap;html=1;" parent="hSeB0Swj8MZ_jqLU8WZA-205" vertex="1">
          <mxGeometry y="60" width="120" height="30" as="geometry" />
        </mxCell>
        <mxCell id="hSeB0Swj8MZ_jqLU8WZA-336" style="edgeStyle=orthogonalEdgeStyle;rounded=0;orthogonalLoop=1;jettySize=auto;html=1;entryX=0.5;entryY=1;entryDx=0;entryDy=0;entryPerimeter=0;endArrow=none;endFill=0;" parent="1" source="hSeB0Swj8MZ_jqLU8WZA-208" target="hSeB0Swj8MZ_jqLU8WZA-203" edge="1">
          <mxGeometry relative="1" as="geometry" />
        </mxCell>
        <mxCell id="hSeB0Swj8MZ_jqLU8WZA-337" style="edgeStyle=orthogonalEdgeStyle;rounded=0;orthogonalLoop=1;jettySize=auto;html=1;entryX=0.75;entryY=0;entryDx=0;entryDy=0;endArrow=none;endFill=0;" parent="1" source="hSeB0Swj8MZ_jqLU8WZA-208" target="hSeB0Swj8MZ_jqLU8WZA-210" edge="1">
          <mxGeometry relative="1" as="geometry" />
        </mxCell>
        <mxCell id="hSeB0Swj8MZ_jqLU8WZA-208" value="manage" style="ellipse;whiteSpace=wrap;html=1;" parent="1" vertex="1">
          <mxGeometry x="410" y="860" width="120" height="40" as="geometry" />
        </mxCell>
        <mxCell id="hSeB0Swj8MZ_jqLU8WZA-210" value="membershipRequests" style="swimlane;fontStyle=0;childLayout=stackLayout;horizontal=1;startSize=30;horizontalStack=0;resizeParent=1;resizeParentMax=0;resizeLast=0;collapsible=1;marginBottom=0;whiteSpace=wrap;html=1;fillColor=#EA6B66;" parent="1" vertex="1">
          <mxGeometry x="310" y="980" width="160" height="180" as="geometry" />
        </mxCell>
        <mxCell id="hSeB0Swj8MZ_jqLU8WZA-211" value="&lt;u&gt;membershipRequest_id&lt;/u&gt;" style="text;strokeColor=none;fillColor=none;align=left;verticalAlign=middle;spacingLeft=4;spacingRight=4;overflow=hidden;points=[[0,0.5],[1,0.5]];portConstraint=eastwest;rotatable=0;whiteSpace=wrap;html=1;" parent="hSeB0Swj8MZ_jqLU8WZA-210" vertex="1">
          <mxGeometry y="30" width="160" height="30" as="geometry" />
        </mxCell>
        <mxCell id="hSeB0Swj8MZ_jqLU8WZA-212" value="date" style="text;strokeColor=none;fillColor=none;align=left;verticalAlign=middle;spacingLeft=4;spacingRight=4;overflow=hidden;points=[[0,0.5],[1,0.5]];portConstraint=eastwest;rotatable=0;whiteSpace=wrap;html=1;" parent="hSeB0Swj8MZ_jqLU8WZA-210" vertex="1">
          <mxGeometry y="60" width="160" height="30" as="geometry" />
        </mxCell>
        <mxCell id="hSeB0Swj8MZ_jqLU8WZA-213" value="message" style="text;strokeColor=none;fillColor=none;align=left;verticalAlign=middle;spacingLeft=4;spacingRight=4;overflow=hidden;points=[[0,0.5],[1,0.5]];portConstraint=eastwest;rotatable=0;whiteSpace=wrap;html=1;" parent="hSeB0Swj8MZ_jqLU8WZA-210" vertex="1">
          <mxGeometry y="90" width="160" height="30" as="geometry" />
        </mxCell>
        <mxCell id="TMYRlwmfFBNIvEpIluht-20" value="status" style="text;strokeColor=none;fillColor=none;align=left;verticalAlign=middle;spacingLeft=4;spacingRight=4;overflow=hidden;points=[[0,0.5],[1,0.5]];portConstraint=eastwest;rotatable=0;whiteSpace=wrap;html=1;" parent="hSeB0Swj8MZ_jqLU8WZA-210" vertex="1">
          <mxGeometry y="120" width="160" height="30" as="geometry" />
        </mxCell>
        <mxCell id="5EFPxlLPSg-2AQtRbaoz-1" value="accepted_by" style="text;strokeColor=none;fillColor=none;align=left;verticalAlign=middle;spacingLeft=4;spacingRight=4;overflow=hidden;points=[[0,0.5],[1,0.5]];portConstraint=eastwest;rotatable=0;whiteSpace=wrap;html=1;" parent="hSeB0Swj8MZ_jqLU8WZA-210" vertex="1">
          <mxGeometry y="150" width="160" height="30" as="geometry" />
        </mxCell>
        <mxCell id="hSeB0Swj8MZ_jqLU8WZA-222" value="news" style="swimlane;fontStyle=0;childLayout=stackLayout;horizontal=1;startSize=30;horizontalStack=0;resizeParent=1;resizeParentMax=0;resizeLast=0;collapsible=1;marginBottom=0;whiteSpace=wrap;html=1;fillColor=#EA6B66;" parent="1" vertex="1">
          <mxGeometry x="570" y="980" width="120" height="180" as="geometry" />
        </mxCell>
        <mxCell id="hSeB0Swj8MZ_jqLU8WZA-223" value="&lt;u&gt;new_id&lt;/u&gt;" style="text;strokeColor=none;fillColor=none;align=left;verticalAlign=middle;spacingLeft=4;spacingRight=4;overflow=hidden;points=[[0,0.5],[1,0.5]];portConstraint=eastwest;rotatable=0;whiteSpace=wrap;html=1;" parent="hSeB0Swj8MZ_jqLU8WZA-222" vertex="1">
          <mxGeometry y="30" width="120" height="30" as="geometry" />
        </mxCell>
        <mxCell id="hSeB0Swj8MZ_jqLU8WZA-224" value="title" style="text;strokeColor=none;fillColor=none;align=left;verticalAlign=middle;spacingLeft=4;spacingRight=4;overflow=hidden;points=[[0,0.5],[1,0.5]];portConstraint=eastwest;rotatable=0;whiteSpace=wrap;html=1;" parent="hSeB0Swj8MZ_jqLU8WZA-222" vertex="1">
          <mxGeometry y="60" width="120" height="30" as="geometry" />
        </mxCell>
        <mxCell id="hSeB0Swj8MZ_jqLU8WZA-225" value="content" style="text;strokeColor=none;fillColor=none;align=left;verticalAlign=middle;spacingLeft=4;spacingRight=4;overflow=hidden;points=[[0,0.5],[1,0.5]];portConstraint=eastwest;rotatable=0;whiteSpace=wrap;html=1;" parent="hSeB0Swj8MZ_jqLU8WZA-222" vertex="1">
          <mxGeometry y="90" width="120" height="30" as="geometry" />
        </mxCell>
        <mxCell id="hSeB0Swj8MZ_jqLU8WZA-226" value="image_url" style="text;strokeColor=none;fillColor=none;align=left;verticalAlign=middle;spacingLeft=4;spacingRight=4;overflow=hidden;points=[[0,0.5],[1,0.5]];portConstraint=eastwest;rotatable=0;whiteSpace=wrap;html=1;" parent="hSeB0Swj8MZ_jqLU8WZA-222" vertex="1">
          <mxGeometry y="120" width="120" height="30" as="geometry" />
        </mxCell>
        <mxCell id="hSeB0Swj8MZ_jqLU8WZA-227" value="category" style="text;strokeColor=none;fillColor=none;align=left;verticalAlign=middle;spacingLeft=4;spacingRight=4;overflow=hidden;points=[[0,0.5],[1,0.5]];portConstraint=eastwest;rotatable=0;whiteSpace=wrap;html=1;" parent="hSeB0Swj8MZ_jqLU8WZA-222" vertex="1">
          <mxGeometry y="150" width="120" height="30" as="geometry" />
        </mxCell>
        <mxCell id="hSeB0Swj8MZ_jqLU8WZA-232" value="comments" style="swimlane;fontStyle=0;childLayout=stackLayout;horizontal=1;startSize=30;horizontalStack=0;resizeParent=1;resizeParentMax=0;resizeLast=0;collapsible=1;marginBottom=0;whiteSpace=wrap;html=1;fillColor=#EA6B66;" parent="1" vertex="1">
          <mxGeometry x="770" y="820" width="120" height="120" as="geometry" />
        </mxCell>
        <mxCell id="hSeB0Swj8MZ_jqLU8WZA-233" value="&lt;u&gt;comment_id&lt;/u&gt;" style="text;strokeColor=none;fillColor=none;align=left;verticalAlign=middle;spacingLeft=4;spacingRight=4;overflow=hidden;points=[[0,0.5],[1,0.5]];portConstraint=eastwest;rotatable=0;whiteSpace=wrap;html=1;" parent="hSeB0Swj8MZ_jqLU8WZA-232" vertex="1">
          <mxGeometry y="30" width="120" height="30" as="geometry" />
        </mxCell>
        <mxCell id="hSeB0Swj8MZ_jqLU8WZA-234" value="content" style="text;strokeColor=none;fillColor=none;align=left;verticalAlign=middle;spacingLeft=4;spacingRight=4;overflow=hidden;points=[[0,0.5],[1,0.5]];portConstraint=eastwest;rotatable=0;whiteSpace=wrap;html=1;" parent="hSeB0Swj8MZ_jqLU8WZA-232" vertex="1">
          <mxGeometry y="60" width="120" height="30" as="geometry" />
        </mxCell>
        <mxCell id="hSeB0Swj8MZ_jqLU8WZA-235" value="date" style="text;strokeColor=none;fillColor=none;align=left;verticalAlign=middle;spacingLeft=4;spacingRight=4;overflow=hidden;points=[[0,0.5],[1,0.5]];portConstraint=eastwest;rotatable=0;whiteSpace=wrap;html=1;" parent="hSeB0Swj8MZ_jqLU8WZA-232" vertex="1">
          <mxGeometry y="90" width="120" height="30" as="geometry" />
        </mxCell>
        <mxCell id="hSeB0Swj8MZ_jqLU8WZA-242" style="edgeStyle=orthogonalEdgeStyle;rounded=0;orthogonalLoop=1;jettySize=auto;html=1;entryX=0.5;entryY=0;entryDx=0;entryDy=0;endArrow=none;endFill=0;" parent="1" source="hSeB0Swj8MZ_jqLU8WZA-240" target="hSeB0Swj8MZ_jqLU8WZA-232" edge="1">
          <mxGeometry relative="1" as="geometry" />
        </mxCell>
        <mxCell id="hSeB0Swj8MZ_jqLU8WZA-343" style="edgeStyle=orthogonalEdgeStyle;rounded=0;orthogonalLoop=1;jettySize=auto;html=1;entryX=1;entryY=0.5;entryDx=0;entryDy=0;endArrow=none;endFill=0;" parent="1" source="hSeB0Swj8MZ_jqLU8WZA-240" target="hSeB0Swj8MZ_jqLU8WZA-202" edge="1">
          <mxGeometry relative="1" as="geometry" />
        </mxCell>
        <mxCell id="hSeB0Swj8MZ_jqLU8WZA-240" value="publish" style="ellipse;whiteSpace=wrap;html=1;" parent="1" vertex="1">
          <mxGeometry x="610" y="740" width="120" height="40" as="geometry" />
        </mxCell>
        <mxCell id="hSeB0Swj8MZ_jqLU8WZA-243" value="orders" style="swimlane;fontStyle=0;childLayout=stackLayout;horizontal=1;startSize=30;horizontalStack=0;resizeParent=1;resizeParentMax=0;resizeLast=0;collapsible=1;marginBottom=0;whiteSpace=wrap;html=1;fillColor=#EA6B66;" parent="1" vertex="1">
          <mxGeometry x="810" y="465" width="120" height="90" as="geometry" />
        </mxCell>
        <mxCell id="hSeB0Swj8MZ_jqLU8WZA-244" value="&lt;u&gt;order_id&lt;/u&gt;" style="text;strokeColor=none;fillColor=none;align=left;verticalAlign=middle;spacingLeft=4;spacingRight=4;overflow=hidden;points=[[0,0.5],[1,0.5]];portConstraint=eastwest;rotatable=0;whiteSpace=wrap;html=1;" parent="hSeB0Swj8MZ_jqLU8WZA-243" vertex="1">
          <mxGeometry y="30" width="120" height="30" as="geometry" />
        </mxCell>
        <mxCell id="hSeB0Swj8MZ_jqLU8WZA-245" value="date" style="text;strokeColor=none;fillColor=none;align=left;verticalAlign=middle;spacingLeft=4;spacingRight=4;overflow=hidden;points=[[0,0.5],[1,0.5]];portConstraint=eastwest;rotatable=0;whiteSpace=wrap;html=1;" parent="hSeB0Swj8MZ_jqLU8WZA-243" vertex="1">
          <mxGeometry y="60" width="120" height="30" as="geometry" />
        </mxCell>
        <mxCell id="hSeB0Swj8MZ_jqLU8WZA-250" value="bills" style="swimlane;fontStyle=0;childLayout=stackLayout;horizontal=1;startSize=30;horizontalStack=0;resizeParent=1;resizeParentMax=0;resizeLast=0;collapsible=1;marginBottom=0;whiteSpace=wrap;html=1;fillColor=#EA6B66;" parent="1" vertex="1">
          <mxGeometry x="810" y="570" width="120" height="180" as="geometry" />
        </mxCell>
        <mxCell id="hSeB0Swj8MZ_jqLU8WZA-251" value="&lt;u&gt;bill_id&lt;/u&gt;" style="text;strokeColor=none;fillColor=none;align=left;verticalAlign=middle;spacingLeft=4;spacingRight=4;overflow=hidden;points=[[0,0.5],[1,0.5]];portConstraint=eastwest;rotatable=0;whiteSpace=wrap;html=1;" parent="hSeB0Swj8MZ_jqLU8WZA-250" vertex="1">
          <mxGeometry y="30" width="120" height="30" as="geometry" />
        </mxCell>
        <mxCell id="hSeB0Swj8MZ_jqLU8WZA-252" value="bill_number" style="text;strokeColor=none;fillColor=none;align=left;verticalAlign=middle;spacingLeft=4;spacingRight=4;overflow=hidden;points=[[0,0.5],[1,0.5]];portConstraint=eastwest;rotatable=0;whiteSpace=wrap;html=1;" parent="hSeB0Swj8MZ_jqLU8WZA-250" vertex="1">
          <mxGeometry y="60" width="120" height="30" as="geometry" />
        </mxCell>
        <mxCell id="hSeB0Swj8MZ_jqLU8WZA-253" value="date" style="text;strokeColor=none;fillColor=none;align=left;verticalAlign=middle;spacingLeft=4;spacingRight=4;overflow=hidden;points=[[0,0.5],[1,0.5]];portConstraint=eastwest;rotatable=0;whiteSpace=wrap;html=1;" parent="hSeB0Swj8MZ_jqLU8WZA-250" vertex="1">
          <mxGeometry y="90" width="120" height="30" as="geometry" />
        </mxCell>
        <mxCell id="dBRJ-AzstB2OD2748i4e-1" value="status" style="text;strokeColor=none;fillColor=none;align=left;verticalAlign=middle;spacingLeft=4;spacingRight=4;overflow=hidden;points=[[0,0.5],[1,0.5]];portConstraint=eastwest;rotatable=0;whiteSpace=wrap;html=1;" parent="hSeB0Swj8MZ_jqLU8WZA-250" vertex="1">
          <mxGeometry y="120" width="120" height="30" as="geometry" />
        </mxCell>
        <mxCell id="Gm4CPT2c8P_ikimHAB1y-1" value="total_amount" style="text;strokeColor=none;fillColor=none;align=left;verticalAlign=middle;spacingLeft=4;spacingRight=4;overflow=hidden;points=[[0,0.5],[1,0.5]];portConstraint=eastwest;rotatable=0;whiteSpace=wrap;html=1;" parent="hSeB0Swj8MZ_jqLU8WZA-250" vertex="1">
          <mxGeometry y="150" width="120" height="30" as="geometry" />
        </mxCell>
        <mxCell id="hSeB0Swj8MZ_jqLU8WZA-362" style="edgeStyle=orthogonalEdgeStyle;rounded=0;orthogonalLoop=1;jettySize=auto;html=1;entryX=0.5;entryY=1;entryDx=0;entryDy=0;endArrow=none;endFill=0;" parent="1" source="hSeB0Swj8MZ_jqLU8WZA-261" target="hSeB0Swj8MZ_jqLU8WZA-86" edge="1">
          <mxGeometry relative="1" as="geometry" />
        </mxCell>
        <mxCell id="hSeB0Swj8MZ_jqLU8WZA-261" value="payments" style="swimlane;fontStyle=0;childLayout=stackLayout;horizontal=1;startSize=30;horizontalStack=0;resizeParent=1;resizeParentMax=0;resizeLast=0;collapsible=1;marginBottom=0;whiteSpace=wrap;html=1;fillColor=#EA6B66;" parent="1" vertex="1">
          <mxGeometry x="1250" y="430" width="120" height="180" as="geometry" />
        </mxCell>
        <mxCell id="hSeB0Swj8MZ_jqLU8WZA-262" value="&lt;u&gt;paymentId&lt;/u&gt;" style="text;strokeColor=none;fillColor=none;align=left;verticalAlign=middle;spacingLeft=4;spacingRight=4;overflow=hidden;points=[[0,0.5],[1,0.5]];portConstraint=eastwest;rotatable=0;whiteSpace=wrap;html=1;" parent="hSeB0Swj8MZ_jqLU8WZA-261" vertex="1">
          <mxGeometry y="30" width="120" height="30" as="geometry" />
        </mxCell>
        <mxCell id="hSeB0Swj8MZ_jqLU8WZA-263" value="date" style="text;strokeColor=none;fillColor=none;align=left;verticalAlign=middle;spacingLeft=4;spacingRight=4;overflow=hidden;points=[[0,0.5],[1,0.5]];portConstraint=eastwest;rotatable=0;whiteSpace=wrap;html=1;" parent="hSeB0Swj8MZ_jqLU8WZA-261" vertex="1">
          <mxGeometry y="60" width="120" height="30" as="geometry" />
        </mxCell>
        <mxCell id="hSeB0Swj8MZ_jqLU8WZA-264" value="method" style="text;strokeColor=none;fillColor=none;align=left;verticalAlign=middle;spacingLeft=4;spacingRight=4;overflow=hidden;points=[[0,0.5],[1,0.5]];portConstraint=eastwest;rotatable=0;whiteSpace=wrap;html=1;" parent="hSeB0Swj8MZ_jqLU8WZA-261" vertex="1">
          <mxGeometry y="90" width="120" height="30" as="geometry" />
        </mxCell>
        <mxCell id="hSeB0Swj8MZ_jqLU8WZA-265" value="amount" style="text;strokeColor=none;fillColor=none;align=left;verticalAlign=middle;spacingLeft=4;spacingRight=4;overflow=hidden;points=[[0,0.5],[1,0.5]];portConstraint=eastwest;rotatable=0;whiteSpace=wrap;html=1;" parent="hSeB0Swj8MZ_jqLU8WZA-261" vertex="1">
          <mxGeometry y="120" width="120" height="30" as="geometry" />
        </mxCell>
        <mxCell id="hSeB0Swj8MZ_jqLU8WZA-266" value="details" style="text;strokeColor=none;fillColor=none;align=left;verticalAlign=middle;spacingLeft=4;spacingRight=4;overflow=hidden;points=[[0,0.5],[1,0.5]];portConstraint=eastwest;rotatable=0;whiteSpace=wrap;html=1;" parent="hSeB0Swj8MZ_jqLU8WZA-261" vertex="1">
          <mxGeometry y="150" width="120" height="30" as="geometry" />
        </mxCell>
        <mxCell id="hSeB0Swj8MZ_jqLU8WZA-267" value="paymentStatus" style="swimlane;fontStyle=0;childLayout=stackLayout;horizontal=1;startSize=30;horizontalStack=0;resizeParent=1;resizeParentMax=0;resizeLast=0;collapsible=1;marginBottom=0;whiteSpace=wrap;html=1;fillColor=#EA6B66;" parent="1" vertex="1">
          <mxGeometry x="1250" y="170" width="120" height="90" as="geometry" />
        </mxCell>
        <mxCell id="hSeB0Swj8MZ_jqLU8WZA-268" value="&lt;u&gt;status_id&lt;/u&gt;" style="text;strokeColor=none;fillColor=none;align=left;verticalAlign=middle;spacingLeft=4;spacingRight=4;overflow=hidden;points=[[0,0.5],[1,0.5]];portConstraint=eastwest;rotatable=0;whiteSpace=wrap;html=1;" parent="hSeB0Swj8MZ_jqLU8WZA-267" vertex="1">
          <mxGeometry y="30" width="120" height="30" as="geometry" />
        </mxCell>
        <mxCell id="hSeB0Swj8MZ_jqLU8WZA-269" value="label" style="text;strokeColor=none;fillColor=none;align=left;verticalAlign=middle;spacingLeft=4;spacingRight=4;overflow=hidden;points=[[0,0.5],[1,0.5]];portConstraint=eastwest;rotatable=0;whiteSpace=wrap;html=1;" parent="hSeB0Swj8MZ_jqLU8WZA-267" vertex="1">
          <mxGeometry y="60" width="120" height="30" as="geometry" />
        </mxCell>
        <mxCell id="hSeB0Swj8MZ_jqLU8WZA-270" value="vat" style="swimlane;fontStyle=0;childLayout=stackLayout;horizontal=1;startSize=30;horizontalStack=0;resizeParent=1;resizeParentMax=0;resizeLast=0;collapsible=1;marginBottom=0;whiteSpace=wrap;html=1;fillColor=#EA6B66;" parent="1" vertex="1">
          <mxGeometry x="1250" width="120" height="120" as="geometry" />
        </mxCell>
        <mxCell id="hSeB0Swj8MZ_jqLU8WZA-271" value="&lt;u&gt;vat_id&lt;/u&gt;" style="text;strokeColor=none;fillColor=none;align=left;verticalAlign=middle;spacingLeft=4;spacingRight=4;overflow=hidden;points=[[0,0.5],[1,0.5]];portConstraint=eastwest;rotatable=0;whiteSpace=wrap;html=1;" parent="hSeB0Swj8MZ_jqLU8WZA-270" vertex="1">
          <mxGeometry y="30" width="120" height="30" as="geometry" />
        </mxCell>
        <mxCell id="hSeB0Swj8MZ_jqLU8WZA-272" value="label" style="text;strokeColor=none;fillColor=none;align=left;verticalAlign=middle;spacingLeft=4;spacingRight=4;overflow=hidden;points=[[0,0.5],[1,0.5]];portConstraint=eastwest;rotatable=0;whiteSpace=wrap;html=1;" parent="hSeB0Swj8MZ_jqLU8WZA-270" vertex="1">
          <mxGeometry y="60" width="120" height="30" as="geometry" />
        </mxCell>
        <mxCell id="hSeB0Swj8MZ_jqLU8WZA-276" value="rate" style="text;strokeColor=none;fillColor=none;align=left;verticalAlign=middle;spacingLeft=4;spacingRight=4;overflow=hidden;points=[[0,0.5],[1,0.5]];portConstraint=eastwest;rotatable=0;whiteSpace=wrap;html=1;" parent="hSeB0Swj8MZ_jqLU8WZA-270" vertex="1">
          <mxGeometry y="90" width="120" height="30" as="geometry" />
        </mxCell>
        <mxCell id="hSeB0Swj8MZ_jqLU8WZA-277" value="products" style="swimlane;fontStyle=0;childLayout=stackLayout;horizontal=1;startSize=30;horizontalStack=0;resizeParent=1;resizeParentMax=0;resizeLast=0;collapsible=1;marginBottom=0;whiteSpace=wrap;html=1;fillColor=#EA6B66;" parent="1" vertex="1">
          <mxGeometry x="810" y="20" width="120" height="240" as="geometry">
            <mxRectangle x="1440" y="-340" width="90" height="30" as="alternateBounds" />
          </mxGeometry>
        </mxCell>
        <mxCell id="hSeB0Swj8MZ_jqLU8WZA-278" value="&lt;u&gt;product_id&lt;/u&gt;" style="text;strokeColor=none;fillColor=none;align=left;verticalAlign=middle;spacingLeft=4;spacingRight=4;overflow=hidden;points=[[0,0.5],[1,0.5]];portConstraint=eastwest;rotatable=0;whiteSpace=wrap;html=1;" parent="hSeB0Swj8MZ_jqLU8WZA-277" vertex="1">
          <mxGeometry y="30" width="120" height="30" as="geometry" />
        </mxCell>
        <mxCell id="hSeB0Swj8MZ_jqLU8WZA-279" value="label" style="text;strokeColor=none;fillColor=none;align=left;verticalAlign=middle;spacingLeft=4;spacingRight=4;overflow=hidden;points=[[0,0.5],[1,0.5]];portConstraint=eastwest;rotatable=0;whiteSpace=wrap;html=1;" parent="hSeB0Swj8MZ_jqLU8WZA-277" vertex="1">
          <mxGeometry y="60" width="120" height="30" as="geometry" />
        </mxCell>
        <mxCell id="hSeB0Swj8MZ_jqLU8WZA-280" value="description" style="text;strokeColor=none;fillColor=none;align=left;verticalAlign=middle;spacingLeft=4;spacingRight=4;overflow=hidden;points=[[0,0.5],[1,0.5]];portConstraint=eastwest;rotatable=0;whiteSpace=wrap;html=1;" parent="hSeB0Swj8MZ_jqLU8WZA-277" vertex="1">
          <mxGeometry y="90" width="120" height="30" as="geometry" />
        </mxCell>
        <mxCell id="hSeB0Swj8MZ_jqLU8WZA-281" value="price" style="text;strokeColor=none;fillColor=none;align=left;verticalAlign=middle;spacingLeft=4;spacingRight=4;overflow=hidden;points=[[0,0.5],[1,0.5]];portConstraint=eastwest;rotatable=0;whiteSpace=wrap;html=1;" parent="hSeB0Swj8MZ_jqLU8WZA-277" vertex="1">
          <mxGeometry y="120" width="120" height="30" as="geometry" />
        </mxCell>
        <mxCell id="hSeB0Swj8MZ_jqLU8WZA-282" value="stock" style="text;strokeColor=none;fillColor=none;align=left;verticalAlign=middle;spacingLeft=4;spacingRight=4;overflow=hidden;points=[[0,0.5],[1,0.5]];portConstraint=eastwest;rotatable=0;whiteSpace=wrap;html=1;" parent="hSeB0Swj8MZ_jqLU8WZA-277" vertex="1">
          <mxGeometry y="150" width="120" height="30" as="geometry" />
        </mxCell>
        <mxCell id="hSeB0Swj8MZ_jqLU8WZA-283" value="category" style="text;strokeColor=none;fillColor=none;align=left;verticalAlign=middle;spacingLeft=4;spacingRight=4;overflow=hidden;points=[[0,0.5],[1,0.5]];portConstraint=eastwest;rotatable=0;whiteSpace=wrap;html=1;" parent="hSeB0Swj8MZ_jqLU8WZA-277" vertex="1">
          <mxGeometry y="180" width="120" height="30" as="geometry" />
        </mxCell>
        <mxCell id="hSeB0Swj8MZ_jqLU8WZA-284" value="image_url" style="text;strokeColor=none;fillColor=none;align=left;verticalAlign=middle;spacingLeft=4;spacingRight=4;overflow=hidden;points=[[0,0.5],[1,0.5]];portConstraint=eastwest;rotatable=0;whiteSpace=wrap;html=1;" parent="hSeB0Swj8MZ_jqLU8WZA-277" vertex="1">
          <mxGeometry y="210" width="120" height="30" as="geometry" />
        </mxCell>
        <mxCell id="hSeB0Swj8MZ_jqLU8WZA-303" style="edgeStyle=orthogonalEdgeStyle;rounded=0;orthogonalLoop=1;jettySize=auto;html=1;entryX=0.5;entryY=1;entryDx=0;entryDy=0;endArrow=none;endFill=0;" parent="1" source="hSeB0Swj8MZ_jqLU8WZA-285" target="hSeB0Swj8MZ_jqLU8WZA-78" edge="1">
          <mxGeometry relative="1" as="geometry" />
        </mxCell>
        <mxCell id="hSeB0Swj8MZ_jqLU8WZA-285" value="players" style="swimlane;fontStyle=0;childLayout=stackLayout;horizontal=1;startSize=30;horizontalStack=0;resizeParent=1;resizeParentMax=0;resizeLast=0;collapsible=1;marginBottom=0;whiteSpace=wrap;html=1;fillColor=#EA6B66;" parent="1" vertex="1">
          <mxGeometry x="410" y="80" width="120" height="180" as="geometry">
            <mxRectangle x="1440" y="-340" width="90" height="30" as="alternateBounds" />
          </mxGeometry>
        </mxCell>
        <mxCell id="hSeB0Swj8MZ_jqLU8WZA-286" value="&lt;u&gt;player_id&lt;/u&gt;" style="text;strokeColor=none;fillColor=none;align=left;verticalAlign=middle;spacingLeft=4;spacingRight=4;overflow=hidden;points=[[0,0.5],[1,0.5]];portConstraint=eastwest;rotatable=0;whiteSpace=wrap;html=1;" parent="hSeB0Swj8MZ_jqLU8WZA-285" vertex="1">
          <mxGeometry y="30" width="120" height="30" as="geometry" />
        </mxCell>
        <mxCell id="hSeB0Swj8MZ_jqLU8WZA-287" value="username" style="text;strokeColor=none;fillColor=none;align=left;verticalAlign=middle;spacingLeft=4;spacingRight=4;overflow=hidden;points=[[0,0.5],[1,0.5]];portConstraint=eastwest;rotatable=0;whiteSpace=wrap;html=1;" parent="hSeB0Swj8MZ_jqLU8WZA-285" vertex="1">
          <mxGeometry y="60" width="120" height="30" as="geometry" />
        </mxCell>
        <mxCell id="hSeB0Swj8MZ_jqLU8WZA-290" value="game" style="text;strokeColor=none;fillColor=none;align=left;verticalAlign=middle;spacingLeft=4;spacingRight=4;overflow=hidden;points=[[0,0.5],[1,0.5]];portConstraint=eastwest;rotatable=0;whiteSpace=wrap;html=1;" parent="hSeB0Swj8MZ_jqLU8WZA-285" vertex="1">
          <mxGeometry y="90" width="120" height="30" as="geometry" />
        </mxCell>
        <mxCell id="hSeB0Swj8MZ_jqLU8WZA-288" value="rank" style="text;strokeColor=none;fillColor=none;align=left;verticalAlign=middle;spacingLeft=4;spacingRight=4;overflow=hidden;points=[[0,0.5],[1,0.5]];portConstraint=eastwest;rotatable=0;whiteSpace=wrap;html=1;" parent="hSeB0Swj8MZ_jqLU8WZA-285" vertex="1">
          <mxGeometry y="120" width="120" height="30" as="geometry" />
        </mxCell>
        <mxCell id="hSeB0Swj8MZ_jqLU8WZA-289" value="role" style="text;strokeColor=none;fillColor=none;align=left;verticalAlign=middle;spacingLeft=4;spacingRight=4;overflow=hidden;points=[[0,0.5],[1,0.5]];portConstraint=eastwest;rotatable=0;whiteSpace=wrap;html=1;" parent="hSeB0Swj8MZ_jqLU8WZA-285" vertex="1">
          <mxGeometry y="150" width="120" height="30" as="geometry" />
        </mxCell>
        <mxCell id="hSeB0Swj8MZ_jqLU8WZA-367" style="edgeStyle=orthogonalEdgeStyle;rounded=0;orthogonalLoop=1;jettySize=auto;html=1;entryX=0.5;entryY=1;entryDx=0;entryDy=0;endArrow=none;endFill=0;" parent="1" source="hSeB0Swj8MZ_jqLU8WZA-295" target="hSeB0Swj8MZ_jqLU8WZA-102" edge="1">
          <mxGeometry relative="1" as="geometry" />
        </mxCell>
        <mxCell id="hSeB0Swj8MZ_jqLU8WZA-375" style="edgeStyle=orthogonalEdgeStyle;rounded=0;orthogonalLoop=1;jettySize=auto;html=1;exitX=0.75;exitY=0;exitDx=0;exitDy=0;endArrow=none;endFill=0;" parent="1" source="hSeB0Swj8MZ_jqLU8WZA-295" target="hSeB0Swj8MZ_jqLU8WZA-137" edge="1">
          <mxGeometry relative="1" as="geometry">
            <Array as="points">
              <mxPoint x="500" y="-340" />
              <mxPoint x="670" y="-340" />
            </Array>
          </mxGeometry>
        </mxCell>
        <mxCell id="hSeB0Swj8MZ_jqLU8WZA-295" value="teams" style="swimlane;fontStyle=0;childLayout=stackLayout;horizontal=1;startSize=30;horizontalStack=0;resizeParent=1;resizeParentMax=0;resizeLast=0;collapsible=1;marginBottom=0;whiteSpace=wrap;html=1;fillColor=#EA6B66;" parent="1" vertex="1">
          <mxGeometry x="410" y="-310" width="120" height="210" as="geometry">
            <mxRectangle x="1440" y="-340" width="90" height="30" as="alternateBounds" />
          </mxGeometry>
        </mxCell>
        <mxCell id="hSeB0Swj8MZ_jqLU8WZA-296" value="&lt;u&gt;team_id&lt;/u&gt;" style="text;strokeColor=none;fillColor=none;align=left;verticalAlign=middle;spacingLeft=4;spacingRight=4;overflow=hidden;points=[[0,0.5],[1,0.5]];portConstraint=eastwest;rotatable=0;whiteSpace=wrap;html=1;" parent="hSeB0Swj8MZ_jqLU8WZA-295" vertex="1">
          <mxGeometry y="30" width="120" height="30" as="geometry" />
        </mxCell>
        <mxCell id="hSeB0Swj8MZ_jqLU8WZA-297" value="name" style="text;strokeColor=none;fillColor=none;align=left;verticalAlign=middle;spacingLeft=4;spacingRight=4;overflow=hidden;points=[[0,0.5],[1,0.5]];portConstraint=eastwest;rotatable=0;whiteSpace=wrap;html=1;" parent="hSeB0Swj8MZ_jqLU8WZA-295" vertex="1">
          <mxGeometry y="60" width="120" height="30" as="geometry" />
        </mxCell>
        <mxCell id="hSeB0Swj8MZ_jqLU8WZA-298" value="logo" style="text;strokeColor=none;fillColor=none;align=left;verticalAlign=middle;spacingLeft=4;spacingRight=4;overflow=hidden;points=[[0,0.5],[1,0.5]];portConstraint=eastwest;rotatable=0;whiteSpace=wrap;html=1;" parent="hSeB0Swj8MZ_jqLU8WZA-295" vertex="1">
          <mxGeometry y="90" width="120" height="30" as="geometry" />
        </mxCell>
        <mxCell id="hSeB0Swj8MZ_jqLU8WZA-299" value="description" style="text;strokeColor=none;fillColor=none;align=left;verticalAlign=middle;spacingLeft=4;spacingRight=4;overflow=hidden;points=[[0,0.5],[1,0.5]];portConstraint=eastwest;rotatable=0;whiteSpace=wrap;html=1;" parent="hSeB0Swj8MZ_jqLU8WZA-295" vertex="1">
          <mxGeometry y="120" width="120" height="30" as="geometry" />
        </mxCell>
        <mxCell id="hSeB0Swj8MZ_jqLU8WZA-300" value="game" style="text;strokeColor=none;fillColor=none;align=left;verticalAlign=middle;spacingLeft=4;spacingRight=4;overflow=hidden;points=[[0,0.5],[1,0.5]];portConstraint=eastwest;rotatable=0;whiteSpace=wrap;html=1;" parent="hSeB0Swj8MZ_jqLU8WZA-295" vertex="1">
          <mxGeometry y="150" width="120" height="30" as="geometry" />
        </mxCell>
        <mxCell id="hSeB0Swj8MZ_jqLU8WZA-301" value="captain" style="text;strokeColor=none;fillColor=none;align=left;verticalAlign=middle;spacingLeft=4;spacingRight=4;overflow=hidden;points=[[0,0.5],[1,0.5]];portConstraint=eastwest;rotatable=0;whiteSpace=wrap;html=1;" parent="hSeB0Swj8MZ_jqLU8WZA-295" vertex="1">
          <mxGeometry y="180" width="120" height="30" as="geometry" />
        </mxCell>
        <mxCell id="hSeB0Swj8MZ_jqLU8WZA-305" value="notes" style="swimlane;fontStyle=0;childLayout=stackLayout;horizontal=1;startSize=30;horizontalStack=0;resizeParent=1;resizeParentMax=0;resizeLast=0;collapsible=1;marginBottom=0;whiteSpace=wrap;html=1;fillColor=#EA6B66;" parent="1" vertex="1">
          <mxGeometry x="410" y="-620" width="120" height="120" as="geometry">
            <mxRectangle x="1440" y="-340" width="90" height="30" as="alternateBounds" />
          </mxGeometry>
        </mxCell>
        <mxCell id="hSeB0Swj8MZ_jqLU8WZA-306" value="&lt;u&gt;note_id&lt;/u&gt;" style="text;strokeColor=none;fillColor=none;align=left;verticalAlign=middle;spacingLeft=4;spacingRight=4;overflow=hidden;points=[[0,0.5],[1,0.5]];portConstraint=eastwest;rotatable=0;whiteSpace=wrap;html=1;" parent="hSeB0Swj8MZ_jqLU8WZA-305" vertex="1">
          <mxGeometry y="30" width="120" height="30" as="geometry" />
        </mxCell>
        <mxCell id="hSeB0Swj8MZ_jqLU8WZA-307" value="title" style="text;strokeColor=none;fillColor=none;align=left;verticalAlign=middle;spacingLeft=4;spacingRight=4;overflow=hidden;points=[[0,0.5],[1,0.5]];portConstraint=eastwest;rotatable=0;whiteSpace=wrap;html=1;" parent="hSeB0Swj8MZ_jqLU8WZA-305" vertex="1">
          <mxGeometry y="60" width="120" height="30" as="geometry" />
        </mxCell>
        <mxCell id="hSeB0Swj8MZ_jqLU8WZA-308" value="content" style="text;strokeColor=none;fillColor=none;align=left;verticalAlign=middle;spacingLeft=4;spacingRight=4;overflow=hidden;points=[[0,0.5],[1,0.5]];portConstraint=eastwest;rotatable=0;whiteSpace=wrap;html=1;" parent="hSeB0Swj8MZ_jqLU8WZA-305" vertex="1">
          <mxGeometry y="90" width="120" height="30" as="geometry" />
        </mxCell>
        <mxCell id="hSeB0Swj8MZ_jqLU8WZA-311" value="tournaments" style="swimlane;fontStyle=0;childLayout=stackLayout;horizontal=1;startSize=30;horizontalStack=0;resizeParent=1;resizeParentMax=0;resizeLast=0;collapsible=1;marginBottom=0;whiteSpace=wrap;html=1;fillColor=#EA6B66;" parent="1" vertex="1">
          <mxGeometry x="797" y="-460" width="120" height="270" as="geometry">
            <mxRectangle x="1440" y="-340" width="90" height="30" as="alternateBounds" />
          </mxGeometry>
        </mxCell>
        <mxCell id="hSeB0Swj8MZ_jqLU8WZA-312" value="&lt;u&gt;tournament_id&lt;/u&gt;" style="text;strokeColor=none;fillColor=none;align=left;verticalAlign=middle;spacingLeft=4;spacingRight=4;overflow=hidden;points=[[0,0.5],[1,0.5]];portConstraint=eastwest;rotatable=0;whiteSpace=wrap;html=1;" parent="hSeB0Swj8MZ_jqLU8WZA-311" vertex="1">
          <mxGeometry y="30" width="120" height="30" as="geometry" />
        </mxCell>
        <mxCell id="hSeB0Swj8MZ_jqLU8WZA-313" value="name" style="text;strokeColor=none;fillColor=none;align=left;verticalAlign=middle;spacingLeft=4;spacingRight=4;overflow=hidden;points=[[0,0.5],[1,0.5]];portConstraint=eastwest;rotatable=0;whiteSpace=wrap;html=1;" parent="hSeB0Swj8MZ_jqLU8WZA-311" vertex="1">
          <mxGeometry y="60" width="120" height="30" as="geometry" />
        </mxCell>
        <mxCell id="hSeB0Swj8MZ_jqLU8WZA-314" value="description" style="text;strokeColor=none;fillColor=none;align=left;verticalAlign=middle;spacingLeft=4;spacingRight=4;overflow=hidden;points=[[0,0.5],[1,0.5]];portConstraint=eastwest;rotatable=0;whiteSpace=wrap;html=1;" parent="hSeB0Swj8MZ_jqLU8WZA-311" vertex="1">
          <mxGeometry y="90" width="120" height="30" as="geometry" />
        </mxCell>
        <mxCell id="hSeB0Swj8MZ_jqLU8WZA-315" value="start_date" style="text;strokeColor=none;fillColor=none;align=left;verticalAlign=middle;spacingLeft=4;spacingRight=4;overflow=hidden;points=[[0,0.5],[1,0.5]];portConstraint=eastwest;rotatable=0;whiteSpace=wrap;html=1;" parent="hSeB0Swj8MZ_jqLU8WZA-311" vertex="1">
          <mxGeometry y="120" width="120" height="30" as="geometry" />
        </mxCell>
        <mxCell id="hSeB0Swj8MZ_jqLU8WZA-316" value="end_date" style="text;strokeColor=none;fillColor=none;align=left;verticalAlign=middle;spacingLeft=4;spacingRight=4;overflow=hidden;points=[[0,0.5],[1,0.5]];portConstraint=eastwest;rotatable=0;whiteSpace=wrap;html=1;" parent="hSeB0Swj8MZ_jqLU8WZA-311" vertex="1">
          <mxGeometry y="150" width="120" height="30" as="geometry" />
        </mxCell>
        <mxCell id="hSeB0Swj8MZ_jqLU8WZA-317" value="format" style="text;strokeColor=none;fillColor=none;align=left;verticalAlign=middle;spacingLeft=4;spacingRight=4;overflow=hidden;points=[[0,0.5],[1,0.5]];portConstraint=eastwest;rotatable=0;whiteSpace=wrap;html=1;" parent="hSeB0Swj8MZ_jqLU8WZA-311" vertex="1">
          <mxGeometry y="180" width="120" height="30" as="geometry" />
        </mxCell>
        <mxCell id="hSeB0Swj8MZ_jqLU8WZA-318" value="game" style="text;strokeColor=none;fillColor=none;align=left;verticalAlign=middle;spacingLeft=4;spacingRight=4;overflow=hidden;points=[[0,0.5],[1,0.5]];portConstraint=eastwest;rotatable=0;whiteSpace=wrap;html=1;" parent="hSeB0Swj8MZ_jqLU8WZA-311" vertex="1">
          <mxGeometry y="210" width="120" height="30" as="geometry" />
        </mxCell>
        <mxCell id="hSeB0Swj8MZ_jqLU8WZA-319" value="prize_pool" style="text;strokeColor=none;fillColor=none;align=left;verticalAlign=middle;spacingLeft=4;spacingRight=4;overflow=hidden;points=[[0,0.5],[1,0.5]];portConstraint=eastwest;rotatable=0;whiteSpace=wrap;html=1;" parent="hSeB0Swj8MZ_jqLU8WZA-311" vertex="1">
          <mxGeometry y="240" width="120" height="30" as="geometry" />
        </mxCell>
        <mxCell id="hSeB0Swj8MZ_jqLU8WZA-323" value="sponsors" style="swimlane;fontStyle=0;childLayout=stackLayout;horizontal=1;startSize=30;horizontalStack=0;resizeParent=1;resizeParentMax=0;resizeLast=0;collapsible=1;marginBottom=0;whiteSpace=wrap;html=1;fillColor=#EA6B66;" parent="1" vertex="1">
          <mxGeometry x="797" y="-900" width="120" height="240" as="geometry">
            <mxRectangle x="1440" y="-340" width="90" height="30" as="alternateBounds" />
          </mxGeometry>
        </mxCell>
        <mxCell id="hSeB0Swj8MZ_jqLU8WZA-324" value="&lt;u&gt;sponsor_id&lt;/u&gt;" style="text;strokeColor=none;fillColor=none;align=left;verticalAlign=middle;spacingLeft=4;spacingRight=4;overflow=hidden;points=[[0,0.5],[1,0.5]];portConstraint=eastwest;rotatable=0;whiteSpace=wrap;html=1;" parent="hSeB0Swj8MZ_jqLU8WZA-323" vertex="1">
          <mxGeometry y="30" width="120" height="30" as="geometry" />
        </mxCell>
        <mxCell id="hSeB0Swj8MZ_jqLU8WZA-325" value="name" style="text;strokeColor=none;fillColor=none;align=left;verticalAlign=middle;spacingLeft=4;spacingRight=4;overflow=hidden;points=[[0,0.5],[1,0.5]];portConstraint=eastwest;rotatable=0;whiteSpace=wrap;html=1;" parent="hSeB0Swj8MZ_jqLU8WZA-323" vertex="1">
          <mxGeometry y="60" width="120" height="30" as="geometry" />
        </mxCell>
        <mxCell id="hSeB0Swj8MZ_jqLU8WZA-326" value="logo" style="text;strokeColor=none;fillColor=none;align=left;verticalAlign=middle;spacingLeft=4;spacingRight=4;overflow=hidden;points=[[0,0.5],[1,0.5]];portConstraint=eastwest;rotatable=0;whiteSpace=wrap;html=1;" parent="hSeB0Swj8MZ_jqLU8WZA-323" vertex="1">
          <mxGeometry y="90" width="120" height="30" as="geometry" />
        </mxCell>
        <mxCell id="hSeB0Swj8MZ_jqLU8WZA-327" value="description" style="text;strokeColor=none;fillColor=none;align=left;verticalAlign=middle;spacingLeft=4;spacingRight=4;overflow=hidden;points=[[0,0.5],[1,0.5]];portConstraint=eastwest;rotatable=0;whiteSpace=wrap;html=1;" parent="hSeB0Swj8MZ_jqLU8WZA-323" vertex="1">
          <mxGeometry y="120" width="120" height="30" as="geometry" />
        </mxCell>
        <mxCell id="hSeB0Swj8MZ_jqLU8WZA-328" value="website" style="text;strokeColor=none;fillColor=none;align=left;verticalAlign=middle;spacingLeft=4;spacingRight=4;overflow=hidden;points=[[0,0.5],[1,0.5]];portConstraint=eastwest;rotatable=0;whiteSpace=wrap;html=1;" parent="hSeB0Swj8MZ_jqLU8WZA-323" vertex="1">
          <mxGeometry y="150" width="120" height="30" as="geometry" />
        </mxCell>
        <mxCell id="hSeB0Swj8MZ_jqLU8WZA-329" value="email" style="text;strokeColor=none;fillColor=none;align=left;verticalAlign=middle;spacingLeft=4;spacingRight=4;overflow=hidden;points=[[0,0.5],[1,0.5]];portConstraint=eastwest;rotatable=0;whiteSpace=wrap;html=1;" parent="hSeB0Swj8MZ_jqLU8WZA-323" vertex="1">
          <mxGeometry y="180" width="120" height="30" as="geometry" />
        </mxCell>
        <mxCell id="hSeB0Swj8MZ_jqLU8WZA-330" value="phone" style="text;strokeColor=none;fillColor=none;align=left;verticalAlign=middle;spacingLeft=4;spacingRight=4;overflow=hidden;points=[[0,0.5],[1,0.5]];portConstraint=eastwest;rotatable=0;whiteSpace=wrap;html=1;" parent="hSeB0Swj8MZ_jqLU8WZA-323" vertex="1">
          <mxGeometry y="210" width="120" height="30" as="geometry" />
        </mxCell>
        <mxCell id="hSeB0Swj8MZ_jqLU8WZA-333" style="edgeStyle=orthogonalEdgeStyle;rounded=0;orthogonalLoop=1;jettySize=auto;html=1;entryX=0.5;entryY=1;entryDx=0;entryDy=0;endArrow=none;endFill=0;" parent="1" source="hSeB0Swj8MZ_jqLU8WZA-206" target="hSeB0Swj8MZ_jqLU8WZA-34" edge="1">
          <mxGeometry relative="1" as="geometry" />
        </mxCell>
        <mxCell id="hSeB0Swj8MZ_jqLU8WZA-334" style="edgeStyle=orthogonalEdgeStyle;rounded=0;orthogonalLoop=1;jettySize=auto;html=1;exitX=1;exitY=0.5;exitDx=0;exitDy=0;endArrow=none;endFill=0;" parent="1" source="hSeB0Swj8MZ_jqLU8WZA-184" target="hSeB0Swj8MZ_jqLU8WZA-21" edge="1">
          <mxGeometry relative="1" as="geometry" />
        </mxCell>
        <mxCell id="hSeB0Swj8MZ_jqLU8WZA-342" style="edgeStyle=orthogonalEdgeStyle;rounded=0;orthogonalLoop=1;jettySize=auto;html=1;entryX=0;entryY=0.5;entryDx=0;entryDy=0;endArrow=none;endFill=0;" parent="1" source="hSeB0Swj8MZ_jqLU8WZA-224" target="hSeB0Swj8MZ_jqLU8WZA-123" edge="1">
          <mxGeometry relative="1" as="geometry" />
        </mxCell>
        <mxCell id="jsBJ44jOZMa6ZIpI-l8M-1" value="0,n" style="text;html=1;strokeColor=none;fillColor=none;align=center;verticalAlign=middle;whiteSpace=wrap;rounded=0;" parent="1" vertex="1">
          <mxGeometry x="60" y="-60" width="60" height="30" as="geometry" />
        </mxCell>
        <mxCell id="jsBJ44jOZMa6ZIpI-l8M-2" value="1,1" style="text;html=1;strokeColor=none;fillColor=none;align=center;verticalAlign=middle;whiteSpace=wrap;rounded=0;" parent="1" vertex="1">
          <mxGeometry x="60" y="100" width="60" height="30" as="geometry" />
        </mxCell>
        <mxCell id="jsBJ44jOZMa6ZIpI-l8M-3" value="0,n" style="text;html=1;strokeColor=none;fillColor=none;align=center;verticalAlign=middle;whiteSpace=wrap;rounded=0;" parent="1" vertex="1">
          <mxGeometry x="60" y="250" width="60" height="30" as="geometry" />
        </mxCell>
        <mxCell id="jsBJ44jOZMa6ZIpI-l8M-4" value="1,1" style="text;html=1;strokeColor=none;fillColor=none;align=center;verticalAlign=middle;whiteSpace=wrap;rounded=0;" parent="1" vertex="1">
          <mxGeometry x="60" y="430" width="60" height="30" as="geometry" />
        </mxCell>
        <mxCell id="jsBJ44jOZMa6ZIpI-l8M-6" value="0,n" style="text;html=1;strokeColor=none;fillColor=none;align=center;verticalAlign=middle;whiteSpace=wrap;rounded=0;" parent="1" vertex="1">
          <mxGeometry x="120" y="480" width="60" height="30" as="geometry" />
        </mxCell>
        <mxCell id="jsBJ44jOZMa6ZIpI-l8M-7" value="0,1" style="text;html=1;strokeColor=none;fillColor=none;align=center;verticalAlign=middle;whiteSpace=wrap;rounded=0;" parent="1" vertex="1">
          <mxGeometry x="360" y="480" width="60" height="30" as="geometry" />
        </mxCell>
        <mxCell id="jsBJ44jOZMa6ZIpI-l8M-8" value="0,n" style="text;html=1;strokeColor=none;fillColor=none;align=center;verticalAlign=middle;whiteSpace=wrap;rounded=0;" parent="1" vertex="1">
          <mxGeometry x="120" y="720" width="60" height="30" as="geometry" />
        </mxCell>
        <mxCell id="jsBJ44jOZMa6ZIpI-l8M-9" value="1,1" style="text;html=1;strokeColor=none;fillColor=none;align=center;verticalAlign=middle;whiteSpace=wrap;rounded=0;" parent="1" vertex="1">
          <mxGeometry x="360" y="595" width="60" height="30" as="geometry" />
        </mxCell>
        <mxCell id="jsBJ44jOZMa6ZIpI-l8M-10" value="0,n" style="text;html=1;strokeColor=none;fillColor=none;align=center;verticalAlign=middle;whiteSpace=wrap;rounded=0;" parent="1" vertex="1">
          <mxGeometry x="383" y="760" width="60" height="30" as="geometry" />
        </mxCell>
        <mxCell id="jsBJ44jOZMa6ZIpI-l8M-11" value="1,1" style="text;html=1;strokeColor=none;fillColor=none;align=center;verticalAlign=middle;whiteSpace=wrap;rounded=0;" parent="1" vertex="1">
          <mxGeometry x="300" y="950" width="60" height="30" as="geometry" />
        </mxCell>
        <mxCell id="jsBJ44jOZMa6ZIpI-l8M-12" value="0,n" style="text;html=1;strokeColor=none;fillColor=none;align=center;verticalAlign=middle;whiteSpace=wrap;rounded=0;" parent="1" vertex="1">
          <mxGeometry x="430" y="760" width="60" height="30" as="geometry" />
        </mxCell>
        <mxCell id="jsBJ44jOZMa6ZIpI-l8M-14" value="1,1" style="text;html=1;strokeColor=none;fillColor=none;align=center;verticalAlign=middle;whiteSpace=wrap;rounded=0;" parent="1" vertex="1">
          <mxGeometry x="420" y="950" width="60" height="30" as="geometry" />
        </mxCell>
        <mxCell id="jsBJ44jOZMa6ZIpI-l8M-15" value="0,n" style="text;html=1;strokeColor=none;fillColor=none;align=center;verticalAlign=middle;whiteSpace=wrap;rounded=0;" parent="1" vertex="1">
          <mxGeometry x="500" y="760" width="60" height="30" as="geometry" />
        </mxCell>
        <mxCell id="jsBJ44jOZMa6ZIpI-l8M-16" value="1,1" style="text;html=1;strokeColor=none;fillColor=none;align=center;verticalAlign=middle;whiteSpace=wrap;rounded=0;" parent="1" vertex="1">
          <mxGeometry x="620" y="950" width="60" height="30" as="geometry" />
        </mxCell>
        <mxCell id="jsBJ44jOZMa6ZIpI-l8M-17" value="0,n" style="text;html=1;strokeColor=none;fillColor=none;align=center;verticalAlign=middle;whiteSpace=wrap;rounded=0;" parent="1" vertex="1">
          <mxGeometry x="680" y="1025" width="60" height="30" as="geometry" />
        </mxCell>
        <mxCell id="jsBJ44jOZMa6ZIpI-l8M-18" value="1,1" style="text;html=1;strokeColor=none;fillColor=none;align=center;verticalAlign=middle;whiteSpace=wrap;rounded=0;" parent="1" vertex="1">
          <mxGeometry x="820" y="940" width="60" height="30" as="geometry" />
        </mxCell>
        <mxCell id="jsBJ44jOZMa6ZIpI-l8M-19" value="0,n" style="text;html=1;strokeColor=none;fillColor=none;align=center;verticalAlign=middle;whiteSpace=wrap;rounded=0;" parent="1" vertex="1">
          <mxGeometry x="520" y="710" width="60" height="30" as="geometry" />
        </mxCell>
        <mxCell id="jsBJ44jOZMa6ZIpI-l8M-20" value="1,1" style="text;html=1;strokeColor=none;fillColor=none;align=center;verticalAlign=middle;whiteSpace=wrap;rounded=0;" parent="1" vertex="1">
          <mxGeometry x="780" y="790" width="60" height="30" as="geometry" />
        </mxCell>
        <mxCell id="jsBJ44jOZMa6ZIpI-l8M-21" value="0,n" style="text;html=1;strokeColor=none;fillColor=none;align=center;verticalAlign=middle;whiteSpace=wrap;rounded=0;" parent="1" vertex="1">
          <mxGeometry x="520" y="655" width="60" height="30" as="geometry" />
        </mxCell>
        <mxCell id="jsBJ44jOZMa6ZIpI-l8M-22" value="1,1" style="text;html=1;strokeColor=none;fillColor=none;align=center;verticalAlign=middle;whiteSpace=wrap;rounded=0;" parent="1" vertex="1">
          <mxGeometry x="760" y="655" width="60" height="30" as="geometry" />
        </mxCell>
        <mxCell id="jsBJ44jOZMa6ZIpI-l8M-23" value="1,1" style="text;html=1;strokeColor=none;fillColor=none;align=center;verticalAlign=middle;whiteSpace=wrap;rounded=0;" parent="1" vertex="1">
          <mxGeometry x="920" y="645" width="60" height="30" as="geometry" />
        </mxCell>
        <mxCell id="jsBJ44jOZMa6ZIpI-l8M-24" value="1,1" style="text;html=1;strokeColor=none;fillColor=none;align=center;verticalAlign=middle;whiteSpace=wrap;rounded=0;" parent="1" vertex="1">
          <mxGeometry x="917" y="510" width="60" height="30" as="geometry" />
        </mxCell>
        <mxCell id="jsBJ44jOZMa6ZIpI-l8M-25" value="0,n" style="text;html=1;strokeColor=none;fillColor=none;align=center;verticalAlign=middle;whiteSpace=wrap;rounded=0;" parent="1" vertex="1">
          <mxGeometry x="520" y="510" width="60" height="30" as="geometry" />
        </mxCell>
        <mxCell id="jsBJ44jOZMa6ZIpI-l8M-26" value="1,1" style="text;html=1;strokeColor=none;fillColor=none;align=center;verticalAlign=middle;whiteSpace=wrap;rounded=0;" parent="1" vertex="1">
          <mxGeometry x="760" y="510" width="60" height="30" as="geometry" />
        </mxCell>
        <mxCell id="jsBJ44jOZMa6ZIpI-l8M-27" value="1,1" style="text;html=1;strokeColor=none;fillColor=none;align=center;verticalAlign=middle;whiteSpace=wrap;rounded=0;" parent="1" vertex="1">
          <mxGeometry x="920" y="450" width="60" height="30" as="geometry" />
        </mxCell>
        <mxCell id="jsBJ44jOZMa6ZIpI-l8M-29" value="1,1" style="text;html=1;strokeColor=none;fillColor=none;align=center;verticalAlign=middle;whiteSpace=wrap;rounded=0;" parent="1" vertex="1">
          <mxGeometry x="1200" y="450" width="60" height="30" as="geometry" />
        </mxCell>
        <mxCell id="jsBJ44jOZMa6ZIpI-l8M-30" value="1,n" style="text;html=1;strokeColor=none;fillColor=none;align=center;verticalAlign=middle;whiteSpace=wrap;rounded=0;" parent="1" vertex="1">
          <mxGeometry x="1300" y="260" width="60" height="30" as="geometry" />
        </mxCell>
        <mxCell id="jsBJ44jOZMa6ZIpI-l8M-31" value="0,n" style="text;html=1;strokeColor=none;fillColor=none;align=center;verticalAlign=middle;whiteSpace=wrap;rounded=0;" parent="1" vertex="1">
          <mxGeometry x="1300" y="400" width="60" height="30" as="geometry" />
        </mxCell>
        <mxCell id="jsBJ44jOZMa6ZIpI-l8M-32" value="1,1" style="text;html=1;strokeColor=none;fillColor=none;align=center;verticalAlign=middle;whiteSpace=wrap;rounded=0;" parent="1" vertex="1">
          <mxGeometry x="917" y="90" width="60" height="30" as="geometry" />
        </mxCell>
        <mxCell id="jsBJ44jOZMa6ZIpI-l8M-33" value="0,n" style="text;html=1;strokeColor=none;fillColor=none;align=center;verticalAlign=middle;whiteSpace=wrap;rounded=0;" parent="1" vertex="1">
          <mxGeometry x="1200" y="90" width="60" height="30" as="geometry" />
        </mxCell>
        <mxCell id="jsBJ44jOZMa6ZIpI-l8M-34" value="1,n" style="text;html=1;strokeColor=none;fillColor=none;align=center;verticalAlign=middle;whiteSpace=wrap;rounded=0;" parent="1" vertex="1">
          <mxGeometry x="820" y="435" width="60" height="30" as="geometry" />
        </mxCell>
        <mxCell id="jsBJ44jOZMa6ZIpI-l8M-35" value="0,n" style="text;html=1;strokeColor=none;fillColor=none;align=center;verticalAlign=middle;whiteSpace=wrap;rounded=0;" parent="1" vertex="1">
          <mxGeometry x="820" y="260" width="60" height="30" as="geometry" />
        </mxCell>
        <mxCell id="jsBJ44jOZMa6ZIpI-l8M-41" value="0,1" style="text;html=1;strokeColor=none;fillColor=none;align=center;verticalAlign=middle;whiteSpace=wrap;rounded=0;" parent="1" vertex="1">
          <mxGeometry x="430" y="435" width="60" height="30" as="geometry" />
        </mxCell>
        <mxCell id="jsBJ44jOZMa6ZIpI-l8M-42" value="1,1" style="text;html=1;strokeColor=none;fillColor=none;align=center;verticalAlign=middle;whiteSpace=wrap;rounded=0;" parent="1" vertex="1">
          <mxGeometry x="430" y="260" width="60" height="30" as="geometry" />
        </mxCell>
        <mxCell id="jsBJ44jOZMa6ZIpI-l8M-43" value="0,n" style="text;html=1;strokeColor=none;fillColor=none;align=center;verticalAlign=middle;whiteSpace=wrap;rounded=0;" parent="1" vertex="1">
          <mxGeometry x="490" y="435" width="60" height="30" as="geometry" />
        </mxCell>
        <mxCell id="jsBJ44jOZMa6ZIpI-l8M-44" value="1,1" style="text;html=1;strokeColor=none;fillColor=none;align=center;verticalAlign=middle;whiteSpace=wrap;rounded=0;" parent="1" vertex="1">
          <mxGeometry x="840" y="-190" width="60" height="30" as="geometry" />
        </mxCell>
        <mxCell id="jsBJ44jOZMa6ZIpI-l8M-45" value="1,1" style="text;html=1;strokeColor=none;fillColor=none;align=center;verticalAlign=middle;whiteSpace=wrap;rounded=0;" parent="1" vertex="1">
          <mxGeometry x="420" y="50" width="60" height="30" as="geometry" />
        </mxCell>
        <mxCell id="jsBJ44jOZMa6ZIpI-l8M-46" value="0,n" style="text;html=1;strokeColor=none;fillColor=none;align=center;verticalAlign=middle;whiteSpace=wrap;rounded=0;" parent="1" vertex="1">
          <mxGeometry x="420" y="-100" width="60" height="30" as="geometry" />
        </mxCell>
        <mxCell id="jsBJ44jOZMa6ZIpI-l8M-47" value="0,n" style="text;html=1;strokeColor=none;fillColor=none;align=center;verticalAlign=middle;whiteSpace=wrap;rounded=0;" parent="1" vertex="1">
          <mxGeometry x="420" y="-340" width="60" height="30" as="geometry" />
        </mxCell>
        <mxCell id="jsBJ44jOZMa6ZIpI-l8M-48" value="1,1" style="text;html=1;strokeColor=none;fillColor=none;align=center;verticalAlign=middle;whiteSpace=wrap;rounded=0;" parent="1" vertex="1">
          <mxGeometry x="420" y="-500" width="60" height="30" as="geometry" />
        </mxCell>
        <mxCell id="jsBJ44jOZMa6ZIpI-l8M-49" value="0,n" style="text;html=1;strokeColor=none;fillColor=none;align=center;verticalAlign=middle;whiteSpace=wrap;rounded=0;" parent="1" vertex="1">
          <mxGeometry x="490" y="-340" width="60" height="30" as="geometry" />
        </mxCell>
        <mxCell id="jsBJ44jOZMa6ZIpI-l8M-50" value="0,n" style="text;html=1;strokeColor=none;fillColor=none;align=center;verticalAlign=middle;whiteSpace=wrap;rounded=0;" parent="1" vertex="1">
          <mxGeometry x="750" y="-710" width="60" height="30" as="geometry" />
        </mxCell>
        <mxCell id="jsBJ44jOZMa6ZIpI-l8M-52" value="0,n" style="text;html=1;strokeColor=none;fillColor=none;align=center;verticalAlign=middle;whiteSpace=wrap;rounded=0;" parent="1" vertex="1">
          <mxGeometry x="520" y="-200" width="60" height="30" as="geometry" />
        </mxCell>
        <mxCell id="jsBJ44jOZMa6ZIpI-l8M-53" value="0,n" style="text;html=1;strokeColor=none;fillColor=none;align=center;verticalAlign=middle;whiteSpace=wrap;rounded=0;" parent="1" vertex="1">
          <mxGeometry x="740" y="-200" width="60" height="30" as="geometry" />
        </mxCell>
        <mxCell id="jsBJ44jOZMa6ZIpI-l8M-54" value="0,n" style="text;html=1;strokeColor=none;fillColor=none;align=center;verticalAlign=middle;whiteSpace=wrap;rounded=0;" parent="1" vertex="1">
          <mxGeometry x="840" y="-660" width="60" height="30" as="geometry" />
        </mxCell>
        <mxCell id="jsBJ44jOZMa6ZIpI-l8M-55" value="0,n" style="text;html=1;strokeColor=none;fillColor=none;align=center;verticalAlign=middle;whiteSpace=wrap;rounded=0;" parent="1" vertex="1">
          <mxGeometry x="840" y="-490" width="60" height="30" as="geometry" />
        </mxCell>
        <mxCell id="TMYRlwmfFBNIvEpIluht-8" style="edgeStyle=orthogonalEdgeStyle;rounded=0;orthogonalLoop=1;jettySize=auto;html=1;entryX=0.5;entryY=1;entryDx=0;entryDy=0;endArrow=none;endFill=0;" parent="1" source="TMYRlwmfFBNIvEpIluht-1" target="TMYRlwmfFBNIvEpIluht-5" edge="1">
          <mxGeometry relative="1" as="geometry" />
        </mxCell>
        <mxCell id="TMYRlwmfFBNIvEpIluht-1" value="trainings" style="swimlane;fontStyle=0;childLayout=stackLayout;horizontal=1;startSize=30;horizontalStack=0;resizeParent=1;resizeParentMax=0;resizeLast=0;collapsible=1;marginBottom=0;whiteSpace=wrap;html=1;fillColor=#EA6B66;" parent="1" vertex="1">
          <mxGeometry x="200" width="120" height="150" as="geometry">
            <mxRectangle x="1440" y="-340" width="90" height="30" as="alternateBounds" />
          </mxGeometry>
        </mxCell>
        <mxCell id="TMYRlwmfFBNIvEpIluht-2" value="&lt;u&gt;training_id&lt;/u&gt;" style="text;strokeColor=none;fillColor=none;align=left;verticalAlign=middle;spacingLeft=4;spacingRight=4;overflow=hidden;points=[[0,0.5],[1,0.5]];portConstraint=eastwest;rotatable=0;whiteSpace=wrap;html=1;" parent="TMYRlwmfFBNIvEpIluht-1" vertex="1">
          <mxGeometry y="30" width="120" height="30" as="geometry" />
        </mxCell>
        <mxCell id="TMYRlwmfFBNIvEpIluht-3" value="description" style="text;strokeColor=none;fillColor=none;align=left;verticalAlign=middle;spacingLeft=4;spacingRight=4;overflow=hidden;points=[[0,0.5],[1,0.5]];portConstraint=eastwest;rotatable=0;whiteSpace=wrap;html=1;" parent="TMYRlwmfFBNIvEpIluht-1" vertex="1">
          <mxGeometry y="60" width="120" height="30" as="geometry" />
        </mxCell>
        <mxCell id="TMYRlwmfFBNIvEpIluht-4" value="date" style="text;strokeColor=none;fillColor=none;align=left;verticalAlign=middle;spacingLeft=4;spacingRight=4;overflow=hidden;points=[[0,0.5],[1,0.5]];portConstraint=eastwest;rotatable=0;whiteSpace=wrap;html=1;" parent="TMYRlwmfFBNIvEpIluht-1" vertex="1">
          <mxGeometry y="90" width="120" height="30" as="geometry" />
        </mxCell>
        <mxCell id="TMYRlwmfFBNIvEpIluht-7" value="duration" style="text;strokeColor=none;fillColor=none;align=left;verticalAlign=middle;spacingLeft=4;spacingRight=4;overflow=hidden;points=[[0,0.5],[1,0.5]];portConstraint=eastwest;rotatable=0;whiteSpace=wrap;html=1;" parent="TMYRlwmfFBNIvEpIluht-1" vertex="1">
          <mxGeometry y="120" width="120" height="30" as="geometry" />
        </mxCell>
        <mxCell id="TMYRlwmfFBNIvEpIluht-9" style="edgeStyle=orthogonalEdgeStyle;rounded=0;orthogonalLoop=1;jettySize=auto;html=1;endArrow=none;endFill=0;" parent="1" source="TMYRlwmfFBNIvEpIluht-5" edge="1">
          <mxGeometry relative="1" as="geometry">
            <mxPoint x="410" y="-180" as="targetPoint" />
            <Array as="points">
              <mxPoint x="260" y="-180" />
              <mxPoint x="410" y="-180" />
            </Array>
          </mxGeometry>
        </mxCell>
        <mxCell id="TMYRlwmfFBNIvEpIluht-5" value="participate" style="ellipse;whiteSpace=wrap;html=1;" parent="1" vertex="1">
          <mxGeometry x="200" y="-125" width="120" height="40" as="geometry" />
        </mxCell>
        <mxCell id="TMYRlwmfFBNIvEpIluht-15" style="edgeStyle=orthogonalEdgeStyle;rounded=0;orthogonalLoop=1;jettySize=auto;html=1;entryX=0.5;entryY=1;entryDx=0;entryDy=0;entryPerimeter=0;endArrow=none;endFill=0;" parent="1" source="TMYRlwmfFBNIvEpIluht-10" target="TMYRlwmfFBNIvEpIluht-7" edge="1">
          <mxGeometry relative="1" as="geometry" />
        </mxCell>
        <mxCell id="TMYRlwmfFBNIvEpIluht-10" value="create" style="ellipse;whiteSpace=wrap;html=1;" parent="1" vertex="1">
          <mxGeometry x="200" y="280" width="120" height="40" as="geometry" />
        </mxCell>
        <mxCell id="TMYRlwmfFBNIvEpIluht-16" value="0,n" style="text;html=1;strokeColor=none;fillColor=none;align=center;verticalAlign=middle;whiteSpace=wrap;rounded=0;" parent="1" vertex="1">
          <mxGeometry x="360" y="-210" width="60" height="30" as="geometry" />
        </mxCell>
        <mxCell id="TMYRlwmfFBNIvEpIluht-17" value="1,1" style="text;html=1;strokeColor=none;fillColor=none;align=center;verticalAlign=middle;whiteSpace=wrap;rounded=0;" parent="1" vertex="1">
          <mxGeometry x="210" y="-30" width="60" height="30" as="geometry" />
        </mxCell>
        <mxCell id="TMYRlwmfFBNIvEpIluht-18" value="0,n" style="text;html=1;strokeColor=none;fillColor=none;align=center;verticalAlign=middle;whiteSpace=wrap;rounded=0;" parent="1" vertex="1">
          <mxGeometry x="390" y="435" width="60" height="30" as="geometry" />
        </mxCell>
        <mxCell id="TMYRlwmfFBNIvEpIluht-19" value="1,1" style="text;html=1;strokeColor=none;fillColor=none;align=center;verticalAlign=middle;whiteSpace=wrap;rounded=0;" parent="1" vertex="1">
          <mxGeometry x="210" y="150" width="60" height="30" as="geometry" />
        </mxCell>
        <mxCell id="eJmJ-lRaQnvQ0c7HvUFm-1" value="billStatus" style="swimlane;fontStyle=0;childLayout=stackLayout;horizontal=1;startSize=30;horizontalStack=0;resizeParent=1;resizeParentMax=0;resizeLast=0;collapsible=1;marginBottom=0;whiteSpace=wrap;html=1;fillColor=#EA6B66;" parent="1" vertex="1">
          <mxGeometry x="1250" y="660" width="120" height="90" as="geometry" />
        </mxCell>
        <mxCell id="eJmJ-lRaQnvQ0c7HvUFm-2" value="&lt;u&gt;status_id&lt;/u&gt;" style="text;strokeColor=none;fillColor=none;align=left;verticalAlign=middle;spacingLeft=4;spacingRight=4;overflow=hidden;points=[[0,0.5],[1,0.5]];portConstraint=eastwest;rotatable=0;whiteSpace=wrap;html=1;" parent="eJmJ-lRaQnvQ0c7HvUFm-1" vertex="1">
          <mxGeometry y="30" width="120" height="30" as="geometry" />
        </mxCell>
        <mxCell id="eJmJ-lRaQnvQ0c7HvUFm-3" value="label" style="text;strokeColor=none;fillColor=none;align=left;verticalAlign=middle;spacingLeft=4;spacingRight=4;overflow=hidden;points=[[0,0.5],[1,0.5]];portConstraint=eastwest;rotatable=0;whiteSpace=wrap;html=1;" parent="eJmJ-lRaQnvQ0c7HvUFm-1" vertex="1">
          <mxGeometry y="60" width="120" height="30" as="geometry" />
        </mxCell>
        <mxCell id="eJmJ-lRaQnvQ0c7HvUFm-6" style="edgeStyle=orthogonalEdgeStyle;rounded=0;orthogonalLoop=1;jettySize=auto;html=1;endArrow=none;endFill=0;" parent="1" source="eJmJ-lRaQnvQ0c7HvUFm-4" target="eJmJ-lRaQnvQ0c7HvUFm-2" edge="1">
          <mxGeometry relative="1" as="geometry" />
        </mxCell>
        <mxCell id="eJmJ-lRaQnvQ0c7HvUFm-4" value="has" style="ellipse;whiteSpace=wrap;html=1;" parent="1" vertex="1">
          <mxGeometry x="1040" y="685" width="120" height="40" as="geometry" />
        </mxCell>
        <mxCell id="eJmJ-lRaQnvQ0c7HvUFm-5" style="edgeStyle=orthogonalEdgeStyle;rounded=0;orthogonalLoop=1;jettySize=auto;html=1;exitX=1;exitY=0.5;exitDx=0;exitDy=0;endArrow=none;endFill=0;" parent="1" source="dBRJ-AzstB2OD2748i4e-1" target="eJmJ-lRaQnvQ0c7HvUFm-4" edge="1">
          <mxGeometry relative="1" as="geometry" />
        </mxCell>
        <mxCell id="eJmJ-lRaQnvQ0c7HvUFm-7" value="1,n" style="text;html=1;strokeColor=none;fillColor=none;align=center;verticalAlign=middle;whiteSpace=wrap;rounded=0;" parent="1" vertex="1">
          <mxGeometry x="917" y="700" width="60" height="30" as="geometry" />
        </mxCell>
        <mxCell id="eJmJ-lRaQnvQ0c7HvUFm-8" value="1,n" style="text;html=1;strokeColor=none;fillColor=none;align=center;verticalAlign=middle;whiteSpace=wrap;rounded=0;" parent="1" vertex="1">
          <mxGeometry x="1200" y="700" width="60" height="30" as="geometry" />
        </mxCell>
      </root>
    </mxGraphModel>
  </diagram>
  <diagram id="1rQsayt0rXZ5uMOWZxJV" name="MLDR">
    <mxGraphModel dx="2261" dy="1957" grid="1" gridSize="10" guides="1" tooltips="1" connect="1" arrows="1" fold="1" page="1" pageScale="1" pageWidth="827" pageHeight="1169" math="0" shadow="0">
      <root>
        <mxCell id="0" />
        <mxCell id="1" parent="0" />
        <mxCell id="47W2VfMCO5lHyZ0cU63s-1" value="&lt;div style=&quot;&quot;&gt;&lt;ul&gt;&lt;li&gt;&lt;span style=&quot;background-color: initial;&quot;&gt;countries(&lt;/span&gt;&lt;u style=&quot;background-color: initial;&quot;&gt;country_id&lt;/u&gt;&lt;span style=&quot;background-color: initial;&quot;&gt;, name)&lt;/span&gt;&lt;/li&gt;&lt;li&gt;&lt;span style=&quot;background-color: initial;&quot;&gt;cities(&lt;/span&gt;&lt;u style=&quot;background-color: initial;&quot;&gt;city_id&lt;/u&gt;&lt;span style=&quot;background-color: initial;&quot;&gt;, name, zip_code, #country_id)&lt;/span&gt;&lt;/li&gt;&lt;li&gt;&lt;span style=&quot;background-color: initial;&quot;&gt;addresses(&lt;/span&gt;&lt;u style=&quot;background-color: initial;&quot;&gt;address_id&lt;/u&gt;&lt;span style=&quot;background-color: initial;&quot;&gt;, street, house_number, additional_info, #city_id)&lt;/span&gt;&lt;/li&gt;&lt;li&gt;&lt;span style=&quot;background-color: initial;&quot;&gt;users(&lt;/span&gt;&lt;u style=&quot;background-color: initial;&quot;&gt;user_id&lt;/u&gt;&lt;span style=&quot;background-color: initial;&quot;&gt;, title, lastname, firstname, email, username, password, phone, birthdate, #address_id, #role_id)&lt;/span&gt;&lt;/li&gt;&lt;li&gt;&lt;span style=&quot;background-color: initial;&quot;&gt;roles(&lt;u&gt;role_id&lt;/u&gt;, label)&lt;/span&gt;&lt;/li&gt;&lt;li&gt;&lt;span style=&quot;background-color: initial;&quot;&gt;membershipsRequests(&lt;u&gt;membershipRequest_id&lt;/u&gt;, date, message, status, accepted_by, #user_id)&lt;/span&gt;&lt;/li&gt;&lt;li&gt;&lt;span style=&quot;background-color: initial;&quot;&gt;news(&lt;u&gt;new_id&lt;/u&gt;, title, content, image_url, category, #user_id)&lt;/span&gt;&lt;/li&gt;&lt;li&gt;&lt;span style=&quot;background-color: initial;&quot;&gt;comments(&lt;u&gt;comment_id&lt;/u&gt;, content, date, #new_id, #user_id)&lt;/span&gt;&lt;/li&gt;&lt;li&gt;&lt;span style=&quot;background-color: initial;&quot;&gt;players(&lt;u&gt;player_id&lt;/u&gt;, username, game, rank, role, #user_id, #team_id)&lt;/span&gt;&lt;/li&gt;&lt;li&gt;&lt;span style=&quot;background-color: initial;&quot;&gt;teams(&lt;u&gt;team_id&lt;/u&gt;, name, logo, description, game, captain)&lt;/span&gt;&lt;/li&gt;&lt;li&gt;&lt;span style=&quot;background-color: initial;&quot;&gt;notes(&lt;u&gt;note_id&lt;/u&gt;, title, content, #team_id)&lt;/span&gt;&lt;/li&gt;&lt;li&gt;&lt;span style=&quot;background-color: initial;&quot;&gt;trainings(&lt;u&gt;training_id&lt;/u&gt;, description, date, duration, #team_id, #user_id)&lt;/span&gt;&lt;/li&gt;&lt;li&gt;&lt;span style=&quot;background-color: initial;&quot;&gt;tournaments(&lt;u&gt;tournament_id&lt;/u&gt;, name, description, start_date, end_date, format, game, prize_pool, #user_id)&lt;/span&gt;&lt;/li&gt;&lt;li&gt;&lt;span style=&quot;background-color: initial;&quot;&gt;teams_tournaments(&lt;u&gt;#team_id&lt;/u&gt;, &lt;u&gt;#tournament_id&lt;/u&gt;, rank)&lt;/span&gt;&lt;/li&gt;&lt;li&gt;&lt;span style=&quot;background-color: initial;&quot;&gt;sponsors(&lt;u&gt;sponsor_id,&lt;/u&gt; name, logo, description, website, email, phone)&lt;/span&gt;&lt;/li&gt;&lt;li&gt;&lt;span style=&quot;background-color: initial;&quot;&gt;sponsors_tournaments(&lt;u&gt;#sponsor_id&lt;/u&gt;, &lt;u&gt;#tournament_id&lt;/u&gt;, money)&lt;/span&gt;&lt;/li&gt;&lt;li&gt;&lt;span style=&quot;background-color: initial;&quot;&gt;sponsors_teams(&lt;u&gt;#sponsor_id&lt;/u&gt;, &lt;u&gt;#team_id&lt;/u&gt;, money)&lt;/span&gt;&lt;/li&gt;&lt;li&gt;&lt;span style=&quot;background-color: initial;&quot;&gt;orders(&lt;u&gt;order_id&lt;/u&gt;, date, #user_id)&lt;/span&gt;&lt;/li&gt;&lt;li&gt;&lt;span style=&quot;background-color: initial;&quot;&gt;products(&lt;u&gt;product_id&lt;/u&gt;, label, description, price, stock, category, image_url, #vat_id)&lt;/span&gt;&lt;/li&gt;&lt;li&gt;&lt;span style=&quot;background-color: initial;&quot;&gt;products_orders(&lt;u&gt;#product_id&lt;/u&gt;, &lt;u&gt;#order_id&lt;/u&gt;, quantity, price)&lt;/span&gt;&lt;/li&gt;&lt;li&gt;&lt;span style=&quot;background-color: initial;&quot;&gt;bills(&lt;u&gt;bill_id&lt;/u&gt;, bill_number, date, total_amount, #order_id)&lt;/span&gt;&lt;/li&gt;&lt;li&gt;&lt;span style=&quot;background-color: initial;&quot;&gt;billStatus(&lt;u&gt;status_id&lt;/u&gt;, label)&lt;/span&gt;&lt;/li&gt;&lt;li&gt;&lt;span style=&quot;background-color: initial;&quot;&gt;bills_billStatus(&lt;u&gt;#bill_id&lt;/u&gt;, &lt;u&gt;#status_id&lt;/u&gt;)&lt;/span&gt;&lt;/li&gt;&lt;li&gt;&lt;span style=&quot;background-color: initial;&quot;&gt;vat(&lt;u&gt;vat_id&lt;/u&gt;, label, rate)&lt;/span&gt;&lt;/li&gt;&lt;li&gt;&lt;span style=&quot;background-color: initial;&quot;&gt;payments(&lt;u&gt;payment_id&lt;/u&gt;, date, method, amount, details, #order_id)&lt;/span&gt;&lt;/li&gt;&lt;li&gt;&lt;span style=&quot;background-color: initial;&quot;&gt;paymentStatus(&lt;u&gt;status_id&lt;/u&gt;, label)&lt;/span&gt;&lt;/li&gt;&lt;li&gt;&lt;span style=&quot;background-color: initial;&quot;&gt;payments_paymentStatus(#payment_id, #status_id)&lt;/span&gt;&lt;/li&gt;&lt;/ul&gt;&lt;/div&gt;" style="text;html=1;align=left;verticalAlign=middle;resizable=0;points=[];autosize=1;strokeColor=none;fillColor=none;" parent="1" vertex="1">
          <mxGeometry x="-800" y="-10" width="650" height="430" as="geometry" />
        </mxCell>
      </root>
    </mxGraphModel>
  </diagram>
  <diagram id="uYC_O1s6u7dQPHZLBx-i" name="MPD">
    <mxGraphModel dx="1195" dy="2995" grid="1" gridSize="10" guides="1" tooltips="1" connect="1" arrows="1" fold="1" page="1" pageScale="1" pageWidth="827" pageHeight="1169" math="0" shadow="0">
      <root>
        <mxCell id="0" />
        <mxCell id="1" parent="0" />
        <mxCell id="kkj6Qfz0_XXo1pXmymVZ-1" value="countries" style="swimlane;fontStyle=0;childLayout=stackLayout;horizontal=1;startSize=30;horizontalStack=0;resizeParent=1;resizeParentMax=0;resizeLast=0;collapsible=1;marginBottom=0;whiteSpace=wrap;html=1;fillColor=#EA6B66;" parent="1" vertex="1">
          <mxGeometry x="40" y="-1120" width="160" height="90" as="geometry" />
        </mxCell>
        <mxCell id="kkj6Qfz0_XXo1pXmymVZ-2" value="&lt;u&gt;country_id&lt;/u&gt;&lt;span style=&quot;text-decoration-line: underline; white-space: pre;&quot;&gt;&lt;span style=&quot;white-space: pre;&quot;&gt; &lt;/span&gt;&lt;/span&gt;int(11)" style="text;strokeColor=none;fillColor=none;align=left;verticalAlign=middle;spacingLeft=4;spacingRight=4;overflow=hidden;points=[[0,0.5],[1,0.5]];portConstraint=eastwest;rotatable=0;whiteSpace=wrap;html=1;" parent="kkj6Qfz0_XXo1pXmymVZ-1" vertex="1">
          <mxGeometry y="30" width="160" height="30" as="geometry" />
        </mxCell>
        <mxCell id="kkj6Qfz0_XXo1pXmymVZ-3" value="name&lt;span style=&quot;white-space: pre;&quot;&gt; &lt;span style=&quot;white-space: pre;&quot;&gt; &lt;span style=&quot;white-space: pre;&quot;&gt; &lt;/span&gt;&lt;/span&gt;v&lt;/span&gt;archar(255)" style="text;strokeColor=none;fillColor=none;align=left;verticalAlign=middle;spacingLeft=4;spacingRight=4;overflow=hidden;points=[[0,0.5],[1,0.5]];portConstraint=eastwest;rotatable=0;whiteSpace=wrap;html=1;" parent="kkj6Qfz0_XXo1pXmymVZ-1" vertex="1">
          <mxGeometry y="60" width="160" height="30" as="geometry" />
        </mxCell>
        <mxCell id="cJhCTfqlT5KSj-Qpl9To-1" value="cities" style="swimlane;fontStyle=0;childLayout=stackLayout;horizontal=1;startSize=30;horizontalStack=0;resizeParent=1;resizeParentMax=0;resizeLast=0;collapsible=1;marginBottom=0;whiteSpace=wrap;html=1;fillColor=#EA6B66;" parent="1" vertex="1">
          <mxGeometry x="40" y="-920" width="160" height="150" as="geometry" />
        </mxCell>
        <mxCell id="cJhCTfqlT5KSj-Qpl9To-2" value="&lt;u&gt;city_id&lt;/u&gt;&lt;span style=&quot;white-space: pre;&quot;&gt; &lt;/span&gt;&lt;span style=&quot;white-space: pre;&quot;&gt; &lt;/span&gt;int(11)" style="text;strokeColor=none;fillColor=none;align=left;verticalAlign=middle;spacingLeft=4;spacingRight=4;overflow=hidden;points=[[0,0.5],[1,0.5]];portConstraint=eastwest;rotatable=0;whiteSpace=wrap;html=1;" parent="cJhCTfqlT5KSj-Qpl9To-1" vertex="1">
          <mxGeometry y="30" width="160" height="30" as="geometry" />
        </mxCell>
        <mxCell id="cJhCTfqlT5KSj-Qpl9To-3" value="zip_code&lt;span style=&quot;white-space: pre;&quot;&gt; &lt;/span&gt;&lt;span style=&quot;white-space: pre;&quot;&gt; &lt;span style=&quot;white-space: pre;&quot;&gt; &lt;/span&gt;&lt;/span&gt;int(11)" style="text;strokeColor=none;fillColor=none;align=left;verticalAlign=middle;spacingLeft=4;spacingRight=4;overflow=hidden;points=[[0,0.5],[1,0.5]];portConstraint=eastwest;rotatable=0;whiteSpace=wrap;html=1;" parent="cJhCTfqlT5KSj-Qpl9To-1" vertex="1">
          <mxGeometry y="60" width="160" height="30" as="geometry" />
        </mxCell>
        <mxCell id="cJhCTfqlT5KSj-Qpl9To-4" value="name&lt;span style=&quot;white-space: pre;&quot;&gt; &lt;/span&gt;&lt;span style=&quot;white-space: pre;&quot;&gt; &lt;span style=&quot;white-space: pre;&quot;&gt; &lt;/span&gt;&lt;span style=&quot;white-space: pre;&quot;&gt; &lt;/span&gt;&lt;/span&gt;varchar(255)" style="text;strokeColor=none;fillColor=none;align=left;verticalAlign=middle;spacingLeft=4;spacingRight=4;overflow=hidden;points=[[0,0.5],[1,0.5]];portConstraint=eastwest;rotatable=0;whiteSpace=wrap;html=1;" parent="cJhCTfqlT5KSj-Qpl9To-1" vertex="1">
          <mxGeometry y="90" width="160" height="30" as="geometry" />
        </mxCell>
        <mxCell id="JajLN7w2K93CQHYxVFpO-1" value="country_id&lt;span style=&quot;white-space: pre;&quot;&gt; &lt;span style=&quot;white-space: pre;&quot;&gt; &lt;/span&gt;&lt;/span&gt;int(11)" style="text;strokeColor=none;fillColor=none;align=left;verticalAlign=middle;spacingLeft=4;spacingRight=4;overflow=hidden;points=[[0,0.5],[1,0.5]];portConstraint=eastwest;rotatable=0;whiteSpace=wrap;html=1;" parent="cJhCTfqlT5KSj-Qpl9To-1" vertex="1">
          <mxGeometry y="120" width="160" height="30" as="geometry" />
        </mxCell>
        <mxCell id="l-zQtOsRInhHRDme6AtO-2" value="country_id = country_id" style="text;html=1;strokeColor=none;fillColor=none;align=center;verticalAlign=middle;whiteSpace=wrap;rounded=0;" parent="1" vertex="1">
          <mxGeometry x="70" y="-1000" width="160" height="40" as="geometry" />
        </mxCell>
        <mxCell id="IqcGi17n-jg4yC533s6r-1" value="addresses" style="swimlane;fontStyle=0;childLayout=stackLayout;horizontal=1;startSize=30;horizontalStack=0;resizeParent=1;resizeParentMax=0;resizeLast=0;collapsible=1;marginBottom=0;whiteSpace=wrap;html=1;fillColor=#EA6B66;" parent="1" vertex="1">
          <mxGeometry x="40" y="-680" width="160" height="180" as="geometry" />
        </mxCell>
        <mxCell id="IqcGi17n-jg4yC533s6r-2" value="&lt;u&gt;address_id&lt;/u&gt;&lt;span style=&quot;white-space: pre;&quot;&gt;&lt;span style=&quot;white-space: pre;&quot;&gt; &lt;/span&gt;&lt;span style=&quot;white-space: pre;&quot;&gt; &lt;/span&gt;&lt;/span&gt;int(11)" style="text;strokeColor=none;fillColor=none;align=left;verticalAlign=middle;spacingLeft=4;spacingRight=4;overflow=hidden;points=[[0,0.5],[1,0.5]];portConstraint=eastwest;rotatable=0;whiteSpace=wrap;html=1;" parent="IqcGi17n-jg4yC533s6r-1" vertex="1">
          <mxGeometry y="30" width="160" height="30" as="geometry" />
        </mxCell>
        <mxCell id="IqcGi17n-jg4yC533s6r-3" value="street&lt;span style=&quot;white-space: pre;&quot;&gt; &lt;/span&gt;&lt;span style=&quot;white-space: pre;&quot;&gt; &lt;span style=&quot;white-space: pre;&quot;&gt; &lt;/span&gt;&lt;span style=&quot;white-space: pre;&quot;&gt; &lt;/span&gt;&lt;/span&gt;varchar(255)" style="text;strokeColor=none;fillColor=none;align=left;verticalAlign=middle;spacingLeft=4;spacingRight=4;overflow=hidden;points=[[0,0.5],[1,0.5]];portConstraint=eastwest;rotatable=0;whiteSpace=wrap;html=1;" parent="IqcGi17n-jg4yC533s6r-1" vertex="1">
          <mxGeometry y="60" width="160" height="30" as="geometry" />
        </mxCell>
        <mxCell id="IqcGi17n-jg4yC533s6r-4" value="house_number&lt;span style=&quot;white-space: pre;&quot;&gt; &lt;span style=&quot;white-space: pre;&quot;&gt; &lt;/span&gt;&lt;/span&gt;int(11)" style="text;strokeColor=none;fillColor=none;align=left;verticalAlign=middle;spacingLeft=4;spacingRight=4;overflow=hidden;points=[[0,0.5],[1,0.5]];portConstraint=eastwest;rotatable=0;whiteSpace=wrap;html=1;" parent="IqcGi17n-jg4yC533s6r-1" vertex="1">
          <mxGeometry y="90" width="160" height="30" as="geometry" />
        </mxCell>
        <mxCell id="IqcGi17n-jg4yC533s6r-5" value="additional_info&lt;span style=&quot;white-space: pre;&quot;&gt; &lt;/span&gt;&lt;span style=&quot;white-space: pre;&quot;&gt; &lt;span style=&quot;white-space: pre;&quot;&gt; &lt;/span&gt;&lt;/span&gt;text" style="text;strokeColor=none;fillColor=none;align=left;verticalAlign=middle;spacingLeft=4;spacingRight=4;overflow=hidden;points=[[0,0.5],[1,0.5]];portConstraint=eastwest;rotatable=0;whiteSpace=wrap;html=1;" parent="IqcGi17n-jg4yC533s6r-1" vertex="1">
          <mxGeometry y="120" width="160" height="30" as="geometry" />
        </mxCell>
        <mxCell id="IqcGi17n-jg4yC533s6r-6" value="city_id&lt;span style=&quot;white-space: pre;&quot;&gt; &lt;/span&gt;&lt;span style=&quot;white-space: pre;&quot;&gt; &lt;span style=&quot;white-space: pre;&quot;&gt;	&lt;/span&gt;&lt;/span&gt;int(11)&lt;span style=&quot;white-space: pre;&quot;&gt; &lt;/span&gt;&lt;span style=&quot;white-space: pre;&quot;&gt; &lt;/span&gt;" style="text;strokeColor=none;fillColor=none;align=left;verticalAlign=middle;spacingLeft=4;spacingRight=4;overflow=hidden;points=[[0,0.5],[1,0.5]];portConstraint=eastwest;rotatable=0;whiteSpace=wrap;html=1;" parent="IqcGi17n-jg4yC533s6r-1" vertex="1">
          <mxGeometry y="150" width="160" height="30" as="geometry" />
        </mxCell>
        <mxCell id="7f_LUX6mLZqSHXg_B-E2-3" value="city_id = city_id" style="text;html=1;strokeColor=none;fillColor=none;align=center;verticalAlign=middle;whiteSpace=wrap;rounded=0;" parent="1" vertex="1">
          <mxGeometry x="20" y="-740" width="90" height="20" as="geometry" />
        </mxCell>
        <mxCell id="YA10-PJrDd8qxraKfVrJ-1" value="users" style="swimlane;fontStyle=0;childLayout=stackLayout;horizontal=1;startSize=30;horizontalStack=0;resizeParent=1;resizeParentMax=0;resizeLast=0;collapsible=1;marginBottom=0;whiteSpace=wrap;html=1;fillColor=#EA6B66;" parent="1" vertex="1">
          <mxGeometry x="440" y="-785" width="160" height="360" as="geometry" />
        </mxCell>
        <mxCell id="YA10-PJrDd8qxraKfVrJ-2" value="&lt;u&gt;user_id&lt;/u&gt;&lt;span style=&quot;white-space: pre;&quot;&gt; &lt;/span&gt;&lt;span style=&quot;white-space: pre;&quot;&gt; &lt;/span&gt;int(11)&lt;span style=&quot;white-space: pre;&quot;&gt; &lt;/span&gt;" style="text;strokeColor=none;fillColor=none;align=left;verticalAlign=middle;spacingLeft=4;spacingRight=4;overflow=hidden;points=[[0,0.5],[1,0.5]];portConstraint=eastwest;rotatable=0;whiteSpace=wrap;html=1;" parent="YA10-PJrDd8qxraKfVrJ-1" vertex="1">
          <mxGeometry y="30" width="160" height="30" as="geometry" />
        </mxCell>
        <mxCell id="YA10-PJrDd8qxraKfVrJ-3" value="title&lt;span style=&quot;white-space: pre;&quot;&gt; &lt;/span&gt;&lt;span style=&quot;white-space: pre;&quot;&gt; &lt;span style=&quot;white-space: pre;&quot;&gt; &lt;/span&gt;&lt;/span&gt;varchar(255)" style="text;strokeColor=none;fillColor=none;align=left;verticalAlign=middle;spacingLeft=4;spacingRight=4;overflow=hidden;points=[[0,0.5],[1,0.5]];portConstraint=eastwest;rotatable=0;whiteSpace=wrap;html=1;" parent="YA10-PJrDd8qxraKfVrJ-1" vertex="1">
          <mxGeometry y="60" width="160" height="30" as="geometry" />
        </mxCell>
        <mxCell id="YA10-PJrDd8qxraKfVrJ-4" value="firstname&lt;span style=&quot;white-space: pre;&quot;&gt; &lt;span style=&quot;white-space: pre;&quot;&gt; &lt;/span&gt;&lt;/span&gt;varchar(255)" style="text;strokeColor=none;fillColor=none;align=left;verticalAlign=middle;spacingLeft=4;spacingRight=4;overflow=hidden;points=[[0,0.5],[1,0.5]];portConstraint=eastwest;rotatable=0;whiteSpace=wrap;html=1;" parent="YA10-PJrDd8qxraKfVrJ-1" vertex="1">
          <mxGeometry y="90" width="160" height="30" as="geometry" />
        </mxCell>
        <mxCell id="YA10-PJrDd8qxraKfVrJ-5" value="lastname&lt;span style=&quot;white-space: pre;&quot;&gt; &lt;/span&gt;&lt;span style=&quot;white-space: pre;&quot;&gt; &lt;/span&gt;varchar(255)" style="text;strokeColor=none;fillColor=none;align=left;verticalAlign=middle;spacingLeft=4;spacingRight=4;overflow=hidden;points=[[0,0.5],[1,0.5]];portConstraint=eastwest;rotatable=0;whiteSpace=wrap;html=1;" parent="YA10-PJrDd8qxraKfVrJ-1" vertex="1">
          <mxGeometry y="120" width="160" height="30" as="geometry" />
        </mxCell>
        <mxCell id="YA10-PJrDd8qxraKfVrJ-6" value="email&lt;span style=&quot;white-space: pre;&quot;&gt; &lt;/span&gt;&lt;span style=&quot;white-space: pre;&quot;&gt; &lt;/span&gt;varchar(255)" style="text;strokeColor=none;fillColor=none;align=left;verticalAlign=middle;spacingLeft=4;spacingRight=4;overflow=hidden;points=[[0,0.5],[1,0.5]];portConstraint=eastwest;rotatable=0;whiteSpace=wrap;html=1;" parent="YA10-PJrDd8qxraKfVrJ-1" vertex="1">
          <mxGeometry y="150" width="160" height="30" as="geometry" />
        </mxCell>
        <mxCell id="YA10-PJrDd8qxraKfVrJ-7" value="username&lt;span style=&quot;white-space: pre;&quot;&gt; &lt;/span&gt;varchar(255)" style="text;strokeColor=none;fillColor=none;align=left;verticalAlign=middle;spacingLeft=4;spacingRight=4;overflow=hidden;points=[[0,0.5],[1,0.5]];portConstraint=eastwest;rotatable=0;whiteSpace=wrap;html=1;" parent="YA10-PJrDd8qxraKfVrJ-1" vertex="1">
          <mxGeometry y="180" width="160" height="30" as="geometry" />
        </mxCell>
        <mxCell id="YA10-PJrDd8qxraKfVrJ-8" value="password&lt;span style=&quot;white-space: pre;&quot;&gt; &lt;/span&gt;&lt;span style=&quot;white-space: pre;&quot;&gt; &lt;/span&gt;varchar(255)" style="text;strokeColor=none;fillColor=none;align=left;verticalAlign=middle;spacingLeft=4;spacingRight=4;overflow=hidden;points=[[0,0.5],[1,0.5]];portConstraint=eastwest;rotatable=0;whiteSpace=wrap;html=1;" parent="YA10-PJrDd8qxraKfVrJ-1" vertex="1">
          <mxGeometry y="210" width="160" height="30" as="geometry" />
        </mxCell>
        <mxCell id="YA10-PJrDd8qxraKfVrJ-9" value="phone&lt;span style=&quot;white-space: pre;&quot;&gt; &lt;/span&gt;&lt;span style=&quot;white-space: pre;&quot;&gt; &lt;/span&gt;varchar(255)" style="text;strokeColor=none;fillColor=none;align=left;verticalAlign=middle;spacingLeft=4;spacingRight=4;overflow=hidden;points=[[0,0.5],[1,0.5]];portConstraint=eastwest;rotatable=0;whiteSpace=wrap;html=1;" parent="YA10-PJrDd8qxraKfVrJ-1" vertex="1">
          <mxGeometry y="240" width="160" height="30" as="geometry" />
        </mxCell>
        <mxCell id="YA10-PJrDd8qxraKfVrJ-10" value="birthdate&lt;span style=&quot;white-space: pre;&quot;&gt; &lt;/span&gt;&lt;span style=&quot;white-space: pre;&quot;&gt; &lt;/span&gt;date" style="text;strokeColor=none;fillColor=none;align=left;verticalAlign=middle;spacingLeft=4;spacingRight=4;overflow=hidden;points=[[0,0.5],[1,0.5]];portConstraint=eastwest;rotatable=0;whiteSpace=wrap;html=1;" parent="YA10-PJrDd8qxraKfVrJ-1" vertex="1">
          <mxGeometry y="270" width="160" height="30" as="geometry" />
        </mxCell>
        <mxCell id="YA10-PJrDd8qxraKfVrJ-11" value="address_id&lt;span style=&quot;white-space: pre;&quot;&gt; &lt;/span&gt;int(11)" style="text;strokeColor=none;fillColor=none;align=left;verticalAlign=middle;spacingLeft=4;spacingRight=4;overflow=hidden;points=[[0,0.5],[1,0.5]];portConstraint=eastwest;rotatable=0;whiteSpace=wrap;html=1;" parent="YA10-PJrDd8qxraKfVrJ-1" vertex="1">
          <mxGeometry y="300" width="160" height="30" as="geometry" />
        </mxCell>
        <mxCell id="-Y1ZSm17yrXfRPI57Ahp-1" value="role_id&lt;span style=&quot;white-space: pre;&quot;&gt;	&lt;/span&gt;int(11)" style="text;strokeColor=none;fillColor=none;align=left;verticalAlign=middle;spacingLeft=4;spacingRight=4;overflow=hidden;points=[[0,0.5],[1,0.5]];portConstraint=eastwest;rotatable=0;whiteSpace=wrap;html=1;" parent="YA10-PJrDd8qxraKfVrJ-1" vertex="1">
          <mxGeometry y="330" width="160" height="30" as="geometry" />
        </mxCell>
        <mxCell id="YA10-PJrDd8qxraKfVrJ-13" value="address_id = address_id" style="text;html=1;strokeColor=none;fillColor=none;align=center;verticalAlign=middle;whiteSpace=wrap;rounded=0;" parent="1" vertex="1">
          <mxGeometry x="200" y="-670" width="160" height="40" as="geometry" />
        </mxCell>
        <mxCell id="4K7kN8mCozR-pviCTAPx-1" value="news" style="swimlane;fontStyle=0;childLayout=stackLayout;horizontal=1;startSize=30;horizontalStack=0;resizeParent=1;resizeParentMax=0;resizeLast=0;collapsible=1;marginBottom=0;whiteSpace=wrap;html=1;fillColor=#EA6B66;" parent="1" vertex="1">
          <mxGeometry x="640" y="-320" width="160" height="210" as="geometry" />
        </mxCell>
        <mxCell id="4K7kN8mCozR-pviCTAPx-2" value="&lt;u&gt;new_id&lt;span style=&quot;white-space: pre;&quot;&gt; &lt;/span&gt;&lt;span style=&quot;white-space: pre;&quot;&gt; &lt;/span&gt;int(11)&lt;/u&gt;" style="text;strokeColor=none;fillColor=none;align=left;verticalAlign=middle;spacingLeft=4;spacingRight=4;overflow=hidden;points=[[0,0.5],[1,0.5]];portConstraint=eastwest;rotatable=0;whiteSpace=wrap;html=1;" parent="4K7kN8mCozR-pviCTAPx-1" vertex="1">
          <mxGeometry y="30" width="160" height="30" as="geometry" />
        </mxCell>
        <mxCell id="4K7kN8mCozR-pviCTAPx-3" value="title&lt;span style=&quot;white-space: pre;&quot;&gt; &lt;/span&gt;&lt;span style=&quot;white-space: pre;&quot;&gt; &lt;/span&gt;&lt;span style=&quot;white-space: pre;&quot;&gt; &lt;/span&gt;varchar(255)" style="text;strokeColor=none;fillColor=none;align=left;verticalAlign=middle;spacingLeft=4;spacingRight=4;overflow=hidden;points=[[0,0.5],[1,0.5]];portConstraint=eastwest;rotatable=0;whiteSpace=wrap;html=1;" parent="4K7kN8mCozR-pviCTAPx-1" vertex="1">
          <mxGeometry y="60" width="160" height="30" as="geometry" />
        </mxCell>
        <mxCell id="4K7kN8mCozR-pviCTAPx-4" value="content&lt;span style=&quot;white-space: pre;&quot;&gt; &lt;/span&gt;&lt;span style=&quot;white-space: pre;&quot;&gt; &lt;/span&gt;varchar(255)" style="text;strokeColor=none;fillColor=none;align=left;verticalAlign=middle;spacingLeft=4;spacingRight=4;overflow=hidden;points=[[0,0.5],[1,0.5]];portConstraint=eastwest;rotatable=0;whiteSpace=wrap;html=1;" parent="4K7kN8mCozR-pviCTAPx-1" vertex="1">
          <mxGeometry y="90" width="160" height="30" as="geometry" />
        </mxCell>
        <mxCell id="4K7kN8mCozR-pviCTAPx-5" value="image_url&lt;span style=&quot;white-space: pre;&quot;&gt; text&lt;/span&gt;" style="text;strokeColor=none;fillColor=none;align=left;verticalAlign=middle;spacingLeft=4;spacingRight=4;overflow=hidden;points=[[0,0.5],[1,0.5]];portConstraint=eastwest;rotatable=0;whiteSpace=wrap;html=1;" parent="4K7kN8mCozR-pviCTAPx-1" vertex="1">
          <mxGeometry y="120" width="160" height="30" as="geometry" />
        </mxCell>
        <mxCell id="4K7kN8mCozR-pviCTAPx-6" value="category&lt;span style=&quot;white-space: pre;&quot;&gt; &lt;/span&gt;&lt;span style=&quot;white-space: pre;&quot;&gt; &lt;/span&gt;varchar(255)" style="text;strokeColor=none;fillColor=none;align=left;verticalAlign=middle;spacingLeft=4;spacingRight=4;overflow=hidden;points=[[0,0.5],[1,0.5]];portConstraint=eastwest;rotatable=0;whiteSpace=wrap;html=1;" parent="4K7kN8mCozR-pviCTAPx-1" vertex="1">
          <mxGeometry y="150" width="160" height="30" as="geometry" />
        </mxCell>
        <mxCell id="4K7kN8mCozR-pviCTAPx-7" value="user_id&lt;span style=&quot;white-space: pre;&quot;&gt; &lt;/span&gt;&lt;span style=&quot;white-space: pre;&quot;&gt; &lt;/span&gt;int(11)" style="text;strokeColor=none;fillColor=none;align=left;verticalAlign=middle;spacingLeft=4;spacingRight=4;overflow=hidden;points=[[0,0.5],[1,0.5]];portConstraint=eastwest;rotatable=0;whiteSpace=wrap;html=1;" parent="4K7kN8mCozR-pviCTAPx-1" vertex="1">
          <mxGeometry y="180" width="160" height="30" as="geometry" />
        </mxCell>
        <mxCell id="vq5LPz_DN_8RRjrg5eqJ-1" value="membershipRequests" style="swimlane;fontStyle=0;childLayout=stackLayout;horizontal=1;startSize=30;horizontalStack=0;resizeParent=1;resizeParentMax=0;resizeLast=0;collapsible=1;marginBottom=0;whiteSpace=wrap;html=1;fillColor=#EA6B66;" parent="1" vertex="1">
          <mxGeometry x="200" y="-320" width="160" height="210" as="geometry" />
        </mxCell>
        <mxCell id="vq5LPz_DN_8RRjrg5eqJ-2" value="&lt;u&gt;membershipRequest_id&lt;/u&gt;" style="text;strokeColor=none;fillColor=none;align=left;verticalAlign=middle;spacingLeft=4;spacingRight=4;overflow=hidden;points=[[0,0.5],[1,0.5]];portConstraint=eastwest;rotatable=0;whiteSpace=wrap;html=1;" parent="vq5LPz_DN_8RRjrg5eqJ-1" vertex="1">
          <mxGeometry y="30" width="160" height="30" as="geometry" />
        </mxCell>
        <mxCell id="vq5LPz_DN_8RRjrg5eqJ-3" value="date&lt;span style=&quot;white-space: pre;&quot;&gt; &lt;/span&gt;&lt;span style=&quot;white-space: pre;&quot;&gt; &lt;/span&gt;&lt;span style=&quot;white-space: pre;&quot;&gt; &lt;/span&gt;date" style="text;strokeColor=none;fillColor=none;align=left;verticalAlign=middle;spacingLeft=4;spacingRight=4;overflow=hidden;points=[[0,0.5],[1,0.5]];portConstraint=eastwest;rotatable=0;whiteSpace=wrap;html=1;" parent="vq5LPz_DN_8RRjrg5eqJ-1" vertex="1">
          <mxGeometry y="60" width="160" height="30" as="geometry" />
        </mxCell>
        <mxCell id="vq5LPz_DN_8RRjrg5eqJ-4" value="message&lt;span style=&quot;white-space: pre;&quot;&gt; &lt;/span&gt;&lt;span style=&quot;white-space: pre;&quot;&gt; &lt;/span&gt;varchar(255)" style="text;strokeColor=none;fillColor=none;align=left;verticalAlign=middle;spacingLeft=4;spacingRight=4;overflow=hidden;points=[[0,0.5],[1,0.5]];portConstraint=eastwest;rotatable=0;whiteSpace=wrap;html=1;" parent="vq5LPz_DN_8RRjrg5eqJ-1" vertex="1">
          <mxGeometry y="90" width="160" height="30" as="geometry" />
        </mxCell>
        <mxCell id="vq5LPz_DN_8RRjrg5eqJ-5" value="status&lt;span style=&quot;white-space: pre;&quot;&gt; &lt;/span&gt;&lt;span style=&quot;white-space: pre;&quot;&gt; &lt;/span&gt;varchar(255)" style="text;strokeColor=none;fillColor=none;align=left;verticalAlign=middle;spacingLeft=4;spacingRight=4;overflow=hidden;points=[[0,0.5],[1,0.5]];portConstraint=eastwest;rotatable=0;whiteSpace=wrap;html=1;" parent="vq5LPz_DN_8RRjrg5eqJ-1" vertex="1">
          <mxGeometry y="120" width="160" height="30" as="geometry" />
        </mxCell>
        <mxCell id="vq5LPz_DN_8RRjrg5eqJ-6" value="accepted_by&lt;span style=&quot;white-space: pre;&quot;&gt; &lt;/span&gt;int(11)" style="text;strokeColor=none;fillColor=none;align=left;verticalAlign=middle;spacingLeft=4;spacingRight=4;overflow=hidden;points=[[0,0.5],[1,0.5]];portConstraint=eastwest;rotatable=0;whiteSpace=wrap;html=1;" parent="vq5LPz_DN_8RRjrg5eqJ-1" vertex="1">
          <mxGeometry y="150" width="160" height="30" as="geometry" />
        </mxCell>
        <mxCell id="p6v9q0HCcYMiNfvPgZCx-1" value="user_id&lt;span style=&quot;white-space: pre;&quot;&gt; &lt;/span&gt;&lt;span style=&quot;white-space: pre;&quot;&gt; &lt;/span&gt;int(11)" style="text;strokeColor=none;fillColor=none;align=left;verticalAlign=middle;spacingLeft=4;spacingRight=4;overflow=hidden;points=[[0,0.5],[1,0.5]];portConstraint=eastwest;rotatable=0;whiteSpace=wrap;html=1;" parent="vq5LPz_DN_8RRjrg5eqJ-1" vertex="1">
          <mxGeometry y="180" width="160" height="30" as="geometry" />
        </mxCell>
        <mxCell id="GMVeOHHxDnDIj4ByQeey-1" value="user_id = user_id" style="text;html=1;strokeColor=none;fillColor=none;align=center;verticalAlign=middle;whiteSpace=wrap;rounded=0;" parent="1" vertex="1">
          <mxGeometry x="270" y="-370" width="160" height="40" as="geometry" />
        </mxCell>
        <mxCell id="GMVeOHHxDnDIj4ByQeey-2" value="user_id = user_id" style="text;html=1;strokeColor=none;fillColor=none;align=center;verticalAlign=middle;whiteSpace=wrap;rounded=0;" parent="1" vertex="1">
          <mxGeometry x="590" y="-370" width="160" height="40" as="geometry" />
        </mxCell>
        <mxCell id="k4pUseLEdTEC8f0St3zC-1" value="roles" style="swimlane;fontStyle=0;childLayout=stackLayout;horizontal=1;startSize=30;horizontalStack=0;resizeParent=1;resizeParentMax=0;resizeLast=0;collapsible=1;marginBottom=0;whiteSpace=wrap;html=1;fillColor=#EA6B66;" parent="1" vertex="1">
          <mxGeometry x="40" y="-440" width="160" height="90" as="geometry" />
        </mxCell>
        <mxCell id="k4pUseLEdTEC8f0St3zC-2" value="&lt;u&gt;roles_id&lt;/u&gt;&lt;span style=&quot;text-decoration-line: underline; white-space: pre;&quot;&gt;	&lt;/span&gt;int(11)" style="text;strokeColor=none;fillColor=none;align=left;verticalAlign=middle;spacingLeft=4;spacingRight=4;overflow=hidden;points=[[0,0.5],[1,0.5]];portConstraint=eastwest;rotatable=0;whiteSpace=wrap;html=1;" parent="k4pUseLEdTEC8f0St3zC-1" vertex="1">
          <mxGeometry y="30" width="160" height="30" as="geometry" />
        </mxCell>
        <mxCell id="k4pUseLEdTEC8f0St3zC-3" value="label&amp;nbsp; &amp;nbsp; varchar(255)" style="text;strokeColor=none;fillColor=none;align=left;verticalAlign=middle;spacingLeft=4;spacingRight=4;overflow=hidden;points=[[0,0.5],[1,0.5]];portConstraint=eastwest;rotatable=0;whiteSpace=wrap;html=1;" parent="k4pUseLEdTEC8f0St3zC-1" vertex="1">
          <mxGeometry y="60" width="160" height="30" as="geometry" />
        </mxCell>
        <mxCell id="Zc19nf4IWHT6w696tT87-1" style="edgeStyle=orthogonalEdgeStyle;rounded=0;orthogonalLoop=1;jettySize=auto;html=1;entryX=1;entryY=0.5;entryDx=0;entryDy=0;" edge="1" parent="1" source="-Y1ZSm17yrXfRPI57Ahp-1" target="k4pUseLEdTEC8f0St3zC-2">
          <mxGeometry relative="1" as="geometry">
            <Array as="points">
              <mxPoint x="280" y="-440" />
              <mxPoint x="280" y="-395" />
            </Array>
          </mxGeometry>
        </mxCell>
        <mxCell id="Zc19nf4IWHT6w696tT87-2" style="edgeStyle=orthogonalEdgeStyle;rounded=0;orthogonalLoop=1;jettySize=auto;html=1;entryX=1;entryY=0.5;entryDx=0;entryDy=0;" edge="1" parent="1" source="YA10-PJrDd8qxraKfVrJ-11" target="IqcGi17n-jg4yC533s6r-2">
          <mxGeometry relative="1" as="geometry">
            <Array as="points">
              <mxPoint x="360" y="-470" />
              <mxPoint x="360" y="-635" />
            </Array>
          </mxGeometry>
        </mxCell>
        <mxCell id="Zc19nf4IWHT6w696tT87-4" style="edgeStyle=orthogonalEdgeStyle;rounded=0;orthogonalLoop=1;jettySize=auto;html=1;entryX=0;entryY=0.5;entryDx=0;entryDy=0;" edge="1" parent="1" source="IqcGi17n-jg4yC533s6r-6" target="cJhCTfqlT5KSj-Qpl9To-2">
          <mxGeometry relative="1" as="geometry" />
        </mxCell>
        <mxCell id="Zc19nf4IWHT6w696tT87-5" style="edgeStyle=orthogonalEdgeStyle;rounded=0;orthogonalLoop=1;jettySize=auto;html=1;entryX=1;entryY=0.5;entryDx=0;entryDy=0;" edge="1" parent="1" source="JajLN7w2K93CQHYxVFpO-1" target="kkj6Qfz0_XXo1pXmymVZ-2">
          <mxGeometry relative="1" as="geometry">
            <Array as="points">
              <mxPoint x="220" y="-785" />
              <mxPoint x="220" y="-1075" />
            </Array>
          </mxGeometry>
        </mxCell>
        <mxCell id="n8sSigGzK8TOqCgJO4l5-1" style="edgeStyle=orthogonalEdgeStyle;rounded=0;orthogonalLoop=1;jettySize=auto;html=1;" edge="1" parent="1" source="p6v9q0HCcYMiNfvPgZCx-1" target="YA10-PJrDd8qxraKfVrJ-2">
          <mxGeometry relative="1" as="geometry" />
        </mxCell>
        <mxCell id="n8sSigGzK8TOqCgJO4l5-2" style="edgeStyle=orthogonalEdgeStyle;rounded=0;orthogonalLoop=1;jettySize=auto;html=1;" edge="1" parent="1" source="4K7kN8mCozR-pviCTAPx-7" target="YA10-PJrDd8qxraKfVrJ-2">
          <mxGeometry relative="1" as="geometry" />
        </mxCell>
        <mxCell id="8I1n6nTxjWm3a4oeOVhg-1" value="comments" style="swimlane;fontStyle=0;childLayout=stackLayout;horizontal=1;startSize=30;horizontalStack=0;resizeParent=1;resizeParentMax=0;resizeLast=0;collapsible=1;marginBottom=0;whiteSpace=wrap;html=1;fillColor=#EA6B66;" vertex="1" parent="1">
          <mxGeometry x="920" y="-440" width="160" height="180" as="geometry" />
        </mxCell>
        <mxCell id="8I1n6nTxjWm3a4oeOVhg-2" value="&lt;u&gt;comment_id&lt;/u&gt;&amp;nbsp; int(11)" style="text;strokeColor=none;fillColor=none;align=left;verticalAlign=middle;spacingLeft=4;spacingRight=4;overflow=hidden;points=[[0,0.5],[1,0.5]];portConstraint=eastwest;rotatable=0;whiteSpace=wrap;html=1;" vertex="1" parent="8I1n6nTxjWm3a4oeOVhg-1">
          <mxGeometry y="30" width="160" height="30" as="geometry" />
        </mxCell>
        <mxCell id="8I1n6nTxjWm3a4oeOVhg-3" value="content&amp;nbsp; text" style="text;strokeColor=none;fillColor=none;align=left;verticalAlign=middle;spacingLeft=4;spacingRight=4;overflow=hidden;points=[[0,0.5],[1,0.5]];portConstraint=eastwest;rotatable=0;whiteSpace=wrap;html=1;" vertex="1" parent="8I1n6nTxjWm3a4oeOVhg-1">
          <mxGeometry y="60" width="160" height="30" as="geometry" />
        </mxCell>
        <mxCell id="8I1n6nTxjWm3a4oeOVhg-4" value="date&lt;span style=&quot;white-space: pre;&quot;&gt;	&lt;/span&gt;&amp;nbsp; &amp;nbsp; &amp;nbsp; date" style="text;strokeColor=none;fillColor=none;align=left;verticalAlign=middle;spacingLeft=4;spacingRight=4;overflow=hidden;points=[[0,0.5],[1,0.5]];portConstraint=eastwest;rotatable=0;whiteSpace=wrap;html=1;" vertex="1" parent="8I1n6nTxjWm3a4oeOVhg-1">
          <mxGeometry y="90" width="160" height="30" as="geometry" />
        </mxCell>
        <mxCell id="8I1n6nTxjWm3a4oeOVhg-5" value="user_id&amp;nbsp; &amp;nbsp;int(11)" style="text;strokeColor=none;fillColor=none;align=left;verticalAlign=middle;spacingLeft=4;spacingRight=4;overflow=hidden;points=[[0,0.5],[1,0.5]];portConstraint=eastwest;rotatable=0;whiteSpace=wrap;html=1;" vertex="1" parent="8I1n6nTxjWm3a4oeOVhg-1">
          <mxGeometry y="120" width="160" height="30" as="geometry" />
        </mxCell>
        <mxCell id="8I1n6nTxjWm3a4oeOVhg-6" value="new_id&amp;nbsp; &amp;nbsp;int(11)" style="text;strokeColor=none;fillColor=none;align=left;verticalAlign=middle;spacingLeft=4;spacingRight=4;overflow=hidden;points=[[0,0.5],[1,0.5]];portConstraint=eastwest;rotatable=0;whiteSpace=wrap;html=1;" vertex="1" parent="8I1n6nTxjWm3a4oeOVhg-1">
          <mxGeometry y="150" width="160" height="30" as="geometry" />
        </mxCell>
        <mxCell id="clp2lzlVBd-mBxPgY2N9-1" style="edgeStyle=orthogonalEdgeStyle;rounded=0;orthogonalLoop=1;jettySize=auto;html=1;entryX=1;entryY=0.5;entryDx=0;entryDy=0;" edge="1" parent="1" source="8I1n6nTxjWm3a4oeOVhg-6" target="4K7kN8mCozR-pviCTAPx-2">
          <mxGeometry relative="1" as="geometry" />
        </mxCell>
        <mxCell id="clp2lzlVBd-mBxPgY2N9-2" style="edgeStyle=orthogonalEdgeStyle;rounded=0;orthogonalLoop=1;jettySize=auto;html=1;" edge="1" parent="1" source="8I1n6nTxjWm3a4oeOVhg-5" target="YA10-PJrDd8qxraKfVrJ-2">
          <mxGeometry relative="1" as="geometry">
            <Array as="points">
              <mxPoint x="880" y="-305" />
              <mxPoint x="880" y="-400" />
              <mxPoint x="680" y="-400" />
              <mxPoint x="680" y="-740" />
            </Array>
          </mxGeometry>
        </mxCell>
        <mxCell id="clp2lzlVBd-mBxPgY2N9-3" value="new_id = new_id" style="text;html=1;strokeColor=none;fillColor=none;align=center;verticalAlign=middle;whiteSpace=wrap;rounded=0;" vertex="1" parent="1">
          <mxGeometry x="780" y="-280" width="160" height="40" as="geometry" />
        </mxCell>
        <mxCell id="clp2lzlVBd-mBxPgY2N9-4" value="user_id = user_id" style="text;html=1;strokeColor=none;fillColor=none;align=center;verticalAlign=middle;whiteSpace=wrap;rounded=0;" vertex="1" parent="1">
          <mxGeometry x="660" y="-430" width="160" height="40" as="geometry" />
        </mxCell>
        <mxCell id="5KvRaIEQx9M1tVU7ukUx-1" value="players" style="swimlane;fontStyle=0;childLayout=stackLayout;horizontal=1;startSize=30;horizontalStack=0;resizeParent=1;resizeParentMax=0;resizeLast=0;collapsible=1;marginBottom=0;whiteSpace=wrap;html=1;fillColor=#EA6B66;" vertex="1" parent="1">
          <mxGeometry x="440" y="-1120" width="160" height="210" as="geometry">
            <mxRectangle x="1440" y="-340" width="90" height="30" as="alternateBounds" />
          </mxGeometry>
        </mxCell>
        <mxCell id="5KvRaIEQx9M1tVU7ukUx-2" value="&lt;u&gt;player_id&lt;/u&gt;&amp;nbsp; &amp;nbsp;int(11)" style="text;strokeColor=none;fillColor=none;align=left;verticalAlign=middle;spacingLeft=4;spacingRight=4;overflow=hidden;points=[[0,0.5],[1,0.5]];portConstraint=eastwest;rotatable=0;whiteSpace=wrap;html=1;" vertex="1" parent="5KvRaIEQx9M1tVU7ukUx-1">
          <mxGeometry y="30" width="160" height="30" as="geometry" />
        </mxCell>
        <mxCell id="5KvRaIEQx9M1tVU7ukUx-4" value="game&amp;nbsp; &amp;nbsp;varchar(255)" style="text;strokeColor=none;fillColor=none;align=left;verticalAlign=middle;spacingLeft=4;spacingRight=4;overflow=hidden;points=[[0,0.5],[1,0.5]];portConstraint=eastwest;rotatable=0;whiteSpace=wrap;html=1;" vertex="1" parent="5KvRaIEQx9M1tVU7ukUx-1">
          <mxGeometry y="60" width="160" height="30" as="geometry" />
        </mxCell>
        <mxCell id="5KvRaIEQx9M1tVU7ukUx-5" value="rank&amp;nbsp; &amp;nbsp;varchar(255)" style="text;strokeColor=none;fillColor=none;align=left;verticalAlign=middle;spacingLeft=4;spacingRight=4;overflow=hidden;points=[[0,0.5],[1,0.5]];portConstraint=eastwest;rotatable=0;whiteSpace=wrap;html=1;" vertex="1" parent="5KvRaIEQx9M1tVU7ukUx-1">
          <mxGeometry y="90" width="160" height="30" as="geometry" />
        </mxCell>
        <mxCell id="5KvRaIEQx9M1tVU7ukUx-6" value="role&amp;nbsp; &amp;nbsp;varchar(255)" style="text;strokeColor=none;fillColor=none;align=left;verticalAlign=middle;spacingLeft=4;spacingRight=4;overflow=hidden;points=[[0,0.5],[1,0.5]];portConstraint=eastwest;rotatable=0;whiteSpace=wrap;html=1;" vertex="1" parent="5KvRaIEQx9M1tVU7ukUx-1">
          <mxGeometry y="120" width="160" height="30" as="geometry" />
        </mxCell>
        <mxCell id="4WxYh9Hdmc2c66M_aQ2_-1" value="user_id&amp;nbsp; &amp;nbsp;int(11)" style="text;strokeColor=none;fillColor=none;align=left;verticalAlign=middle;spacingLeft=4;spacingRight=4;overflow=hidden;points=[[0,0.5],[1,0.5]];portConstraint=eastwest;rotatable=0;whiteSpace=wrap;html=1;" vertex="1" parent="5KvRaIEQx9M1tVU7ukUx-1">
          <mxGeometry y="150" width="160" height="30" as="geometry" />
        </mxCell>
        <mxCell id="4WxYh9Hdmc2c66M_aQ2_-2" value="team_id&amp;nbsp; &amp;nbsp;int(11)" style="text;strokeColor=none;fillColor=none;align=left;verticalAlign=middle;spacingLeft=4;spacingRight=4;overflow=hidden;points=[[0,0.5],[1,0.5]];portConstraint=eastwest;rotatable=0;whiteSpace=wrap;html=1;" vertex="1" parent="5KvRaIEQx9M1tVU7ukUx-1">
          <mxGeometry y="180" width="160" height="30" as="geometry" />
        </mxCell>
        <mxCell id="4WxYh9Hdmc2c66M_aQ2_-3" style="edgeStyle=orthogonalEdgeStyle;rounded=0;orthogonalLoop=1;jettySize=auto;html=1;entryX=1;entryY=0.5;entryDx=0;entryDy=0;" edge="1" parent="1" source="4WxYh9Hdmc2c66M_aQ2_-1" target="YA10-PJrDd8qxraKfVrJ-2">
          <mxGeometry relative="1" as="geometry">
            <Array as="points">
              <mxPoint x="640" y="-955" />
              <mxPoint x="640" y="-740" />
            </Array>
          </mxGeometry>
        </mxCell>
        <mxCell id="4WxYh9Hdmc2c66M_aQ2_-4" value="user_id = user_id" style="text;html=1;strokeColor=none;fillColor=none;align=center;verticalAlign=middle;whiteSpace=wrap;rounded=0;" vertex="1" parent="1">
          <mxGeometry x="507" y="-910" width="160" height="40" as="geometry" />
        </mxCell>
        <mxCell id="NjFya-QLtNh7JIX2aL7N-1" value="teams" style="swimlane;fontStyle=0;childLayout=stackLayout;horizontal=1;startSize=30;horizontalStack=0;resizeParent=1;resizeParentMax=0;resizeLast=0;collapsible=1;marginBottom=0;whiteSpace=wrap;html=1;fillColor=#EA6B66;" vertex="1" parent="1">
          <mxGeometry x="440" y="-1440" width="160" height="180" as="geometry">
            <mxRectangle x="1440" y="-340" width="90" height="30" as="alternateBounds" />
          </mxGeometry>
        </mxCell>
        <mxCell id="NjFya-QLtNh7JIX2aL7N-2" value="&lt;u&gt;team_id&lt;/u&gt;&amp;nbsp; &amp;nbsp;int(11)" style="text;strokeColor=none;fillColor=none;align=left;verticalAlign=middle;spacingLeft=4;spacingRight=4;overflow=hidden;points=[[0,0.5],[1,0.5]];portConstraint=eastwest;rotatable=0;whiteSpace=wrap;html=1;" vertex="1" parent="NjFya-QLtNh7JIX2aL7N-1">
          <mxGeometry y="30" width="160" height="30" as="geometry" />
        </mxCell>
        <mxCell id="NjFya-QLtNh7JIX2aL7N-3" value="name&amp;nbsp; &amp;nbsp;varchar(255)" style="text;strokeColor=none;fillColor=none;align=left;verticalAlign=middle;spacingLeft=4;spacingRight=4;overflow=hidden;points=[[0,0.5],[1,0.5]];portConstraint=eastwest;rotatable=0;whiteSpace=wrap;html=1;" vertex="1" parent="NjFya-QLtNh7JIX2aL7N-1">
          <mxGeometry y="60" width="160" height="30" as="geometry" />
        </mxCell>
        <mxCell id="NjFya-QLtNh7JIX2aL7N-4" value="logo&amp;nbsp; &amp;nbsp;text" style="text;strokeColor=none;fillColor=none;align=left;verticalAlign=middle;spacingLeft=4;spacingRight=4;overflow=hidden;points=[[0,0.5],[1,0.5]];portConstraint=eastwest;rotatable=0;whiteSpace=wrap;html=1;" vertex="1" parent="NjFya-QLtNh7JIX2aL7N-1">
          <mxGeometry y="90" width="160" height="30" as="geometry" />
        </mxCell>
        <mxCell id="NjFya-QLtNh7JIX2aL7N-5" value="description&amp;nbsp; &amp;nbsp;varchar(255)" style="text;strokeColor=none;fillColor=none;align=left;verticalAlign=middle;spacingLeft=4;spacingRight=4;overflow=hidden;points=[[0,0.5],[1,0.5]];portConstraint=eastwest;rotatable=0;whiteSpace=wrap;html=1;" vertex="1" parent="NjFya-QLtNh7JIX2aL7N-1">
          <mxGeometry y="120" width="160" height="30" as="geometry" />
        </mxCell>
        <mxCell id="NjFya-QLtNh7JIX2aL7N-7" value="captain&amp;nbsp; &amp;nbsp;varchar(255)" style="text;strokeColor=none;fillColor=none;align=left;verticalAlign=middle;spacingLeft=4;spacingRight=4;overflow=hidden;points=[[0,0.5],[1,0.5]];portConstraint=eastwest;rotatable=0;whiteSpace=wrap;html=1;" vertex="1" parent="NjFya-QLtNh7JIX2aL7N-1">
          <mxGeometry y="150" width="160" height="30" as="geometry" />
        </mxCell>
        <mxCell id="ILR30oTCaFKlcvkwCh-L-1" style="edgeStyle=orthogonalEdgeStyle;rounded=0;orthogonalLoop=1;jettySize=auto;html=1;entryX=0;entryY=0.5;entryDx=0;entryDy=0;" edge="1" parent="1" source="4WxYh9Hdmc2c66M_aQ2_-2" target="NjFya-QLtNh7JIX2aL7N-2">
          <mxGeometry relative="1" as="geometry" />
        </mxCell>
        <mxCell id="ILR30oTCaFKlcvkwCh-L-2" value="team_id = team_id" style="text;html=1;strokeColor=none;fillColor=none;align=center;verticalAlign=middle;whiteSpace=wrap;rounded=0;" vertex="1" parent="1">
          <mxGeometry x="400" y="-1190" width="160" height="40" as="geometry" />
        </mxCell>
        <mxCell id="CdlLTTR-QgpF4-RFFkJk-1" value="trainings" style="swimlane;fontStyle=0;childLayout=stackLayout;horizontal=1;startSize=30;horizontalStack=0;resizeParent=1;resizeParentMax=0;resizeLast=0;collapsible=1;marginBottom=0;whiteSpace=wrap;html=1;fillColor=#EA6B66;" vertex="1" parent="1">
          <mxGeometry x="40" y="-1379" width="160" height="210" as="geometry">
            <mxRectangle x="1440" y="-340" width="90" height="30" as="alternateBounds" />
          </mxGeometry>
        </mxCell>
        <mxCell id="CdlLTTR-QgpF4-RFFkJk-2" value="&lt;u&gt;training_id&lt;/u&gt;&amp;nbsp; &amp;nbsp;int(11)" style="text;strokeColor=none;fillColor=none;align=left;verticalAlign=middle;spacingLeft=4;spacingRight=4;overflow=hidden;points=[[0,0.5],[1,0.5]];portConstraint=eastwest;rotatable=0;whiteSpace=wrap;html=1;" vertex="1" parent="CdlLTTR-QgpF4-RFFkJk-1">
          <mxGeometry y="30" width="160" height="30" as="geometry" />
        </mxCell>
        <mxCell id="CdlLTTR-QgpF4-RFFkJk-3" value="description&amp;nbsp; &amp;nbsp;varchar(255)" style="text;strokeColor=none;fillColor=none;align=left;verticalAlign=middle;spacingLeft=4;spacingRight=4;overflow=hidden;points=[[0,0.5],[1,0.5]];portConstraint=eastwest;rotatable=0;whiteSpace=wrap;html=1;" vertex="1" parent="CdlLTTR-QgpF4-RFFkJk-1">
          <mxGeometry y="60" width="160" height="30" as="geometry" />
        </mxCell>
        <mxCell id="CdlLTTR-QgpF4-RFFkJk-4" value="date&amp;nbsp; &amp;nbsp;date" style="text;strokeColor=none;fillColor=none;align=left;verticalAlign=middle;spacingLeft=4;spacingRight=4;overflow=hidden;points=[[0,0.5],[1,0.5]];portConstraint=eastwest;rotatable=0;whiteSpace=wrap;html=1;" vertex="1" parent="CdlLTTR-QgpF4-RFFkJk-1">
          <mxGeometry y="90" width="160" height="30" as="geometry" />
        </mxCell>
        <mxCell id="CdlLTTR-QgpF4-RFFkJk-5" value="duration&amp;nbsp; &amp;nbsp;date" style="text;strokeColor=none;fillColor=none;align=left;verticalAlign=middle;spacingLeft=4;spacingRight=4;overflow=hidden;points=[[0,0.5],[1,0.5]];portConstraint=eastwest;rotatable=0;whiteSpace=wrap;html=1;" vertex="1" parent="CdlLTTR-QgpF4-RFFkJk-1">
          <mxGeometry y="120" width="160" height="30" as="geometry" />
        </mxCell>
        <mxCell id="ChNk5BwHiuMh9BJcuWQ8-1" value="team_id&amp;nbsp; &amp;nbsp;int(11)" style="text;strokeColor=none;fillColor=none;align=left;verticalAlign=middle;spacingLeft=4;spacingRight=4;overflow=hidden;points=[[0,0.5],[1,0.5]];portConstraint=eastwest;rotatable=0;whiteSpace=wrap;html=1;" vertex="1" parent="CdlLTTR-QgpF4-RFFkJk-1">
          <mxGeometry y="150" width="160" height="30" as="geometry" />
        </mxCell>
        <mxCell id="ChNk5BwHiuMh9BJcuWQ8-2" value="user_id&amp;nbsp; &amp;nbsp;int(11)" style="text;strokeColor=none;fillColor=none;align=left;verticalAlign=middle;spacingLeft=4;spacingRight=4;overflow=hidden;points=[[0,0.5],[1,0.5]];portConstraint=eastwest;rotatable=0;whiteSpace=wrap;html=1;" vertex="1" parent="CdlLTTR-QgpF4-RFFkJk-1">
          <mxGeometry y="180" width="160" height="30" as="geometry" />
        </mxCell>
        <mxCell id="ChNk5BwHiuMh9BJcuWQ8-3" style="edgeStyle=orthogonalEdgeStyle;rounded=0;orthogonalLoop=1;jettySize=auto;html=1;entryX=0;entryY=0.5;entryDx=0;entryDy=0;" edge="1" parent="1" source="ChNk5BwHiuMh9BJcuWQ8-2" target="YA10-PJrDd8qxraKfVrJ-2">
          <mxGeometry relative="1" as="geometry" />
        </mxCell>
        <mxCell id="ChNk5BwHiuMh9BJcuWQ8-4" style="edgeStyle=orthogonalEdgeStyle;rounded=0;orthogonalLoop=1;jettySize=auto;html=1;entryX=0;entryY=0.5;entryDx=0;entryDy=0;" edge="1" parent="1" source="ChNk5BwHiuMh9BJcuWQ8-1" target="NjFya-QLtNh7JIX2aL7N-2">
          <mxGeometry relative="1" as="geometry" />
        </mxCell>
        <mxCell id="ChNk5BwHiuMh9BJcuWQ8-5" value="user_id = user_id" style="text;html=1;strokeColor=none;fillColor=none;align=center;verticalAlign=middle;whiteSpace=wrap;rounded=0;" vertex="1" parent="1">
          <mxGeometry x="180" y="-1190" width="160" height="40" as="geometry" />
        </mxCell>
        <mxCell id="ChNk5BwHiuMh9BJcuWQ8-6" value="team_id = team_id" style="text;html=1;strokeColor=none;fillColor=none;align=center;verticalAlign=middle;whiteSpace=wrap;rounded=0;" vertex="1" parent="1">
          <mxGeometry x="180" y="-1250" width="160" height="40" as="geometry" />
        </mxCell>
        <mxCell id="uyn5JwRnn4ASeL_H5PW4-1" value="notes" style="swimlane;fontStyle=0;childLayout=stackLayout;horizontal=1;startSize=30;horizontalStack=0;resizeParent=1;resizeParentMax=0;resizeLast=0;collapsible=1;marginBottom=0;whiteSpace=wrap;html=1;fillColor=#EA6B66;" vertex="1" parent="1">
          <mxGeometry x="440" y="-1680" width="160" height="150" as="geometry">
            <mxRectangle x="1440" y="-340" width="90" height="30" as="alternateBounds" />
          </mxGeometry>
        </mxCell>
        <mxCell id="uyn5JwRnn4ASeL_H5PW4-2" value="&lt;u&gt;note_id&lt;/u&gt;&amp;nbsp; &amp;nbsp;int(11)" style="text;strokeColor=none;fillColor=none;align=left;verticalAlign=middle;spacingLeft=4;spacingRight=4;overflow=hidden;points=[[0,0.5],[1,0.5]];portConstraint=eastwest;rotatable=0;whiteSpace=wrap;html=1;" vertex="1" parent="uyn5JwRnn4ASeL_H5PW4-1">
          <mxGeometry y="30" width="160" height="30" as="geometry" />
        </mxCell>
        <mxCell id="uyn5JwRnn4ASeL_H5PW4-3" value="title&amp;nbsp; &amp;nbsp;varchar(255)" style="text;strokeColor=none;fillColor=none;align=left;verticalAlign=middle;spacingLeft=4;spacingRight=4;overflow=hidden;points=[[0,0.5],[1,0.5]];portConstraint=eastwest;rotatable=0;whiteSpace=wrap;html=1;" vertex="1" parent="uyn5JwRnn4ASeL_H5PW4-1">
          <mxGeometry y="60" width="160" height="30" as="geometry" />
        </mxCell>
        <mxCell id="uyn5JwRnn4ASeL_H5PW4-4" value="content&amp;nbsp; &amp;nbsp;text" style="text;strokeColor=none;fillColor=none;align=left;verticalAlign=middle;spacingLeft=4;spacingRight=4;overflow=hidden;points=[[0,0.5],[1,0.5]];portConstraint=eastwest;rotatable=0;whiteSpace=wrap;html=1;" vertex="1" parent="uyn5JwRnn4ASeL_H5PW4-1">
          <mxGeometry y="90" width="160" height="30" as="geometry" />
        </mxCell>
        <mxCell id="uyn5JwRnn4ASeL_H5PW4-5" value="team_id&amp;nbsp; &amp;nbsp;int(11)" style="text;strokeColor=none;fillColor=none;align=left;verticalAlign=middle;spacingLeft=4;spacingRight=4;overflow=hidden;points=[[0,0.5],[1,0.5]];portConstraint=eastwest;rotatable=0;whiteSpace=wrap;html=1;" vertex="1" parent="uyn5JwRnn4ASeL_H5PW4-1">
          <mxGeometry y="120" width="160" height="30" as="geometry" />
        </mxCell>
        <mxCell id="uyn5JwRnn4ASeL_H5PW4-7" style="edgeStyle=orthogonalEdgeStyle;rounded=0;orthogonalLoop=1;jettySize=auto;html=1;entryX=0;entryY=0.5;entryDx=0;entryDy=0;" edge="1" parent="1" source="uyn5JwRnn4ASeL_H5PW4-5" target="NjFya-QLtNh7JIX2aL7N-2">
          <mxGeometry relative="1" as="geometry" />
        </mxCell>
        <mxCell id="uyn5JwRnn4ASeL_H5PW4-8" value="team_id = team_id" style="text;html=1;strokeColor=none;fillColor=none;align=center;verticalAlign=middle;whiteSpace=wrap;rounded=0;" vertex="1" parent="1">
          <mxGeometry x="400" y="-1510" width="160" height="40" as="geometry" />
        </mxCell>
        <mxCell id="pNAMD5UEK5k9wez_Ah_s-1" value="sponsors" style="swimlane;fontStyle=0;childLayout=stackLayout;horizontal=1;startSize=30;horizontalStack=0;resizeParent=1;resizeParentMax=0;resizeLast=0;collapsible=1;marginBottom=0;whiteSpace=wrap;html=1;fillColor=#EA6B66;" vertex="1" parent="1">
          <mxGeometry x="960" y="-1880" width="160" height="240" as="geometry">
            <mxRectangle x="1440" y="-340" width="90" height="30" as="alternateBounds" />
          </mxGeometry>
        </mxCell>
        <mxCell id="pNAMD5UEK5k9wez_Ah_s-2" value="&lt;u&gt;sponsor_id&lt;/u&gt;&amp;nbsp; &amp;nbsp;int(11)" style="text;strokeColor=none;fillColor=none;align=left;verticalAlign=middle;spacingLeft=4;spacingRight=4;overflow=hidden;points=[[0,0.5],[1,0.5]];portConstraint=eastwest;rotatable=0;whiteSpace=wrap;html=1;" vertex="1" parent="pNAMD5UEK5k9wez_Ah_s-1">
          <mxGeometry y="30" width="160" height="30" as="geometry" />
        </mxCell>
        <mxCell id="pNAMD5UEK5k9wez_Ah_s-3" value="name&amp;nbsp; &amp;nbsp;varchar(255)" style="text;strokeColor=none;fillColor=none;align=left;verticalAlign=middle;spacingLeft=4;spacingRight=4;overflow=hidden;points=[[0,0.5],[1,0.5]];portConstraint=eastwest;rotatable=0;whiteSpace=wrap;html=1;" vertex="1" parent="pNAMD5UEK5k9wez_Ah_s-1">
          <mxGeometry y="60" width="160" height="30" as="geometry" />
        </mxCell>
        <mxCell id="pNAMD5UEK5k9wez_Ah_s-4" value="logo&amp;nbsp; &amp;nbsp;text" style="text;strokeColor=none;fillColor=none;align=left;verticalAlign=middle;spacingLeft=4;spacingRight=4;overflow=hidden;points=[[0,0.5],[1,0.5]];portConstraint=eastwest;rotatable=0;whiteSpace=wrap;html=1;" vertex="1" parent="pNAMD5UEK5k9wez_Ah_s-1">
          <mxGeometry y="90" width="160" height="30" as="geometry" />
        </mxCell>
        <mxCell id="pNAMD5UEK5k9wez_Ah_s-5" value="description&amp;nbsp; &amp;nbsp;varchar(255)" style="text;strokeColor=none;fillColor=none;align=left;verticalAlign=middle;spacingLeft=4;spacingRight=4;overflow=hidden;points=[[0,0.5],[1,0.5]];portConstraint=eastwest;rotatable=0;whiteSpace=wrap;html=1;" vertex="1" parent="pNAMD5UEK5k9wez_Ah_s-1">
          <mxGeometry y="120" width="160" height="30" as="geometry" />
        </mxCell>
        <mxCell id="pNAMD5UEK5k9wez_Ah_s-6" value="website&amp;nbsp; &amp;nbsp;varchar(255)" style="text;strokeColor=none;fillColor=none;align=left;verticalAlign=middle;spacingLeft=4;spacingRight=4;overflow=hidden;points=[[0,0.5],[1,0.5]];portConstraint=eastwest;rotatable=0;whiteSpace=wrap;html=1;" vertex="1" parent="pNAMD5UEK5k9wez_Ah_s-1">
          <mxGeometry y="150" width="160" height="30" as="geometry" />
        </mxCell>
        <mxCell id="pNAMD5UEK5k9wez_Ah_s-7" value="email&amp;nbsp; &amp;nbsp;varchar(255)" style="text;strokeColor=none;fillColor=none;align=left;verticalAlign=middle;spacingLeft=4;spacingRight=4;overflow=hidden;points=[[0,0.5],[1,0.5]];portConstraint=eastwest;rotatable=0;whiteSpace=wrap;html=1;" vertex="1" parent="pNAMD5UEK5k9wez_Ah_s-1">
          <mxGeometry y="180" width="160" height="30" as="geometry" />
        </mxCell>
        <mxCell id="pNAMD5UEK5k9wez_Ah_s-8" value="phone varchar(255)" style="text;strokeColor=none;fillColor=none;align=left;verticalAlign=middle;spacingLeft=4;spacingRight=4;overflow=hidden;points=[[0,0.5],[1,0.5]];portConstraint=eastwest;rotatable=0;whiteSpace=wrap;html=1;" vertex="1" parent="pNAMD5UEK5k9wez_Ah_s-1">
          <mxGeometry y="210" width="160" height="30" as="geometry" />
        </mxCell>
        <mxCell id="VE3iD5O0HAb7jt7joISF-1" value="sponsors_teams" style="swimlane;fontStyle=0;childLayout=stackLayout;horizontal=1;startSize=30;horizontalStack=0;resizeParent=1;resizeParentMax=0;resizeLast=0;collapsible=1;marginBottom=0;whiteSpace=wrap;html=1;fillColor=#EA6B66;" vertex="1" parent="1">
          <mxGeometry x="680" y="-1680" width="160" height="120" as="geometry">
            <mxRectangle x="1440" y="-340" width="90" height="30" as="alternateBounds" />
          </mxGeometry>
        </mxCell>
        <mxCell id="VE3iD5O0HAb7jt7joISF-2" value="&lt;u&gt;sponsor_id&lt;/u&gt;&amp;nbsp; &amp;nbsp;int(11)" style="text;strokeColor=none;fillColor=none;align=left;verticalAlign=middle;spacingLeft=4;spacingRight=4;overflow=hidden;points=[[0,0.5],[1,0.5]];portConstraint=eastwest;rotatable=0;whiteSpace=wrap;html=1;" vertex="1" parent="VE3iD5O0HAb7jt7joISF-1">
          <mxGeometry y="30" width="160" height="30" as="geometry" />
        </mxCell>
        <mxCell id="VE3iD5O0HAb7jt7joISF-3" value="&lt;u&gt;team_id&lt;/u&gt;&amp;nbsp; &amp;nbsp;int(11)" style="text;strokeColor=none;fillColor=none;align=left;verticalAlign=middle;spacingLeft=4;spacingRight=4;overflow=hidden;points=[[0,0.5],[1,0.5]];portConstraint=eastwest;rotatable=0;whiteSpace=wrap;html=1;" vertex="1" parent="VE3iD5O0HAb7jt7joISF-1">
          <mxGeometry y="60" width="160" height="30" as="geometry" />
        </mxCell>
        <mxCell id="VE3iD5O0HAb7jt7joISF-4" value="money int(11)" style="text;strokeColor=none;fillColor=none;align=left;verticalAlign=middle;spacingLeft=4;spacingRight=4;overflow=hidden;points=[[0,0.5],[1,0.5]];portConstraint=eastwest;rotatable=0;whiteSpace=wrap;html=1;" vertex="1" parent="VE3iD5O0HAb7jt7joISF-1">
          <mxGeometry y="90" width="160" height="30" as="geometry" />
        </mxCell>
        <mxCell id="guDY6D_EVL09BXrklag_-1" style="edgeStyle=orthogonalEdgeStyle;rounded=0;orthogonalLoop=1;jettySize=auto;html=1;entryX=1;entryY=0.5;entryDx=0;entryDy=0;" edge="1" parent="1" source="VE3iD5O0HAb7jt7joISF-3" target="NjFya-QLtNh7JIX2aL7N-2">
          <mxGeometry relative="1" as="geometry" />
        </mxCell>
        <mxCell id="guDY6D_EVL09BXrklag_-2" value="team_id = team_id" style="text;html=1;strokeColor=none;fillColor=none;align=center;verticalAlign=middle;whiteSpace=wrap;rounded=0;" vertex="1" parent="1">
          <mxGeometry x="620" y="-1510" width="160" height="40" as="geometry" />
        </mxCell>
        <mxCell id="guDY6D_EVL09BXrklag_-3" style="edgeStyle=orthogonalEdgeStyle;rounded=0;orthogonalLoop=1;jettySize=auto;html=1;entryX=0;entryY=0.5;entryDx=0;entryDy=0;" edge="1" parent="1" source="VE3iD5O0HAb7jt7joISF-2" target="pNAMD5UEK5k9wez_Ah_s-2">
          <mxGeometry relative="1" as="geometry" />
        </mxCell>
        <mxCell id="guDY6D_EVL09BXrklag_-4" value="sponsor_id = sponsor_id" style="text;html=1;strokeColor=none;fillColor=none;align=center;verticalAlign=middle;whiteSpace=wrap;rounded=0;" vertex="1" parent="1">
          <mxGeometry x="750" y="-1840" width="160" height="40" as="geometry" />
        </mxCell>
        <mxCell id="htTW5LpypJhNr06EhcbW-1" value="tournaments" style="swimlane;fontStyle=0;childLayout=stackLayout;horizontal=1;startSize=30;horizontalStack=0;resizeParent=1;resizeParentMax=0;resizeLast=0;collapsible=1;marginBottom=0;whiteSpace=wrap;html=1;fillColor=#EA6B66;" vertex="1" parent="1">
          <mxGeometry x="960" y="-1250" width="160" height="300" as="geometry">
            <mxRectangle x="1440" y="-340" width="90" height="30" as="alternateBounds" />
          </mxGeometry>
        </mxCell>
        <mxCell id="htTW5LpypJhNr06EhcbW-2" value="&lt;u&gt;tournament_id&lt;/u&gt;&amp;nbsp; &amp;nbsp;int(11)" style="text;strokeColor=none;fillColor=none;align=left;verticalAlign=middle;spacingLeft=4;spacingRight=4;overflow=hidden;points=[[0,0.5],[1,0.5]];portConstraint=eastwest;rotatable=0;whiteSpace=wrap;html=1;" vertex="1" parent="htTW5LpypJhNr06EhcbW-1">
          <mxGeometry y="30" width="160" height="30" as="geometry" />
        </mxCell>
        <mxCell id="htTW5LpypJhNr06EhcbW-3" value="name&amp;nbsp; &amp;nbsp;varchar(255)" style="text;strokeColor=none;fillColor=none;align=left;verticalAlign=middle;spacingLeft=4;spacingRight=4;overflow=hidden;points=[[0,0.5],[1,0.5]];portConstraint=eastwest;rotatable=0;whiteSpace=wrap;html=1;" vertex="1" parent="htTW5LpypJhNr06EhcbW-1">
          <mxGeometry y="60" width="160" height="30" as="geometry" />
        </mxCell>
        <mxCell id="htTW5LpypJhNr06EhcbW-4" value="description&amp;nbsp; &amp;nbsp;varchar(255)" style="text;strokeColor=none;fillColor=none;align=left;verticalAlign=middle;spacingLeft=4;spacingRight=4;overflow=hidden;points=[[0,0.5],[1,0.5]];portConstraint=eastwest;rotatable=0;whiteSpace=wrap;html=1;" vertex="1" parent="htTW5LpypJhNr06EhcbW-1">
          <mxGeometry y="90" width="160" height="30" as="geometry" />
        </mxCell>
        <mxCell id="htTW5LpypJhNr06EhcbW-5" value="start_date&amp;nbsp; &amp;nbsp;date" style="text;strokeColor=none;fillColor=none;align=left;verticalAlign=middle;spacingLeft=4;spacingRight=4;overflow=hidden;points=[[0,0.5],[1,0.5]];portConstraint=eastwest;rotatable=0;whiteSpace=wrap;html=1;" vertex="1" parent="htTW5LpypJhNr06EhcbW-1">
          <mxGeometry y="120" width="160" height="30" as="geometry" />
        </mxCell>
        <mxCell id="htTW5LpypJhNr06EhcbW-6" value="end_date&amp;nbsp; &amp;nbsp;date" style="text;strokeColor=none;fillColor=none;align=left;verticalAlign=middle;spacingLeft=4;spacingRight=4;overflow=hidden;points=[[0,0.5],[1,0.5]];portConstraint=eastwest;rotatable=0;whiteSpace=wrap;html=1;" vertex="1" parent="htTW5LpypJhNr06EhcbW-1">
          <mxGeometry y="150" width="160" height="30" as="geometry" />
        </mxCell>
        <mxCell id="htTW5LpypJhNr06EhcbW-7" value="format&amp;nbsp; &amp;nbsp;varchar(255)" style="text;strokeColor=none;fillColor=none;align=left;verticalAlign=middle;spacingLeft=4;spacingRight=4;overflow=hidden;points=[[0,0.5],[1,0.5]];portConstraint=eastwest;rotatable=0;whiteSpace=wrap;html=1;" vertex="1" parent="htTW5LpypJhNr06EhcbW-1">
          <mxGeometry y="180" width="160" height="30" as="geometry" />
        </mxCell>
        <mxCell id="htTW5LpypJhNr06EhcbW-8" value="game&amp;nbsp; &amp;nbsp;varchar(255)" style="text;strokeColor=none;fillColor=none;align=left;verticalAlign=middle;spacingLeft=4;spacingRight=4;overflow=hidden;points=[[0,0.5],[1,0.5]];portConstraint=eastwest;rotatable=0;whiteSpace=wrap;html=1;" vertex="1" parent="htTW5LpypJhNr06EhcbW-1">
          <mxGeometry y="210" width="160" height="30" as="geometry" />
        </mxCell>
        <mxCell id="htTW5LpypJhNr06EhcbW-9" value="prize_pool&amp;nbsp; &amp;nbsp;int(11)" style="text;strokeColor=none;fillColor=none;align=left;verticalAlign=middle;spacingLeft=4;spacingRight=4;overflow=hidden;points=[[0,0.5],[1,0.5]];portConstraint=eastwest;rotatable=0;whiteSpace=wrap;html=1;" vertex="1" parent="htTW5LpypJhNr06EhcbW-1">
          <mxGeometry y="240" width="160" height="30" as="geometry" />
        </mxCell>
        <mxCell id="bi4Cxw0aAN4_otPpR4OG-1" value="user_id&amp;nbsp; &amp;nbsp;int(11)" style="text;strokeColor=none;fillColor=none;align=left;verticalAlign=middle;spacingLeft=4;spacingRight=4;overflow=hidden;points=[[0,0.5],[1,0.5]];portConstraint=eastwest;rotatable=0;whiteSpace=wrap;html=1;" vertex="1" parent="htTW5LpypJhNr06EhcbW-1">
          <mxGeometry y="270" width="160" height="30" as="geometry" />
        </mxCell>
        <mxCell id="3kqoELOsFIhM31kr4F2J-1" value="sponsors_tournaments" style="swimlane;fontStyle=0;childLayout=stackLayout;horizontal=1;startSize=30;horizontalStack=0;resizeParent=1;resizeParentMax=0;resizeLast=0;collapsible=1;marginBottom=0;whiteSpace=wrap;html=1;fillColor=#EA6B66;" vertex="1" parent="1">
          <mxGeometry x="960" y="-1560" width="160" height="120" as="geometry">
            <mxRectangle x="1440" y="-340" width="90" height="30" as="alternateBounds" />
          </mxGeometry>
        </mxCell>
        <mxCell id="3kqoELOsFIhM31kr4F2J-2" value="&lt;u&gt;sponsor_id&lt;/u&gt;&amp;nbsp; &amp;nbsp;int(11)" style="text;strokeColor=none;fillColor=none;align=left;verticalAlign=middle;spacingLeft=4;spacingRight=4;overflow=hidden;points=[[0,0.5],[1,0.5]];portConstraint=eastwest;rotatable=0;whiteSpace=wrap;html=1;" vertex="1" parent="3kqoELOsFIhM31kr4F2J-1">
          <mxGeometry y="30" width="160" height="30" as="geometry" />
        </mxCell>
        <mxCell id="3kqoELOsFIhM31kr4F2J-3" value="&lt;u&gt;tournament_id&lt;/u&gt;&amp;nbsp; &amp;nbsp;int(11)" style="text;strokeColor=none;fillColor=none;align=left;verticalAlign=middle;spacingLeft=4;spacingRight=4;overflow=hidden;points=[[0,0.5],[1,0.5]];portConstraint=eastwest;rotatable=0;whiteSpace=wrap;html=1;" vertex="1" parent="3kqoELOsFIhM31kr4F2J-1">
          <mxGeometry y="60" width="160" height="30" as="geometry" />
        </mxCell>
        <mxCell id="3kqoELOsFIhM31kr4F2J-4" value="money int(11)" style="text;strokeColor=none;fillColor=none;align=left;verticalAlign=middle;spacingLeft=4;spacingRight=4;overflow=hidden;points=[[0,0.5],[1,0.5]];portConstraint=eastwest;rotatable=0;whiteSpace=wrap;html=1;" vertex="1" parent="3kqoELOsFIhM31kr4F2J-1">
          <mxGeometry y="90" width="160" height="30" as="geometry" />
        </mxCell>
        <mxCell id="C9qlOEBxYHgTI5OcJUUc-1" style="edgeStyle=orthogonalEdgeStyle;rounded=0;orthogonalLoop=1;jettySize=auto;html=1;entryX=1;entryY=0.5;entryDx=0;entryDy=0;" edge="1" parent="1" source="3kqoELOsFIhM31kr4F2J-2" target="pNAMD5UEK5k9wez_Ah_s-2">
          <mxGeometry relative="1" as="geometry">
            <Array as="points">
              <mxPoint x="1160" y="-1515" />
              <mxPoint x="1160" y="-1835" />
            </Array>
          </mxGeometry>
        </mxCell>
        <mxCell id="C9qlOEBxYHgTI5OcJUUc-2" value="sponsor_id = sponsor_id" style="text;html=1;strokeColor=none;fillColor=none;align=center;verticalAlign=middle;whiteSpace=wrap;rounded=0;" vertex="1" parent="1">
          <mxGeometry x="1150" y="-1550" width="160" height="40" as="geometry" />
        </mxCell>
        <mxCell id="jGJjRGrI_m4Lek5FK5mI-2" style="edgeStyle=orthogonalEdgeStyle;rounded=0;orthogonalLoop=1;jettySize=auto;html=1;entryX=1;entryY=0.5;entryDx=0;entryDy=0;" edge="1" parent="1" source="htTW5LpypJhNr06EhcbW-2" target="3kqoELOsFIhM31kr4F2J-3">
          <mxGeometry relative="1" as="geometry">
            <Array as="points">
              <mxPoint x="1160" y="-1205" />
              <mxPoint x="1160" y="-1485" />
            </Array>
          </mxGeometry>
        </mxCell>
        <mxCell id="jGJjRGrI_m4Lek5FK5mI-3" value="tournament_id = tournament_id" style="text;html=1;strokeColor=none;fillColor=none;align=center;verticalAlign=middle;whiteSpace=wrap;rounded=0;" vertex="1" parent="1">
          <mxGeometry x="1150" y="-1310" width="200" height="40" as="geometry" />
        </mxCell>
        <mxCell id="kvrNpn-a4yvUOLBG7MsC-1" value="teams_tournaments" style="swimlane;fontStyle=0;childLayout=stackLayout;horizontal=1;startSize=30;horizontalStack=0;resizeParent=1;resizeParentMax=0;resizeLast=0;collapsible=1;marginBottom=0;whiteSpace=wrap;html=1;fillColor=#EA6B66;" vertex="1" parent="1">
          <mxGeometry x="720" y="-1400" width="160" height="120" as="geometry">
            <mxRectangle x="1440" y="-340" width="90" height="30" as="alternateBounds" />
          </mxGeometry>
        </mxCell>
        <mxCell id="kvrNpn-a4yvUOLBG7MsC-2" value="&lt;u&gt;team_id&lt;/u&gt;&amp;nbsp; &amp;nbsp;int(11)" style="text;strokeColor=none;fillColor=none;align=left;verticalAlign=middle;spacingLeft=4;spacingRight=4;overflow=hidden;points=[[0,0.5],[1,0.5]];portConstraint=eastwest;rotatable=0;whiteSpace=wrap;html=1;" vertex="1" parent="kvrNpn-a4yvUOLBG7MsC-1">
          <mxGeometry y="30" width="160" height="30" as="geometry" />
        </mxCell>
        <mxCell id="kvrNpn-a4yvUOLBG7MsC-3" value="&lt;u&gt;tournament_id&lt;/u&gt;&amp;nbsp; &amp;nbsp;int(11)" style="text;strokeColor=none;fillColor=none;align=left;verticalAlign=middle;spacingLeft=4;spacingRight=4;overflow=hidden;points=[[0,0.5],[1,0.5]];portConstraint=eastwest;rotatable=0;whiteSpace=wrap;html=1;" vertex="1" parent="kvrNpn-a4yvUOLBG7MsC-1">
          <mxGeometry y="60" width="160" height="30" as="geometry" />
        </mxCell>
        <mxCell id="kvrNpn-a4yvUOLBG7MsC-4" value="rank varchar(255)" style="text;strokeColor=none;fillColor=none;align=left;verticalAlign=middle;spacingLeft=4;spacingRight=4;overflow=hidden;points=[[0,0.5],[1,0.5]];portConstraint=eastwest;rotatable=0;whiteSpace=wrap;html=1;" vertex="1" parent="kvrNpn-a4yvUOLBG7MsC-1">
          <mxGeometry y="90" width="160" height="30" as="geometry" />
        </mxCell>
        <mxCell id="lKAXWRZch_drCufrzNtu-1" style="edgeStyle=orthogonalEdgeStyle;rounded=0;orthogonalLoop=1;jettySize=auto;html=1;entryX=1;entryY=0.5;entryDx=0;entryDy=0;" edge="1" parent="1" source="kvrNpn-a4yvUOLBG7MsC-2" target="NjFya-QLtNh7JIX2aL7N-2">
          <mxGeometry relative="1" as="geometry" />
        </mxCell>
        <mxCell id="lKAXWRZch_drCufrzNtu-2" value="team_id = team_id" style="text;html=1;strokeColor=none;fillColor=none;align=center;verticalAlign=middle;whiteSpace=wrap;rounded=0;" vertex="1" parent="1">
          <mxGeometry x="580" y="-1360" width="160" height="40" as="geometry" />
        </mxCell>
        <mxCell id="lKAXWRZch_drCufrzNtu-3" style="edgeStyle=orthogonalEdgeStyle;rounded=0;orthogonalLoop=1;jettySize=auto;html=1;" edge="1" parent="1" source="kvrNpn-a4yvUOLBG7MsC-3" target="htTW5LpypJhNr06EhcbW-2">
          <mxGeometry relative="1" as="geometry" />
        </mxCell>
        <mxCell id="lKAXWRZch_drCufrzNtu-4" value="tournament_id = tournament_id" style="text;html=1;strokeColor=none;fillColor=none;align=center;verticalAlign=middle;whiteSpace=wrap;rounded=0;" vertex="1" parent="1">
          <mxGeometry x="910" y="-1310" width="200" height="40" as="geometry" />
        </mxCell>
        <mxCell id="samT2zoZnZyIBhN4alo4-1" value="orders" style="swimlane;fontStyle=0;childLayout=stackLayout;horizontal=1;startSize=30;horizontalStack=0;resizeParent=1;resizeParentMax=0;resizeLast=0;collapsible=1;marginBottom=0;whiteSpace=wrap;html=1;fillColor=#EA6B66;" vertex="1" parent="1">
          <mxGeometry x="800" y="-920" width="160" height="120" as="geometry" />
        </mxCell>
        <mxCell id="samT2zoZnZyIBhN4alo4-2" value="&lt;u&gt;order_id&lt;/u&gt;&amp;nbsp; &amp;nbsp;int(11)" style="text;strokeColor=none;fillColor=none;align=left;verticalAlign=middle;spacingLeft=4;spacingRight=4;overflow=hidden;points=[[0,0.5],[1,0.5]];portConstraint=eastwest;rotatable=0;whiteSpace=wrap;html=1;" vertex="1" parent="samT2zoZnZyIBhN4alo4-1">
          <mxGeometry y="30" width="160" height="30" as="geometry" />
        </mxCell>
        <mxCell id="samT2zoZnZyIBhN4alo4-3" value="date&amp;nbsp; &amp;nbsp;date" style="text;strokeColor=none;fillColor=none;align=left;verticalAlign=middle;spacingLeft=4;spacingRight=4;overflow=hidden;points=[[0,0.5],[1,0.5]];portConstraint=eastwest;rotatable=0;whiteSpace=wrap;html=1;" vertex="1" parent="samT2zoZnZyIBhN4alo4-1">
          <mxGeometry y="60" width="160" height="30" as="geometry" />
        </mxCell>
        <mxCell id="xGxYPR0VJaJWvh7vIdrT-1" value="user_id&amp;nbsp; &amp;nbsp;int(11)" style="text;strokeColor=none;fillColor=none;align=left;verticalAlign=middle;spacingLeft=4;spacingRight=4;overflow=hidden;points=[[0,0.5],[1,0.5]];portConstraint=eastwest;rotatable=0;whiteSpace=wrap;html=1;" vertex="1" parent="samT2zoZnZyIBhN4alo4-1">
          <mxGeometry y="90" width="160" height="30" as="geometry" />
        </mxCell>
        <mxCell id="xGxYPR0VJaJWvh7vIdrT-2" style="edgeStyle=orthogonalEdgeStyle;rounded=0;orthogonalLoop=1;jettySize=auto;html=1;entryX=1;entryY=0.5;entryDx=0;entryDy=0;" edge="1" parent="1" source="xGxYPR0VJaJWvh7vIdrT-1" target="YA10-PJrDd8qxraKfVrJ-2">
          <mxGeometry relative="1" as="geometry" />
        </mxCell>
        <mxCell id="xGxYPR0VJaJWvh7vIdrT-3" value="user_id = user_id" style="text;html=1;strokeColor=none;fillColor=none;align=center;verticalAlign=middle;whiteSpace=wrap;rounded=0;" vertex="1" parent="1">
          <mxGeometry x="667" y="-850" width="160" height="40" as="geometry" />
        </mxCell>
        <mxCell id="VJDjteVyhZLO15lVGvko-1" value="products" style="swimlane;fontStyle=0;childLayout=stackLayout;horizontal=1;startSize=30;horizontalStack=0;resizeParent=1;resizeParentMax=0;resizeLast=0;collapsible=1;marginBottom=0;whiteSpace=wrap;html=1;fillColor=#EA6B66;" vertex="1" parent="1">
          <mxGeometry x="1400" y="-920" width="160" height="240" as="geometry">
            <mxRectangle x="1440" y="-340" width="90" height="30" as="alternateBounds" />
          </mxGeometry>
        </mxCell>
        <mxCell id="VJDjteVyhZLO15lVGvko-2" value="&lt;u&gt;product_id&lt;/u&gt;&amp;nbsp; &amp;nbsp;int(11)" style="text;strokeColor=none;fillColor=none;align=left;verticalAlign=middle;spacingLeft=4;spacingRight=4;overflow=hidden;points=[[0,0.5],[1,0.5]];portConstraint=eastwest;rotatable=0;whiteSpace=wrap;html=1;" vertex="1" parent="VJDjteVyhZLO15lVGvko-1">
          <mxGeometry y="30" width="160" height="30" as="geometry" />
        </mxCell>
        <mxCell id="VJDjteVyhZLO15lVGvko-3" value="label&amp;nbsp; &amp;nbsp;varchar(255)" style="text;strokeColor=none;fillColor=none;align=left;verticalAlign=middle;spacingLeft=4;spacingRight=4;overflow=hidden;points=[[0,0.5],[1,0.5]];portConstraint=eastwest;rotatable=0;whiteSpace=wrap;html=1;" vertex="1" parent="VJDjteVyhZLO15lVGvko-1">
          <mxGeometry y="60" width="160" height="30" as="geometry" />
        </mxCell>
        <mxCell id="VJDjteVyhZLO15lVGvko-4" value="description&amp;nbsp; varchar(255)" style="text;strokeColor=none;fillColor=none;align=left;verticalAlign=middle;spacingLeft=4;spacingRight=4;overflow=hidden;points=[[0,0.5],[1,0.5]];portConstraint=eastwest;rotatable=0;whiteSpace=wrap;html=1;" vertex="1" parent="VJDjteVyhZLO15lVGvko-1">
          <mxGeometry y="90" width="160" height="30" as="geometry" />
        </mxCell>
        <mxCell id="VJDjteVyhZLO15lVGvko-5" value="price&amp;nbsp; float" style="text;strokeColor=none;fillColor=none;align=left;verticalAlign=middle;spacingLeft=4;spacingRight=4;overflow=hidden;points=[[0,0.5],[1,0.5]];portConstraint=eastwest;rotatable=0;whiteSpace=wrap;html=1;" vertex="1" parent="VJDjteVyhZLO15lVGvko-1">
          <mxGeometry y="120" width="160" height="30" as="geometry" />
        </mxCell>
        <mxCell id="VJDjteVyhZLO15lVGvko-6" value="stock&amp;nbsp; int(11)" style="text;strokeColor=none;fillColor=none;align=left;verticalAlign=middle;spacingLeft=4;spacingRight=4;overflow=hidden;points=[[0,0.5],[1,0.5]];portConstraint=eastwest;rotatable=0;whiteSpace=wrap;html=1;" vertex="1" parent="VJDjteVyhZLO15lVGvko-1">
          <mxGeometry y="150" width="160" height="30" as="geometry" />
        </mxCell>
        <mxCell id="VJDjteVyhZLO15lVGvko-7" value="category&amp;nbsp; varchar(255)" style="text;strokeColor=none;fillColor=none;align=left;verticalAlign=middle;spacingLeft=4;spacingRight=4;overflow=hidden;points=[[0,0.5],[1,0.5]];portConstraint=eastwest;rotatable=0;whiteSpace=wrap;html=1;" vertex="1" parent="VJDjteVyhZLO15lVGvko-1">
          <mxGeometry y="180" width="160" height="30" as="geometry" />
        </mxCell>
        <mxCell id="VJDjteVyhZLO15lVGvko-8" value="image_url&amp;nbsp; &amp;nbsp;text" style="text;strokeColor=none;fillColor=none;align=left;verticalAlign=middle;spacingLeft=4;spacingRight=4;overflow=hidden;points=[[0,0.5],[1,0.5]];portConstraint=eastwest;rotatable=0;whiteSpace=wrap;html=1;" vertex="1" parent="VJDjteVyhZLO15lVGvko-1">
          <mxGeometry y="210" width="160" height="30" as="geometry" />
        </mxCell>
        <mxCell id="MgdKgVcE4pqgzrIe84-F-1" value="products_orders" style="swimlane;fontStyle=0;childLayout=stackLayout;horizontal=1;startSize=30;horizontalStack=0;resizeParent=1;resizeParentMax=0;resizeLast=0;collapsible=1;marginBottom=0;whiteSpace=wrap;html=1;fillColor=#EA6B66;" vertex="1" parent="1">
          <mxGeometry x="1080" y="-920" width="160" height="150" as="geometry">
            <mxRectangle x="1440" y="-340" width="90" height="30" as="alternateBounds" />
          </mxGeometry>
        </mxCell>
        <mxCell id="MgdKgVcE4pqgzrIe84-F-2" value="&lt;u&gt;product_id&lt;/u&gt;&amp;nbsp; &amp;nbsp;int(11)" style="text;strokeColor=none;fillColor=none;align=left;verticalAlign=middle;spacingLeft=4;spacingRight=4;overflow=hidden;points=[[0,0.5],[1,0.5]];portConstraint=eastwest;rotatable=0;whiteSpace=wrap;html=1;" vertex="1" parent="MgdKgVcE4pqgzrIe84-F-1">
          <mxGeometry y="30" width="160" height="30" as="geometry" />
        </mxCell>
        <mxCell id="MgdKgVcE4pqgzrIe84-F-3" value="&lt;u&gt;order_id&lt;/u&gt;&amp;nbsp; &amp;nbsp;int(11)" style="text;strokeColor=none;fillColor=none;align=left;verticalAlign=middle;spacingLeft=4;spacingRight=4;overflow=hidden;points=[[0,0.5],[1,0.5]];portConstraint=eastwest;rotatable=0;whiteSpace=wrap;html=1;" vertex="1" parent="MgdKgVcE4pqgzrIe84-F-1">
          <mxGeometry y="60" width="160" height="30" as="geometry" />
        </mxCell>
        <mxCell id="MgdKgVcE4pqgzrIe84-F-4" value="quantity int(11)" style="text;strokeColor=none;fillColor=none;align=left;verticalAlign=middle;spacingLeft=4;spacingRight=4;overflow=hidden;points=[[0,0.5],[1,0.5]];portConstraint=eastwest;rotatable=0;whiteSpace=wrap;html=1;" vertex="1" parent="MgdKgVcE4pqgzrIe84-F-1">
          <mxGeometry y="90" width="160" height="30" as="geometry" />
        </mxCell>
        <mxCell id="qAHHvSyhcUnFwIDstVvo-1" value="price float" style="text;strokeColor=none;fillColor=none;align=left;verticalAlign=middle;spacingLeft=4;spacingRight=4;overflow=hidden;points=[[0,0.5],[1,0.5]];portConstraint=eastwest;rotatable=0;whiteSpace=wrap;html=1;" vertex="1" parent="MgdKgVcE4pqgzrIe84-F-1">
          <mxGeometry y="120" width="160" height="30" as="geometry" />
        </mxCell>
        <mxCell id="lnHB9Al4KhonhS1Jhlsj-2" style="edgeStyle=orthogonalEdgeStyle;rounded=0;orthogonalLoop=1;jettySize=auto;html=1;entryX=0;entryY=0.5;entryDx=0;entryDy=0;" edge="1" parent="1" source="MgdKgVcE4pqgzrIe84-F-2" target="VJDjteVyhZLO15lVGvko-2">
          <mxGeometry relative="1" as="geometry" />
        </mxCell>
        <mxCell id="lnHB9Al4KhonhS1Jhlsj-3" style="edgeStyle=orthogonalEdgeStyle;rounded=0;orthogonalLoop=1;jettySize=auto;html=1;entryX=1;entryY=0.5;entryDx=0;entryDy=0;" edge="1" parent="1" source="MgdKgVcE4pqgzrIe84-F-3" target="samT2zoZnZyIBhN4alo4-2">
          <mxGeometry relative="1" as="geometry">
            <Array as="points">
              <mxPoint x="1040" y="-845" />
              <mxPoint x="1040" y="-875" />
            </Array>
          </mxGeometry>
        </mxCell>
        <mxCell id="lnHB9Al4KhonhS1Jhlsj-4" value="order_id = order_id" style="text;html=1;strokeColor=none;fillColor=none;align=center;verticalAlign=middle;whiteSpace=wrap;rounded=0;" vertex="1" parent="1">
          <mxGeometry x="940" y="-910" width="160" height="40" as="geometry" />
        </mxCell>
        <mxCell id="lnHB9Al4KhonhS1Jhlsj-5" value="product_id = product_id" style="text;html=1;strokeColor=none;fillColor=none;align=center;verticalAlign=middle;whiteSpace=wrap;rounded=0;" vertex="1" parent="1">
          <mxGeometry x="1240" y="-910" width="160" height="40" as="geometry" />
        </mxCell>
        <mxCell id="qFXLy3kXuhTQNN0VEF0l-1" value="payments" style="swimlane;fontStyle=0;childLayout=stackLayout;horizontal=1;startSize=30;horizontalStack=0;resizeParent=1;resizeParentMax=0;resizeLast=0;collapsible=1;marginBottom=0;whiteSpace=wrap;html=1;fillColor=#EA6B66;" vertex="1" parent="1">
          <mxGeometry x="1400" y="-640" width="160" height="210" as="geometry" />
        </mxCell>
        <mxCell id="qFXLy3kXuhTQNN0VEF0l-2" value="&lt;u&gt;paymentId&lt;/u&gt;&amp;nbsp; &amp;nbsp;int(11)" style="text;strokeColor=none;fillColor=none;align=left;verticalAlign=middle;spacingLeft=4;spacingRight=4;overflow=hidden;points=[[0,0.5],[1,0.5]];portConstraint=eastwest;rotatable=0;whiteSpace=wrap;html=1;" vertex="1" parent="qFXLy3kXuhTQNN0VEF0l-1">
          <mxGeometry y="30" width="160" height="30" as="geometry" />
        </mxCell>
        <mxCell id="qFXLy3kXuhTQNN0VEF0l-3" value="date&amp;nbsp; &amp;nbsp;date" style="text;strokeColor=none;fillColor=none;align=left;verticalAlign=middle;spacingLeft=4;spacingRight=4;overflow=hidden;points=[[0,0.5],[1,0.5]];portConstraint=eastwest;rotatable=0;whiteSpace=wrap;html=1;" vertex="1" parent="qFXLy3kXuhTQNN0VEF0l-1">
          <mxGeometry y="60" width="160" height="30" as="geometry" />
        </mxCell>
        <mxCell id="qFXLy3kXuhTQNN0VEF0l-4" value="method&amp;nbsp; &amp;nbsp;varchar(255)" style="text;strokeColor=none;fillColor=none;align=left;verticalAlign=middle;spacingLeft=4;spacingRight=4;overflow=hidden;points=[[0,0.5],[1,0.5]];portConstraint=eastwest;rotatable=0;whiteSpace=wrap;html=1;" vertex="1" parent="qFXLy3kXuhTQNN0VEF0l-1">
          <mxGeometry y="90" width="160" height="30" as="geometry" />
        </mxCell>
        <mxCell id="qFXLy3kXuhTQNN0VEF0l-5" value="amount&amp;nbsp; &amp;nbsp;float" style="text;strokeColor=none;fillColor=none;align=left;verticalAlign=middle;spacingLeft=4;spacingRight=4;overflow=hidden;points=[[0,0.5],[1,0.5]];portConstraint=eastwest;rotatable=0;whiteSpace=wrap;html=1;" vertex="1" parent="qFXLy3kXuhTQNN0VEF0l-1">
          <mxGeometry y="120" width="160" height="30" as="geometry" />
        </mxCell>
        <mxCell id="qFXLy3kXuhTQNN0VEF0l-6" value="details&amp;nbsp; &amp;nbsp;text" style="text;strokeColor=none;fillColor=none;align=left;verticalAlign=middle;spacingLeft=4;spacingRight=4;overflow=hidden;points=[[0,0.5],[1,0.5]];portConstraint=eastwest;rotatable=0;whiteSpace=wrap;html=1;" vertex="1" parent="qFXLy3kXuhTQNN0VEF0l-1">
          <mxGeometry y="150" width="160" height="30" as="geometry" />
        </mxCell>
        <mxCell id="flvLk-wUkgWKTXH1mET5-1" value="order_id int(11)" style="text;strokeColor=none;fillColor=none;align=left;verticalAlign=middle;spacingLeft=4;spacingRight=4;overflow=hidden;points=[[0,0.5],[1,0.5]];portConstraint=eastwest;rotatable=0;whiteSpace=wrap;html=1;" vertex="1" parent="qFXLy3kXuhTQNN0VEF0l-1">
          <mxGeometry y="180" width="160" height="30" as="geometry" />
        </mxCell>
        <mxCell id="flvLk-wUkgWKTXH1mET5-2" style="edgeStyle=orthogonalEdgeStyle;rounded=0;orthogonalLoop=1;jettySize=auto;html=1;entryX=1;entryY=0.5;entryDx=0;entryDy=0;" edge="1" parent="1" source="flvLk-wUkgWKTXH1mET5-1" target="samT2zoZnZyIBhN4alo4-2">
          <mxGeometry relative="1" as="geometry">
            <mxPoint x="1000" y="-820" as="targetPoint" />
            <Array as="points">
              <mxPoint x="1360" y="-445" />
              <mxPoint x="1360" y="-480" />
              <mxPoint x="1040" y="-480" />
              <mxPoint x="1040" y="-875" />
            </Array>
          </mxGeometry>
        </mxCell>
        <mxCell id="flvLk-wUkgWKTXH1mET5-3" value="order_id = order_id" style="text;html=1;strokeColor=none;fillColor=none;align=center;verticalAlign=middle;whiteSpace=wrap;rounded=0;" vertex="1" parent="1">
          <mxGeometry x="1210" y="-480" width="160" height="40" as="geometry" />
        </mxCell>
        <mxCell id="FfMvZ3WMDS-0zbs6uZIX-2" style="edgeStyle=orthogonalEdgeStyle;rounded=0;orthogonalLoop=1;jettySize=auto;html=1;entryX=1;entryY=0.5;entryDx=0;entryDy=0;" edge="1" parent="1" source="3L4aQOnzPKOOjwgaeZKS-1" target="4zwyzADHhxvs4Sk-Wkjw-3">
          <mxGeometry relative="1" as="geometry">
            <Array as="points">
              <mxPoint x="1600" y="-155" />
              <mxPoint x="1600" y="-285" />
            </Array>
          </mxGeometry>
        </mxCell>
        <mxCell id="3L4aQOnzPKOOjwgaeZKS-1" value="paymentStatus" style="swimlane;fontStyle=0;childLayout=stackLayout;horizontal=1;startSize=30;horizontalStack=0;resizeParent=1;resizeParentMax=0;resizeLast=0;collapsible=1;marginBottom=0;whiteSpace=wrap;html=1;fillColor=#EA6B66;" vertex="1" parent="1">
          <mxGeometry x="1400" y="-200" width="160" height="90" as="geometry" />
        </mxCell>
        <mxCell id="3L4aQOnzPKOOjwgaeZKS-2" value="&lt;u&gt;paymentStatus_id&lt;/u&gt;&amp;nbsp; &amp;nbsp;int(11)" style="text;strokeColor=none;fillColor=none;align=left;verticalAlign=middle;spacingLeft=4;spacingRight=4;overflow=hidden;points=[[0,0.5],[1,0.5]];portConstraint=eastwest;rotatable=0;whiteSpace=wrap;html=1;" vertex="1" parent="3L4aQOnzPKOOjwgaeZKS-1">
          <mxGeometry y="30" width="160" height="30" as="geometry" />
        </mxCell>
        <mxCell id="3L4aQOnzPKOOjwgaeZKS-3" value="label&amp;nbsp; &amp;nbsp;varchar(255)" style="text;strokeColor=none;fillColor=none;align=left;verticalAlign=middle;spacingLeft=4;spacingRight=4;overflow=hidden;points=[[0,0.5],[1,0.5]];portConstraint=eastwest;rotatable=0;whiteSpace=wrap;html=1;" vertex="1" parent="3L4aQOnzPKOOjwgaeZKS-1">
          <mxGeometry y="60" width="160" height="30" as="geometry" />
        </mxCell>
        <mxCell id="4zwyzADHhxvs4Sk-Wkjw-1" value="payments_paymentStatus" style="swimlane;fontStyle=0;childLayout=stackLayout;horizontal=1;startSize=30;horizontalStack=0;resizeParent=1;resizeParentMax=0;resizeLast=0;collapsible=1;marginBottom=0;whiteSpace=wrap;html=1;fillColor=#EA6B66;" vertex="1" parent="1">
          <mxGeometry x="1400" y="-360" width="160" height="90" as="geometry" />
        </mxCell>
        <mxCell id="4zwyzADHhxvs4Sk-Wkjw-2" value="&lt;u&gt;payment_id&lt;/u&gt;&amp;nbsp; &amp;nbsp;int(11)" style="text;strokeColor=none;fillColor=none;align=left;verticalAlign=middle;spacingLeft=4;spacingRight=4;overflow=hidden;points=[[0,0.5],[1,0.5]];portConstraint=eastwest;rotatable=0;whiteSpace=wrap;html=1;" vertex="1" parent="4zwyzADHhxvs4Sk-Wkjw-1">
          <mxGeometry y="30" width="160" height="30" as="geometry" />
        </mxCell>
        <mxCell id="4zwyzADHhxvs4Sk-Wkjw-3" value="&lt;u&gt;paymentStatus_id&lt;/u&gt;&amp;nbsp; &amp;nbsp;int(11)" style="text;strokeColor=none;fillColor=none;align=left;verticalAlign=middle;spacingLeft=4;spacingRight=4;overflow=hidden;points=[[0,0.5],[1,0.5]];portConstraint=eastwest;rotatable=0;whiteSpace=wrap;html=1;" vertex="1" parent="4zwyzADHhxvs4Sk-Wkjw-1">
          <mxGeometry y="60" width="160" height="30" as="geometry" />
        </mxCell>
        <mxCell id="FfMvZ3WMDS-0zbs6uZIX-1" style="edgeStyle=orthogonalEdgeStyle;rounded=0;orthogonalLoop=1;jettySize=auto;html=1;entryX=1;entryY=0.5;entryDx=0;entryDy=0;" edge="1" parent="1" source="4zwyzADHhxvs4Sk-Wkjw-2" target="qFXLy3kXuhTQNN0VEF0l-2">
          <mxGeometry relative="1" as="geometry">
            <Array as="points">
              <mxPoint x="1600" y="-315" />
              <mxPoint x="1600" y="-595" />
            </Array>
          </mxGeometry>
        </mxCell>
        <mxCell id="FfMvZ3WMDS-0zbs6uZIX-3" value="payment_id = payment_id" style="text;html=1;strokeColor=none;fillColor=none;align=center;verticalAlign=middle;whiteSpace=wrap;rounded=0;" vertex="1" parent="1">
          <mxGeometry x="1440" y="-410" width="160" height="40" as="geometry" />
        </mxCell>
        <mxCell id="FfMvZ3WMDS-0zbs6uZIX-4" value="paymentStatus_id = paymentStatus_id" style="text;html=1;strokeColor=none;fillColor=none;align=center;verticalAlign=middle;whiteSpace=wrap;rounded=0;" vertex="1" parent="1">
          <mxGeometry x="1370" y="-250" width="240" height="40" as="geometry" />
        </mxCell>
        <mxCell id="yPZ9PmVmoHwEnymKYxvD-1" value="bills" style="swimlane;fontStyle=0;childLayout=stackLayout;horizontal=1;startSize=30;horizontalStack=0;resizeParent=1;resizeParentMax=0;resizeLast=0;collapsible=1;marginBottom=0;whiteSpace=wrap;html=1;fillColor=#EA6B66;" vertex="1" parent="1">
          <mxGeometry x="790" y="-720" width="160" height="210" as="geometry" />
        </mxCell>
        <mxCell id="yPZ9PmVmoHwEnymKYxvD-2" value="&lt;u&gt;bill_id&lt;/u&gt;&amp;nbsp; &amp;nbsp;int(11)" style="text;strokeColor=none;fillColor=none;align=left;verticalAlign=middle;spacingLeft=4;spacingRight=4;overflow=hidden;points=[[0,0.5],[1,0.5]];portConstraint=eastwest;rotatable=0;whiteSpace=wrap;html=1;" vertex="1" parent="yPZ9PmVmoHwEnymKYxvD-1">
          <mxGeometry y="30" width="160" height="30" as="geometry" />
        </mxCell>
        <mxCell id="yPZ9PmVmoHwEnymKYxvD-3" value="bill_number int(11)" style="text;strokeColor=none;fillColor=none;align=left;verticalAlign=middle;spacingLeft=4;spacingRight=4;overflow=hidden;points=[[0,0.5],[1,0.5]];portConstraint=eastwest;rotatable=0;whiteSpace=wrap;html=1;" vertex="1" parent="yPZ9PmVmoHwEnymKYxvD-1">
          <mxGeometry y="60" width="160" height="30" as="geometry" />
        </mxCell>
        <mxCell id="yPZ9PmVmoHwEnymKYxvD-4" value="date&amp;nbsp; &amp;nbsp;date" style="text;strokeColor=none;fillColor=none;align=left;verticalAlign=middle;spacingLeft=4;spacingRight=4;overflow=hidden;points=[[0,0.5],[1,0.5]];portConstraint=eastwest;rotatable=0;whiteSpace=wrap;html=1;" vertex="1" parent="yPZ9PmVmoHwEnymKYxvD-1">
          <mxGeometry y="90" width="160" height="30" as="geometry" />
        </mxCell>
        <mxCell id="yPZ9PmVmoHwEnymKYxvD-6" value="total_amount" style="text;strokeColor=none;fillColor=none;align=left;verticalAlign=middle;spacingLeft=4;spacingRight=4;overflow=hidden;points=[[0,0.5],[1,0.5]];portConstraint=eastwest;rotatable=0;whiteSpace=wrap;html=1;" vertex="1" parent="yPZ9PmVmoHwEnymKYxvD-1">
          <mxGeometry y="120" width="160" height="30" as="geometry" />
        </mxCell>
        <mxCell id="LObK9S_MLeC7xcIyCFMF-1" value="order_id int(11)" style="text;strokeColor=none;fillColor=none;align=left;verticalAlign=middle;spacingLeft=4;spacingRight=4;overflow=hidden;points=[[0,0.5],[1,0.5]];portConstraint=eastwest;rotatable=0;whiteSpace=wrap;html=1;" vertex="1" parent="yPZ9PmVmoHwEnymKYxvD-1">
          <mxGeometry y="150" width="160" height="30" as="geometry" />
        </mxCell>
        <mxCell id="T2npnCDONlsJ3iWn4o1g-1" value="user_id int(11)" style="text;strokeColor=none;fillColor=none;align=left;verticalAlign=middle;spacingLeft=4;spacingRight=4;overflow=hidden;points=[[0,0.5],[1,0.5]];portConstraint=eastwest;rotatable=0;whiteSpace=wrap;html=1;" vertex="1" parent="yPZ9PmVmoHwEnymKYxvD-1">
          <mxGeometry y="180" width="160" height="30" as="geometry" />
        </mxCell>
        <mxCell id="dt1GECmw7-QdPBqIjx0h-2" style="edgeStyle=orthogonalEdgeStyle;rounded=0;orthogonalLoop=1;jettySize=auto;html=1;entryX=1;entryY=0.5;entryDx=0;entryDy=0;" edge="1" parent="1" source="LObK9S_MLeC7xcIyCFMF-1" target="samT2zoZnZyIBhN4alo4-2">
          <mxGeometry relative="1" as="geometry">
            <Array as="points">
              <mxPoint x="1000" y="-555" />
              <mxPoint x="1000" y="-875" />
            </Array>
          </mxGeometry>
        </mxCell>
        <mxCell id="dt1GECmw7-QdPBqIjx0h-3" value="order_id = order_id" style="text;html=1;strokeColor=none;fillColor=none;align=center;verticalAlign=middle;whiteSpace=wrap;rounded=0;" vertex="1" parent="1">
          <mxGeometry x="880" y="-520" width="160" height="40" as="geometry" />
        </mxCell>
        <mxCell id="T2npnCDONlsJ3iWn4o1g-2" style="edgeStyle=orthogonalEdgeStyle;rounded=0;orthogonalLoop=1;jettySize=auto;html=1;entryX=1;entryY=0.5;entryDx=0;entryDy=0;" edge="1" parent="1" source="T2npnCDONlsJ3iWn4o1g-1" target="YA10-PJrDd8qxraKfVrJ-2">
          <mxGeometry relative="1" as="geometry">
            <Array as="points">
              <mxPoint x="680" y="-525" />
              <mxPoint x="680" y="-740" />
            </Array>
          </mxGeometry>
        </mxCell>
        <mxCell id="T2npnCDONlsJ3iWn4o1g-3" value="user_id = user_id" style="text;html=1;strokeColor=none;fillColor=none;align=center;verticalAlign=middle;whiteSpace=wrap;rounded=0;" vertex="1" parent="1">
          <mxGeometry x="660" y="-560" width="160" height="40" as="geometry" />
        </mxCell>
        <mxCell id="MXb6H4ZevASifXmSMPEb-1" value="billStatus" style="swimlane;fontStyle=0;childLayout=stackLayout;horizontal=1;startSize=30;horizontalStack=0;resizeParent=1;resizeParentMax=0;resizeLast=0;collapsible=1;marginBottom=0;whiteSpace=wrap;html=1;fillColor=#EA6B66;" vertex="1" parent="1">
          <mxGeometry x="1120" y="-200" width="159" height="90" as="geometry" />
        </mxCell>
        <mxCell id="MXb6H4ZevASifXmSMPEb-2" value="&lt;u&gt;billStatus_id&lt;/u&gt;&amp;nbsp; &amp;nbsp;int(11)" style="text;strokeColor=none;fillColor=none;align=left;verticalAlign=middle;spacingLeft=4;spacingRight=4;overflow=hidden;points=[[0,0.5],[1,0.5]];portConstraint=eastwest;rotatable=0;whiteSpace=wrap;html=1;" vertex="1" parent="MXb6H4ZevASifXmSMPEb-1">
          <mxGeometry y="30" width="159" height="30" as="geometry" />
        </mxCell>
        <mxCell id="MXb6H4ZevASifXmSMPEb-3" value="label&amp;nbsp; &amp;nbsp;varchar(255)" style="text;strokeColor=none;fillColor=none;align=left;verticalAlign=middle;spacingLeft=4;spacingRight=4;overflow=hidden;points=[[0,0.5],[1,0.5]];portConstraint=eastwest;rotatable=0;whiteSpace=wrap;html=1;" vertex="1" parent="MXb6H4ZevASifXmSMPEb-1">
          <mxGeometry y="60" width="159" height="30" as="geometry" />
        </mxCell>
        <mxCell id="MXb6H4ZevASifXmSMPEb-4" value="bills_billStatus" style="swimlane;fontStyle=0;childLayout=stackLayout;horizontal=1;startSize=30;horizontalStack=0;resizeParent=1;resizeParentMax=0;resizeLast=0;collapsible=1;marginBottom=0;whiteSpace=wrap;html=1;fillColor=#EA6B66;" vertex="1" parent="1">
          <mxGeometry x="1120" y="-360" width="160" height="90" as="geometry" />
        </mxCell>
        <mxCell id="MXb6H4ZevASifXmSMPEb-5" value="&lt;u&gt;bill_id&lt;/u&gt;&amp;nbsp; &amp;nbsp;int(11)" style="text;strokeColor=none;fillColor=none;align=left;verticalAlign=middle;spacingLeft=4;spacingRight=4;overflow=hidden;points=[[0,0.5],[1,0.5]];portConstraint=eastwest;rotatable=0;whiteSpace=wrap;html=1;" vertex="1" parent="MXb6H4ZevASifXmSMPEb-4">
          <mxGeometry y="30" width="160" height="30" as="geometry" />
        </mxCell>
        <mxCell id="MXb6H4ZevASifXmSMPEb-6" value="&lt;u&gt;billStatus_id&lt;/u&gt;&amp;nbsp; &amp;nbsp;int(11)" style="text;strokeColor=none;fillColor=none;align=left;verticalAlign=middle;spacingLeft=4;spacingRight=4;overflow=hidden;points=[[0,0.5],[1,0.5]];portConstraint=eastwest;rotatable=0;whiteSpace=wrap;html=1;" vertex="1" parent="MXb6H4ZevASifXmSMPEb-4">
          <mxGeometry y="60" width="160" height="30" as="geometry" />
        </mxCell>
        <mxCell id="zkf0dhnrZ85BODmu6_r7-1" style="edgeStyle=orthogonalEdgeStyle;rounded=0;orthogonalLoop=1;jettySize=auto;html=1;entryX=1.013;entryY=0.733;entryDx=0;entryDy=0;entryPerimeter=0;" edge="1" parent="1" source="MXb6H4ZevASifXmSMPEb-6" target="MXb6H4ZevASifXmSMPEb-2">
          <mxGeometry relative="1" as="geometry">
            <Array as="points">
              <mxPoint x="1320" y="-285" />
              <mxPoint x="1320" y="-148" />
            </Array>
          </mxGeometry>
        </mxCell>
        <mxCell id="zkf0dhnrZ85BODmu6_r7-2" value="billStatus_id = billStatus_id" style="text;html=1;strokeColor=none;fillColor=none;align=center;verticalAlign=middle;whiteSpace=wrap;rounded=0;" vertex="1" parent="1">
          <mxGeometry x="1161" y="-250" width="160" height="40" as="geometry" />
        </mxCell>
        <mxCell id="zkf0dhnrZ85BODmu6_r7-3" style="edgeStyle=orthogonalEdgeStyle;rounded=0;orthogonalLoop=1;jettySize=auto;html=1;entryX=1;entryY=0.5;entryDx=0;entryDy=0;" edge="1" parent="1" source="MXb6H4ZevASifXmSMPEb-5" target="yPZ9PmVmoHwEnymKYxvD-2">
          <mxGeometry relative="1" as="geometry">
            <Array as="points">
              <mxPoint x="1100" y="-315" />
              <mxPoint x="1100" y="-675" />
            </Array>
          </mxGeometry>
        </mxCell>
        <mxCell id="zkf0dhnrZ85BODmu6_r7-4" value="bill_id = bill_id" style="text;html=1;strokeColor=none;fillColor=none;align=center;verticalAlign=middle;whiteSpace=wrap;rounded=0;" vertex="1" parent="1">
          <mxGeometry x="1070" y="-410" width="160" height="40" as="geometry" />
        </mxCell>
        <mxCell id="bi4Cxw0aAN4_otPpR4OG-2" style="edgeStyle=orthogonalEdgeStyle;rounded=0;orthogonalLoop=1;jettySize=auto;html=1;" edge="1" parent="1" source="YA10-PJrDd8qxraKfVrJ-2" target="bi4Cxw0aAN4_otPpR4OG-1">
          <mxGeometry relative="1" as="geometry">
            <Array as="points">
              <mxPoint x="680" y="-740" />
              <mxPoint x="680" y="-965" />
            </Array>
          </mxGeometry>
        </mxCell>
        <mxCell id="uOi3XC6pqIkxGQcZXmFW-1" style="edgeStyle=orthogonalEdgeStyle;rounded=0;orthogonalLoop=1;jettySize=auto;html=1;" edge="1" parent="1" source="vq5LPz_DN_8RRjrg5eqJ-6" target="YA10-PJrDd8qxraKfVrJ-2">
          <mxGeometry relative="1" as="geometry" />
        </mxCell>
        <mxCell id="uOi3XC6pqIkxGQcZXmFW-2" value="accepted_by = user_id" style="text;html=1;strokeColor=none;fillColor=none;align=center;verticalAlign=middle;whiteSpace=wrap;rounded=0;" vertex="1" parent="1">
          <mxGeometry x="390" y="-190" width="160" height="40" as="geometry" />
        </mxCell>
      </root>
    </mxGraphModel>
  </diagram>
</mxfile>
